<svg width="70" height="71" viewBox="0 0 70 71" fill="none" xmlns="http://www.w3.org/2000/svg">
<g clip-path="url(#clip0_63_9918)">
<path d="M34.9531 34.4466L34.8564 34.4078L34.8177 34.3497L34.7549 34.2819L34.4358 33.5263L34.0249 32.7513L33.6817 31.9473L33.3094 31.153L32.9565 30.3587L32.6326 29.545L32.2217 28.77L31.8737 27.966L31.5256 27.162L31.1872 26.358L30.902 25.5298L30.5297 24.7355L30.2203 23.9169L29.8771 23.1081L29.5436 22.2992L29.2777 21.4613L28.9393 20.6524L28.6782 19.8145L28.3495 18.996L28.1029 18.1532L27.7404 17.3492L27.4987 16.5064L27.1941 15.6831L26.9621 14.8306L26.7687 13.9733L26.6092 13.1112L26.469 12.2442L26.3529 11.3821L26.1934 10.52L26.1161 9.69172L26.1016 8.85381L26.1354 8.02074L26.3094 7.2022L26.469 6.3885L26.7252 5.59417L27.0201 4.81438L27.4261 4.08786L27.8564 3.37588L28.422 2.7656L29.0263 2.08268L29.7659 1.54506L30.5104 1.02197L31.3419 0.634491L32.2266 0.392319L33.1112 0.15499L34.0249 0.0871819L34.9337 0L35.7797 0.0581213L36.6209 0.121086L37.4524 0.305137L38.25 0.571526L39.0574 0.837915L39.7728 1.2932L40.5221 1.6952L41.1361 2.29095L41.7114 2.91091L42.2673 3.61805L42.6686 4.42691L43.0891 5.21639L43.3647 6.07367L43.5726 6.94549L43.7176 7.83184L43.8191 8.72304L43.7901 9.62392L43.6982 10.5248L43.5726 11.3918L43.3357 12.2345L43.1665 13.0918L42.9393 13.9346L42.7556 14.7919L42.4317 15.6104L42.2866 16.4774L41.9724 17.2959L41.6824 18.1242L41.4261 18.9572L41.1506 19.7903L40.8412 20.6088L40.585 21.4468L40.2273 22.2508L39.9759 23.0935L39.5408 23.8636L39.3716 24.7403L38.922 25.5056L38.6948 26.358L38.3177 27.1475L37.9552 27.9467L37.6748 28.7846L37.2735 29.5644L36.9593 30.3829L36.6064 31.1821L36.181 31.9473L35.8958 32.7853L35.4848 33.5554L35.2093 34.3109L35.0788 34.3739L34.9531 34.4466Z" fill="#DC5A3C"/>
<path d="M34.0939 15.2859L33.2334 15.1454L32.4503 14.7677L31.7155 14.3172L31 13.8426L30.4151 13.2081L29.9123 12.5348L29.8398 12.53L29.5111 11.7599L29.163 10.9704L29.0228 10.1179L28.8633 9.29456L28.9165 9.24613L29.0373 8.41306L29.163 7.56061L29.4289 6.76144L29.4047 6.69364L29.8688 5.99134L30.3377 5.25513L30.9904 4.67876L31.701 4.18473L32.4406 3.73914L33.2528 3.44853L34.1036 3.29838L34.9544 3.13855L34.9834 3.16761L35.8149 3.29354L36.6658 3.434L37.4683 3.7682L38.2514 4.1363L38.9185 4.68845L39.5373 5.29388L40.0981 5.95743L40.4413 6.7566L40.7991 7.55092L41.0263 8.39368L40.9489 9.2655L40.9199 10.1276L40.8522 10.9656L40.7652 10.9946L40.4171 11.7647L39.9917 12.5106L39.5857 13.242L39.518 13.2613L38.904 13.828L38.2224 14.356L37.4489 14.7386L36.6609 15.0776L35.8101 15.2084L34.9496 15.3246L34.0939 15.2859Z" fill="white"/>
<path d="M0.145028 69.4742L0.0145028 69.4791L0 69.2805L0.111188 68.4087L0.15953 67.5272L0.338398 66.665L0.468923 65.7932L0.517265 64.9165L0.68163 64.0496L0.797652 63.1777L0.899171 62.3059L1.01036 61.4293L1.17472 60.5671L1.27624 59.6905L1.40677 58.8235L1.47928 57.942L1.59047 57.0702L1.72583 56.1983L1.85152 55.3265L2.03039 54.4596L2.15124 53.5877L2.22859 52.7062L2.37845 51.8392L2.46547 50.9626L2.60083 50.0908L2.72652 49.2189L2.86188 48.3471L2.95373 47.4705L3.06975 46.5938L3.17611 45.7171L3.27762 44.8405L3.42749 43.9687L3.60152 43.1017L3.72721 42.225L3.80456 42.0991L4.58287 41.6826L5.35635 41.2418L6.1395 40.8253L6.89848 40.3603L7.7058 39.9873L8.49378 39.5757L9.2866 39.1688L10.0649 38.7426L10.8384 38.3115L11.607 37.8659L12.3999 37.4591L13.1878 37.0571L13.9662 36.6163L14.7445 36.1949L15.5276 35.7639L16.3543 35.4151L17.1036 34.9308L17.2148 34.9017L17.3405 34.9356L17.442 35.1487L17.384 36.0109L17.2631 36.873L17.239 37.74L17.1616 38.6021L17.1713 39.4691L17.0456 40.3264L16.9972 41.1885L16.9537 42.0555L16.8619 42.9176L16.8135 43.7846L16.8087 44.6516L16.7749 45.5137L16.712 46.3807L16.6395 47.2428L16.6057 48.1098L16.5235 48.9719L16.422 49.8389L16.4316 50.7059L16.3494 51.5729L16.2914 52.435L16.2286 53.302L16.1706 54.1689L16.1754 55.0359L16.0546 55.8981L15.9965 56.765L16.0014 57.632L15.9434 58.5038L15.8273 59.366L15.75 60.2281L15.7838 61.1048L15.6436 61.9717L15.5905 62.1703L14.8267 62.5336L14.0338 62.8484L13.2845 63.2552L12.511 63.604L11.7279 63.9382L10.9593 64.3014L10.1954 64.6695L9.4558 65.0957L8.66782 65.4203L7.89917 65.7884L7.14503 66.1758L6.39572 66.573L5.62224 66.9363L4.85359 67.2995L4.07044 67.6289L3.32113 68.0309L2.51865 68.3312L1.78384 68.7719L1.01519 69.1449L0.217541 69.4597L0.145028 69.4742Z" fill="#B4C8C8"/>
<path d="M34.4331 70.9467L34.3509 70.9661L33.5774 70.598L32.8039 70.2347L32.045 69.8376L31.2521 69.5227L30.4883 69.1304L29.7003 68.8011L28.9317 68.4233L28.1824 68.0067L27.4089 67.6483L26.6113 67.3238L25.8474 66.9412L25.0885 66.5489L24.3247 66.1517L23.5415 65.8127L22.7535 65.4833L21.98 65.1201L21.2259 64.7084L20.4282 64.3887L19.6693 63.9915L18.8958 63.6234L18.1126 63.2699L17.3585 62.8533L16.5753 62.4997L15.7922 62.1413L15.7148 61.9573L15.7293 61.0903L15.7487 60.2185L15.8067 59.3515L15.9179 58.4942L16.0001 57.6272L15.9952 56.7603L16.0581 55.8981L16.1596 55.0312L16.2224 54.1642L16.2853 53.3021L16.3143 52.4351L16.3095 51.5633L16.3771 50.6963L16.44 49.8293L16.5657 48.9672L16.5802 48.1002L16.6043 47.2284L16.73 46.3662L16.759 45.4944L16.7977 44.6275L16.8364 43.7605L16.9476 42.8935L16.9911 42.0265L17.0008 41.1547L17.0539 40.2877L17.0829 39.4208L17.1651 38.5489L17.2086 37.682L17.2521 36.8101L17.3295 35.9432L17.4213 35.0713L17.5229 34.9551L17.605 34.8824L17.6679 34.9309L18.4897 35.2409L19.297 35.5896L20.1285 35.8947L20.9117 36.2967L21.7528 36.568L22.565 36.907L23.3723 37.2654L24.1893 37.5948L24.9821 37.9822L25.8039 38.2971L26.6161 38.6458L27.4379 38.9606L28.2307 39.3481L29.038 39.7065L29.8695 40.0068L30.6672 40.3846L31.5035 40.6752L32.3205 41.0046L33.1327 41.3533L33.9206 41.7601L34.7521 42.0701L34.8295 42.2493L34.8198 43.1163L34.8101 43.9784L34.8005 44.8454L34.8585 45.7075L34.8101 46.5697L34.844 47.4366L34.7908 48.2939L34.8295 49.1609L34.8198 50.023L34.844 50.8852L34.7811 51.7522L34.7715 52.6143L34.815 53.4764L34.7811 54.3386L34.7231 55.2055L34.7618 56.0725L34.7908 56.9346L34.7763 57.8016L34.7328 58.6637L34.757 59.5307L34.6941 60.3929L34.7086 61.2598V62.1268L34.7328 62.9938L34.699 63.8559L34.7183 64.7229L34.7135 65.585L34.6893 66.452L34.6845 67.319L34.6361 68.186L34.6458 69.0529L34.6361 69.9199L34.67 70.7917L34.5153 70.9225L34.4331 70.9467Z" fill="#B4C8C8"/>
<path d="M69.767 69.4984L69.6655 69.513L68.9017 69.1448L68.1572 68.7332L67.3789 68.3844L66.6006 68.0405L65.8465 67.6482L65.0681 67.3043L64.3237 66.8927L63.5453 66.5488L62.796 66.1468L62.0129 65.8126L61.2636 65.4106L60.4998 65.0376L59.7214 64.7034L58.948 64.3402L58.1793 63.9817L57.4107 63.6088L56.6517 63.2262L55.883 62.8581L55.1047 62.5045L54.3409 62.1219L54.2346 61.9717L54.2007 61.1047L54.1572 60.2378L54.0267 59.3805L53.9977 58.5183L53.9397 57.6562L53.8768 56.7941L53.8575 55.9271L53.7947 55.0601L53.7173 54.198L53.6738 53.3359L53.6255 52.4689L53.5819 51.6068L53.5433 50.7398L53.4079 49.8776L53.3644 49.0107L53.2967 48.1485L53.2822 47.2767L53.1952 46.4146L53.1372 45.5525L53.1469 44.6806L53.0357 43.8185L52.968 42.9515L52.9438 42.0845L52.9197 41.2176L52.8665 40.3506L52.7843 39.4885L52.765 38.6166L52.6634 37.7545L52.6344 36.8827L52.6006 36.0109L52.5039 35.1439L52.5958 34.9792L52.6973 34.9308H52.8036L53.5529 35.4103L54.3554 35.7929L55.1531 36.1804L55.9072 36.6502L56.7049 37.0425L57.5074 37.43L58.2518 37.924L59.0688 38.2776L59.823 38.7426L60.6303 39.1252L61.4231 39.5272L62.1821 39.9825L62.9749 40.3942L63.7484 40.8301L64.5412 41.2418L65.334 41.6486L66.0978 42.1088L66.2187 42.2202L66.3492 43.092L66.4121 43.9686L66.6054 44.8308L66.6828 45.7074L66.8036 46.5793L66.91 47.4511L67.0647 48.3181L67.1469 49.1947L67.3016 50.0617L67.3886 50.9384L67.5336 51.8053L67.6545 52.6772L67.7802 53.549L67.9252 54.4159L68.0364 55.2926L68.1234 56.1693L68.2442 57.0411L68.3989 57.9081L68.515 58.7847L68.6745 59.6517L68.7132 60.5381L68.8533 61.405L69.0032 62.2769L69.0709 63.1584L69.1918 64.0302L69.3948 64.8923L69.4818 65.769L69.6365 66.6408L69.7284 67.5175L69.8299 68.399L69.9991 69.2708L69.8734 69.4548L69.767 69.4984Z" fill="#B4C8C8"/>
<path d="M34.8211 70.9757L34.7341 70.9273L34.6181 70.7868L34.6036 69.9247L34.6568 69.0626L34.6664 68.1956L34.6277 67.3335V66.4665L34.6568 65.6044L34.6471 64.7422L34.6906 63.8801L34.6809 63.018L34.6616 62.1558L34.7051 61.2888L34.7534 60.4267L34.7148 59.5646L34.6906 58.6976L34.7389 57.8355L34.7679 56.9685L34.7486 56.1064L34.8066 55.2394V54.3773L34.7969 53.5103L34.7486 52.6433L34.7728 51.7812L34.7824 50.9142L34.7728 50.0472L34.8163 49.1851L34.8066 48.3181L34.8018 47.456L34.8646 46.589L34.8018 45.722L34.8501 44.8551L34.8936 43.9881L34.8211 43.1163L34.8356 42.2493L35 42.0846L35.7976 41.6971L36.6436 41.4211L37.4606 41.0772L38.2824 40.7333L39.0898 40.37L39.8971 39.9971L40.7479 39.721L41.5407 39.3238L42.3674 38.9945L43.1747 38.6264L44.0255 38.3455L44.8184 37.9435L45.6547 37.6383L46.491 37.3429L47.279 36.9215L48.1105 36.6018L48.9323 36.2628L49.759 35.9286L50.5856 35.5944L51.4123 35.2554L52.2486 34.9454L52.3066 34.863L52.4178 34.9018L52.4613 35.0713L52.5677 35.9334L52.616 36.8053L52.6837 37.6674L52.7127 38.5344L52.7755 39.3965L52.8239 40.2635L52.9012 41.1256L52.9544 41.9926L52.9931 42.8596L53.0366 43.7265L53.1478 44.5887L53.1381 45.4605L53.259 46.3226L53.2493 47.1944L53.3702 48.0566L53.375 48.9284L53.462 49.7954V50.6623L53.5103 51.5342L53.5877 52.4011L53.6844 53.2633L53.7182 54.1351L53.8246 54.9972L53.8729 55.8642L53.9309 56.7312L53.9793 57.603L54.0373 58.47L54.1001 59.3369L54.0711 60.2136L54.2065 61.0806L54.2306 61.9524L54.1098 62.1316L53.2928 62.4658L52.5193 62.8872L51.712 63.2359L50.9143 63.6089L50.1022 63.9479L49.3045 64.316L48.5311 64.7374L47.7286 65.1055L46.9019 65.4106L46.1139 65.8029L45.326 66.2001L44.4993 66.5052L43.7113 66.9072L42.904 67.2608L42.1112 67.6386L41.3039 67.9825L40.511 68.3748L39.7376 68.7962L38.9206 69.1304L38.1132 69.4888L37.3301 69.9005L36.4986 70.2008L35.6913 70.5689L34.9178 70.9999L34.8211 70.9757Z" fill="#B4C8C8"/>
<path d="M15.7411 59.1771L15.4269 59.0221L15.248 58.6927L15.3641 57.8209L15.4317 56.9491L15.4076 56.0676L15.4753 55.1958L15.5236 54.324L15.5913 53.4473L15.659 52.5755L15.7266 51.7037L15.7605 50.827L15.7895 49.9503L15.8717 49.0785L15.92 48.2018L15.9683 47.3252L16.0167 46.4485L16.0409 45.5719L16.1085 44.7L16.1521 43.8234L16.2487 42.9516L16.3406 42.0749L16.3793 41.1982L16.4228 40.3216L16.4953 39.4449L16.4711 38.5634L16.563 37.6867L17.0561 37.2024L17.409 37.3864L17.5201 37.7449L17.4476 38.6167L17.4331 39.4933L17.4138 40.37L17.2688 41.237L17.2736 42.1136L17.2156 42.9903L17.1769 43.8621L17.1237 44.7388L17.0561 45.6106L16.9545 46.4824L16.8917 47.3591L16.8869 48.2358L16.7998 49.1124L16.8047 49.9891L16.7515 50.8657L16.6935 51.7376L16.6161 52.6142L16.534 53.486L16.5001 54.3627L16.4421 55.2394L16.4228 56.116L16.3744 56.9975L16.3164 57.8742L16.2294 58.7509L15.7653 59.1722L15.7411 59.1771Z" fill="white"/>
<path d="M54.2293 59.2352L53.7942 58.7557L53.654 57.8887L53.6346 57.0072L53.5766 56.1354L53.4848 55.2636L53.3978 54.3918L53.3688 53.5151L53.3349 52.6384L53.2866 51.7618L53.2189 50.8899L53.1271 50.0133L53.0304 49.1415V48.26L52.8902 47.393L52.8225 46.5163L52.7693 45.6397L52.7258 44.763L52.6968 43.8863L52.6001 43.0145L52.5518 42.1378L52.4309 41.266L52.3922 40.3845L52.3439 39.5079L52.3197 38.6264L52.2617 37.7448L52.3294 37.3961L52.6678 37.2557V37.246L53.2092 37.677L53.2382 38.5537L53.3059 39.4255L53.3349 40.3022L53.4461 41.174L53.4799 42.0507L53.6008 42.9176L53.5815 43.7991L53.683 44.671L53.7555 45.5476L53.7845 46.4243L53.886 47.2961L53.9102 48.1728L54.0311 49.0446L54.0891 49.9213L54.1712 50.7979L54.2003 51.6746L54.2196 52.5512L54.3211 53.4231L54.4033 54.2997L54.5 55.1715V56.0531L54.616 56.9249V57.8112L54.6982 58.6879L54.616 59.056L54.2679 59.2158L54.2293 59.2352Z" fill="white"/>
<path d="M34.5974 67.842L34.2832 67.6725L34.0898 67.3528L34.1624 66.4761L34.143 65.5995L34.1575 64.718L34.1382 63.8365V62.955L34.1672 62.0735L34.2107 61.1968L34.172 60.3104L34.2252 59.4338L34.1865 58.5523L34.2832 57.6708L34.2542 56.7893L34.2107 55.9029L34.2397 55.0214L34.259 54.1399L34.2735 53.2584L34.2929 52.3769L34.2977 51.4954L34.3026 50.6139L34.2977 49.7324L34.3219 48.8509L34.3122 47.9645V47.083L34.4137 46.2015L34.3364 45.3103L34.3751 44.4288L34.873 43.9735L35.2114 44.1043L35.3129 44.4385V45.3151L35.3709 46.1966L35.3322 47.0782L35.2839 47.9597L35.2887 48.8412L35.3177 49.7178L35.2646 50.5993L35.2501 51.4808L35.2356 52.3624L35.2549 53.2439L35.2646 54.1254V55.0069L35.1872 55.8884L35.2356 56.7699L35.2259 57.6514L35.1776 58.5329L35.2114 59.4192L35.1679 60.2959L35.1727 61.1823L35.1485 62.0638L35.1534 62.9453L35.1147 63.8268L35.0712 64.7083V65.5946L35.1389 66.481L35.0712 67.3673L34.6023 67.8371L34.5974 67.842Z" fill="white"/>
</g>
<defs>
<clipPath id="clip0_63_9918">
<rect width="70" height="71" fill="white"/>
</clipPath>
</defs>
</svg>
