<svg width="503" height="504" viewBox="0 0 503 504" fill="none" xmlns="http://www.w3.org/2000/svg">
<path d="M159.949 485.599L155.006 483.732L166.028 454.551C167.012 451.946 168.326 449.915 169.97 448.455C171.615 446.996 173.485 446.124 175.582 445.838C177.68 445.552 179.911 445.856 182.276 446.749C184.509 447.592 186.342 448.748 187.777 450.216C189.206 451.697 190.133 453.384 190.558 455.275C190.982 457.166 190.8 459.155 190.012 461.241L185.149 459.404C185.585 458.248 185.681 457.13 185.436 456.051C185.173 454.98 184.626 454.014 183.797 453.154C182.968 452.294 181.909 451.621 180.62 451.134C179.198 450.597 177.876 450.439 176.653 450.661C175.431 450.882 174.342 451.473 173.387 452.434C172.414 453.402 171.609 454.73 170.971 456.418L159.949 485.599ZM112.721 434.184C115.237 430.331 118.108 427.455 121.332 425.557C124.557 423.659 127.879 422.741 131.299 422.803C134.72 422.865 137.988 423.913 141.104 425.948C144.22 427.983 146.494 430.553 147.926 433.66C149.358 436.767 149.854 440.178 149.412 443.893C148.971 447.609 147.492 451.393 144.976 455.247C142.459 459.1 139.589 461.976 136.365 463.874C133.14 465.772 129.818 466.69 126.398 466.628C122.977 466.566 119.709 465.518 116.593 463.483C113.477 461.448 111.203 458.878 109.771 455.771C108.339 452.664 107.843 449.253 108.285 445.537C108.726 441.822 110.205 438.038 112.721 434.184ZM117.003 436.98C114.937 440.144 113.723 443.159 113.36 446.027C112.985 448.887 113.331 451.462 114.397 453.753C115.45 456.036 117.084 457.9 119.296 459.344C121.508 460.789 123.877 461.538 126.403 461.593C128.917 461.64 131.414 460.921 133.894 459.436C136.361 457.943 138.628 455.614 140.694 452.451C142.76 449.287 143.98 446.275 144.355 443.416C144.718 440.548 144.372 437.973 143.318 435.69C142.252 433.399 140.613 431.531 138.401 430.087C136.189 428.642 133.826 427.896 131.312 427.849C128.786 427.795 126.289 428.514 123.821 430.007C121.341 431.492 119.069 433.816 117.003 436.98ZM72.9263 412.301C71.5429 413.979 71.0485 415.887 71.4432 418.025C71.8379 420.164 72.9484 422.188 74.7748 424.097C76.1102 425.493 77.5045 426.498 78.9577 427.113C80.401 427.718 81.7977 427.934 83.1478 427.763C84.488 427.582 85.661 427.01 86.6669 426.048C87.5086 425.243 88.0407 424.35 88.2633 423.371C88.4659 422.391 88.4629 421.391 88.2544 420.372C88.0357 419.362 87.7207 418.386 87.3096 417.442C86.8883 416.509 86.4747 415.676 86.069 414.943L83.8676 410.916C83.2976 409.889 82.7213 408.691 82.1388 407.321C81.5465 405.942 81.1369 404.476 80.9101 402.924C80.6632 401.371 80.7581 399.806 81.1949 398.228C81.6318 396.651 82.5892 395.155 84.0672 393.741C85.771 392.111 87.7378 391.085 89.9675 390.662C92.1873 390.229 94.5177 390.476 96.9585 391.404C99.3896 392.322 101.764 393.992 104.081 396.415C106.241 398.673 107.747 400.977 108.6 403.326C109.442 405.666 109.663 407.931 109.263 410.122C108.853 412.304 107.845 414.28 106.238 416.053L102.467 412.112C103.56 410.87 104.162 409.527 104.275 408.083C104.367 406.638 104.087 405.195 103.436 403.754C102.765 402.313 101.83 400.966 100.632 399.714C99.238 398.256 97.75 397.174 96.1683 396.465C94.5763 395.767 93.0303 395.487 91.5303 395.624C90.02 395.772 88.6901 396.395 87.5405 397.495C86.4936 398.496 85.9215 399.604 85.8243 400.817C85.7271 402.031 85.9298 403.311 86.4324 404.659C86.9351 406.006 87.5627 407.381 88.3152 408.784L90.9183 413.725C92.5667 416.866 93.4214 419.783 93.4823 422.477C93.5431 425.171 92.5113 427.534 90.3866 429.566C88.6212 431.255 86.6249 432.251 84.3979 432.553C82.1509 432.855 79.8872 432.544 77.607 431.619C75.3068 430.694 73.1944 429.226 71.2698 427.214C69.3256 425.182 67.9618 423.027 67.1784 420.749C66.3847 418.481 66.1721 416.286 66.5406 414.164C66.8993 412.032 67.8495 410.18 69.3914 408.606L72.9263 412.301ZM82.5107 372.773L85.3882 377.506L39.7775 386.48L36.9443 381.819L65.9101 345.462L68.7875 350.196L44.1715 380.418L44.3486 380.709L82.5107 372.773ZM66.8826 379.878L55.2843 360.797L59.2898 358.363L70.8882 377.444L66.8826 379.878ZM17.6283 345.586L58.1194 329.32L60.0892 334.223L19.5981 350.49L17.6283 345.586ZM46.9884 289.785L47.5783 295.293L2.48391 284.008L1.90312 278.584L43.5853 258.006L44.1752 263.515L9.03953 280.392L9.07583 280.731L46.9884 289.785ZM29.8221 289.566L27.4444 267.363L32.1053 266.864L34.4829 289.067L29.8221 289.566ZM43.3741 245.381L-4.38162e-05 240.604L1.61386 225.948C1.98702 222.56 2.8722 219.842 4.26942 217.795C5.65251 215.747 7.40405 214.311 9.52404 213.487C11.644 212.663 13.9818 212.391 16.5374 212.673C19.0929 212.954 21.3015 213.726 23.1632 214.989C25.0248 216.251 26.4014 218.025 27.2931 220.309C28.1706 222.592 28.4244 225.414 28.0543 228.774L26.7483 240.634L22.0042 240.112L23.2916 228.421C23.5466 226.106 23.413 224.205 22.8907 222.718C22.3701 221.218 21.5235 220.081 20.3509 219.309C19.1658 218.521 17.705 218.032 15.9683 217.84C14.2316 217.649 12.6781 217.807 11.3076 218.313C9.9371 218.82 8.82036 219.747 7.95736 221.095C7.08024 222.442 6.51264 224.287 6.25454 226.631L5.23768 235.865L43.9525 240.128L43.3741 245.381ZM26.1379 222.819L46.7978 214.29L46.1262 220.39L25.4849 228.749L26.1379 222.819ZM49.2914 201.584L7.82936 187.981L16.0388 162.958L20.4928 164.42L13.9305 184.422L27.9401 189.018L34.0773 170.311L38.5312 171.773L32.394 190.479L46.4846 195.102L53.1532 174.776L57.6071 176.237L49.2914 201.584ZM64.2455 160.797L61.4455 165.577L31.8912 129.697L34.6481 124.99L80.3989 133.219L77.599 137.999L39.3126 130.685L39.1402 130.98L64.2455 160.797ZM50.5712 150.417L61.8571 131.149L65.9018 133.518L54.616 152.786L50.5712 150.417ZM86.1949 62.083L90.1391 58.5666L110.897 81.8501C112.75 83.9282 113.942 86.0339 114.474 88.167C115.005 90.3002 114.912 92.3623 114.194 94.3534C113.477 96.3445 112.174 98.1813 110.287 99.8639C108.505 101.452 106.632 102.542 104.667 103.133C102.692 103.714 100.768 103.755 98.8948 103.255C97.022 102.755 95.3436 101.673 93.8595 100.008L97.7401 96.5488C98.5624 97.4712 99.5088 98.0738 100.579 98.3565C101.651 98.6191 102.759 98.5821 103.906 98.2454C105.052 97.9087 106.139 97.2819 107.167 96.365C108.302 95.3536 109.054 94.2548 109.424 93.0687C109.794 91.8827 109.774 90.6441 109.365 89.353C108.958 88.0419 108.153 86.713 106.953 85.3665L86.1949 62.083ZM153.591 44.0064C155.846 48.0187 157.07 51.8931 157.263 55.6297C157.456 59.3664 156.735 62.737 155.1 65.7416C153.464 68.7461 151.024 71.16 147.779 72.9831C144.535 74.8061 141.204 75.6349 137.787 75.4693C134.371 75.3037 131.117 74.1667 128.026 72.0583C124.934 69.9499 122.262 66.8896 120.007 62.8774C117.753 58.8651 116.529 54.9907 116.336 51.2541C116.142 47.5174 116.863 44.1468 118.499 41.1422C120.135 38.1377 122.575 35.7238 125.819 33.9007C129.063 32.0777 132.394 31.2489 135.811 31.4145C139.228 31.5801 142.482 32.7171 145.573 34.8255C148.664 36.9339 151.337 39.9942 153.591 44.0064ZM149.133 46.5114C147.282 43.2174 145.169 40.747 142.794 39.1001C140.43 37.4462 137.987 36.5626 135.463 36.4493C132.951 36.329 130.544 36.916 128.241 38.2102C125.937 39.5045 124.178 41.259 122.962 43.4737C121.758 45.6815 121.242 48.2281 121.413 51.1136C121.597 53.9921 122.614 57.0784 124.465 60.3724C126.316 63.6664 128.423 66.1403 130.786 67.7942C133.162 69.4411 135.605 70.3247 138.117 70.445C140.641 70.5583 143.055 69.9678 145.358 68.6736C147.661 67.3794 149.415 65.6283 150.618 63.4205C151.834 61.2058 152.35 58.6591 152.166 55.7806C151.995 52.8952 150.984 49.8054 149.133 46.5114ZM191.465 18.8659C190.621 16.8623 189.16 15.5393 187.083 14.8969C185.005 14.2544 182.697 14.2994 180.158 15.0318C178.302 15.5673 176.765 16.3361 175.546 17.3382C174.341 18.3364 173.501 19.4731 173.026 20.7485C172.565 22.0198 172.527 23.3243 172.913 24.6618C173.236 25.7809 173.78 26.6663 174.544 27.318C175.319 27.9521 176.206 28.4132 177.205 28.7013C178.201 28.9758 179.212 29.1498 180.239 29.2233C181.261 29.2831 182.191 29.3031 183.028 29.2834L187.617 29.2013C188.792 29.1729 190.12 29.2183 191.604 29.3374C193.1 29.4526 194.589 29.7697 196.069 30.2888C197.559 30.7903 198.902 31.6005 200.097 32.7193C201.292 33.8382 202.173 35.3802 202.74 37.3455C203.394 39.6111 203.39 41.8296 202.731 44.0009C202.085 46.1684 200.784 48.118 198.83 49.8498C196.889 51.5777 194.308 52.9062 191.087 53.8354C188.085 54.7017 185.345 54.9673 182.868 54.6322C180.405 54.2932 178.295 53.4381 176.54 52.0671C174.798 50.6921 173.514 48.8818 172.689 46.6362L177.93 45.1243C178.523 46.668 179.433 47.8247 180.66 48.5942C181.897 49.3461 183.305 49.7678 184.884 49.8594C186.472 49.9333 188.099 49.7301 189.764 49.2497C191.702 48.6906 193.352 47.8747 194.713 46.802C196.07 45.7156 197.036 44.4761 197.61 43.0834C198.18 41.6771 198.244 40.2097 197.803 38.6811C197.401 37.289 196.686 36.2685 195.656 35.6194C194.626 34.9704 193.397 34.556 191.971 34.3763C190.544 34.1966 189.035 34.1146 187.442 34.1304L181.858 34.1448C178.311 34.148 175.33 33.5518 172.915 32.3561C170.501 31.1604 168.886 29.15 168.071 26.3249C167.394 23.9775 167.438 21.7472 168.203 19.6341C168.978 17.5034 170.304 15.6425 172.181 14.0514C174.067 12.4427 176.348 11.2524 179.023 10.4807C181.725 9.70109 184.267 9.4926 186.648 9.85524C189.026 10.2042 191.069 11.0341 192.777 12.3447C194.5 13.6515 195.7 15.3527 196.379 17.4485L191.465 18.8659ZM222.037 45.7034L216.508 46.0492L229.776 1.49781L235.219 1.15735L253.935 43.7085L248.406 44.0543L233.098 8.20689L232.758 8.22817L222.037 45.7034ZM223.014 28.5635L245.3 27.1697L245.593 31.8481L223.307 33.2419L223.014 28.5635ZM276.186 0.874454L271.853 44.2951L266.595 43.7703L270.928 0.349685L276.186 0.874454ZM312.055 52.6987L306.899 50.6717L337.777 15.9236L342.853 17.9194L341.799 64.3925L336.643 62.3655L337.948 23.4086L337.631 23.2839L312.055 52.6987ZM320.195 37.5836L340.977 45.7536L339.261 50.1161L318.48 41.946L320.195 37.5836ZM353.079 70.0596L377.479 33.8823L389.703 42.1267C392.529 44.0329 394.524 46.0804 395.686 48.2692C396.856 50.4463 397.313 52.6648 397.057 54.9248C396.8 57.1848 395.953 59.3806 394.516 61.5121C393.078 63.6437 391.368 65.2399 389.384 66.3009C387.401 67.3618 385.19 67.7557 382.753 67.4827C380.324 67.1978 377.708 66.1102 374.905 64.2199L365.013 57.5481L367.682 53.5912L377.432 60.1677C379.364 61.4702 381.109 62.236 382.668 62.465C384.238 62.7019 385.638 62.4809 386.867 61.802C388.116 61.1193 389.228 60.0537 390.205 58.6051C391.182 57.1566 391.765 55.708 391.954 54.2592C392.143 52.8104 391.842 51.3905 391.049 49.9995C390.265 48.5967 388.895 47.2361 386.941 45.9176L379.239 40.7232L357.46 73.0142L353.079 70.0596ZM381.069 65.293L379.011 87.5491L373.924 84.1179L376.123 61.9571L381.069 65.293ZM389.106 95.6596L420.382 65.2304L438.747 84.106L435.387 87.3748L420.707 72.2865L410.139 82.5682L423.868 96.6791L420.508 99.9479L406.779 85.837L396.15 96.1782L411.068 111.511L407.708 114.78L389.106 95.6596ZM418.323 127.815L415.378 123.123L460.855 113.495L463.754 118.115L435.314 154.885L432.369 150.193L456.548 119.62L456.367 119.331L418.323 127.815ZM433.847 120.486L445.718 139.398L441.748 141.89L429.877 122.978L433.847 120.486ZM495.685 193.019L496.968 198.145L466.709 205.72C464.008 206.396 461.59 206.474 459.453 205.954C457.317 205.435 455.534 204.395 454.104 202.835C452.674 201.275 451.652 199.268 451.038 196.815C450.458 194.5 450.363 192.335 450.752 190.32C451.154 188.301 452.011 186.578 453.323 185.151C454.636 183.725 456.373 182.74 458.537 182.199L459.799 187.242C458.6 187.542 457.627 188.101 456.88 188.917C456.15 189.744 455.668 190.744 455.434 191.915C455.2 193.086 455.25 194.34 455.585 195.677C455.954 197.151 456.578 198.328 457.457 199.206C458.335 200.084 459.441 200.642 460.775 200.879C462.125 201.127 463.676 201.032 465.426 200.594L495.685 193.019ZM480.388 261.112C475.787 261.245 471.788 260.528 468.389 258.963C464.991 257.398 462.341 255.194 460.44 252.349C458.54 249.505 457.536 246.223 457.429 242.503C457.322 238.783 458.136 235.448 459.87 232.499C461.604 229.551 464.123 227.198 467.426 225.44C470.73 223.683 474.681 222.738 479.282 222.606C483.882 222.473 487.882 223.19 491.28 224.755C494.679 226.32 497.328 228.525 499.229 231.369C501.13 234.213 502.133 237.495 502.24 241.215C502.347 244.935 501.533 248.27 499.799 251.219C498.065 254.167 495.546 256.52 492.243 258.278C488.94 260.035 484.988 260.98 480.388 261.112ZM480.241 256.001C484.018 255.892 487.187 255.169 489.749 253.831C492.312 252.507 494.23 250.753 495.503 248.571C496.776 246.403 497.375 243.998 497.299 241.357C497.223 238.716 496.487 236.343 495.091 234.237C493.695 232.146 491.68 230.506 489.045 229.317C486.411 228.142 483.205 227.609 479.428 227.717C475.652 227.826 472.482 228.542 469.92 229.866C467.357 231.204 465.44 232.958 464.166 235.126C462.893 237.308 462.294 239.72 462.37 242.361C462.446 245.002 463.182 247.368 464.578 249.459C465.974 251.565 467.989 253.205 470.624 254.38C473.258 255.569 476.464 256.109 480.241 256.001ZM485.141 306.27C487.308 306.448 489.157 305.764 490.687 304.219C492.217 302.674 493.245 300.607 493.769 298.017C494.152 296.124 494.182 294.405 493.857 292.861C493.529 291.331 492.909 290.06 491.998 289.05C491.084 288.053 489.945 287.416 488.58 287.14C487.439 286.909 486.402 286.982 485.471 287.358C484.551 287.752 483.732 288.325 483.014 289.078C482.31 289.834 481.688 290.65 481.149 291.526C480.623 292.405 480.175 293.221 479.806 293.972L477.756 298.079C477.238 299.133 476.584 300.29 475.792 301.55C474.998 302.824 474.029 303.998 472.884 305.07C471.75 306.159 470.411 306.975 468.866 307.518C467.322 308.06 465.547 308.128 463.542 307.722C461.231 307.254 459.266 306.225 457.646 304.636C456.022 303.061 454.895 301.007 454.263 298.473C453.629 295.953 453.644 293.05 454.309 289.765C454.93 286.702 455.961 284.15 457.403 282.109C458.843 280.081 460.576 278.606 462.604 277.684C464.629 276.775 466.827 276.474 469.2 276.78L468.117 282.126C466.474 281.939 465.028 282.211 463.778 282.943C462.539 283.692 461.514 284.746 460.703 286.103C459.903 287.477 459.331 289.014 458.987 290.712C458.587 292.689 458.547 294.529 458.869 296.232C459.205 297.938 459.858 299.367 460.827 300.52C461.81 301.675 463.082 302.411 464.641 302.727C466.061 303.015 467.297 302.852 468.349 302.239C469.4 301.626 470.336 300.728 471.155 299.546C471.974 298.364 472.744 297.064 473.467 295.645L476.036 290.687C477.673 287.54 479.58 285.173 481.757 283.584C483.934 281.996 486.463 281.494 489.345 282.078C491.739 282.562 493.697 283.633 495.216 285.288C496.747 286.961 497.784 288.997 498.327 291.397C498.881 293.813 498.882 296.386 498.329 299.115C497.771 301.871 496.781 304.221 495.358 306.165C493.949 308.112 492.269 309.54 490.317 310.449C488.362 311.371 486.298 311.649 484.126 311.282L485.141 306.27ZM447.203 320.965L449.458 315.905L482.796 348.299L480.576 353.281L434.196 350.159L436.451 345.099L475.311 348.137L475.45 347.825L447.203 320.965ZM461.941 329.77L452.853 350.167L448.572 348.259L457.659 327.863L461.941 329.77ZM461.776 389.789L425.358 365.751L428.268 361.341L464.687 385.379L461.776 389.789ZM399.228 397.443L403.412 393.812L419.91 437.271L415.79 440.846L375.089 418.39L379.273 414.759L413.197 433.956L413.454 433.733L399.228 397.443ZM408.854 411.657L391.99 426.292L388.917 422.752L405.782 408.117L408.854 411.657ZM364.844 425.77L385.654 464.125L372.694 471.156C369.698 472.782 366.961 473.605 364.482 473.624C362.011 473.656 359.832 473.036 357.947 471.764C356.061 470.493 354.505 468.727 353.279 466.467C352.052 464.207 351.427 461.953 351.403 459.704C351.378 457.455 352.05 455.312 353.418 453.277C354.793 451.254 356.967 449.437 359.938 447.824L370.426 442.134L372.702 446.329L362.364 451.938C360.317 453.049 358.831 454.243 357.908 455.52C356.972 456.803 356.521 458.147 356.555 459.55C356.584 460.973 357.015 462.452 357.848 463.988C358.681 465.524 359.697 466.71 360.894 467.547C362.092 468.384 363.49 468.773 365.09 468.713C366.697 468.665 368.536 468.079 370.609 466.955L378.774 462.524L360.199 428.29L364.844 425.77ZM356.139 452.795L337.351 440.687L342.745 437.76L361.382 449.95L356.139 452.795ZM325.492 445.88L337.935 487.705L312.693 495.214L311.356 490.721L331.533 484.719L327.329 470.586L308.459 476.2L307.122 471.707L325.993 466.094L321.764 451.88L301.26 457.979L299.923 453.486L325.492 445.88ZM283.453 456.831L288.976 456.406L276.351 501.144L270.913 501.563L251.587 459.285L257.11 458.86L272.932 494.483L273.272 494.457L283.453 456.831ZM282.722 473.984L260.458 475.698L260.098 471.024L282.362 469.31L282.722 473.984ZM217.503 500.785L212.251 500.199L215.709 469.198C216.018 466.431 216.788 464.137 218.02 462.317C219.252 460.496 220.849 459.188 222.81 458.391C224.771 457.595 227.008 457.338 229.521 457.618C231.893 457.882 233.955 458.548 235.708 459.616C237.46 460.697 238.776 462.102 239.655 463.829C240.534 465.557 240.85 467.529 240.603 469.745L235.436 469.169C235.573 467.94 235.389 466.834 234.885 465.848C234.364 464.876 233.596 464.075 232.58 463.447C231.563 462.82 230.371 462.429 229.001 462.276C227.491 462.108 226.171 462.282 225.041 462.8C223.912 463.317 223.003 464.159 222.315 465.325C221.612 466.505 221.16 467.991 220.961 469.784L217.503 500.785Z" fill="white"/>
</svg>
