<svg width="503" height="504" viewBox="0 0 503 504" fill="none" xmlns="http://www.w3.org/2000/svg">
<path d="M174.187 486.421L172.42 490.763L142.105 478.431L143.872 474.089L156.582 479.26L171.258 443.182L176.153 445.173L161.477 481.251L174.187 486.421ZM149.243 432.659L153.837 435.755L116.164 462.987L111.64 459.938L122.74 414.798L127.334 417.894L117.619 455.643L117.901 455.833L149.243 432.659ZM138.021 445.651L119.504 433.172L122.124 429.285L140.641 441.764L138.021 445.651ZM80.4236 435.633L76.2416 430.912L93.522 395.794L93.1829 395.411L56.2361 408.328L52.0542 403.608L84.718 374.673L87.9958 378.373L63.1789 400.357L63.4615 400.676L97.3204 388.9L100.485 392.472L84.7102 424.663L84.9928 424.982L109.81 402.999L113.087 406.699L80.4236 435.633ZM74.1392 360.054L76.6548 364.99L30.501 370.53L28.0241 365.67L59.6261 331.579L62.1417 336.515L35.3358 364.813L35.4906 365.117L74.1392 360.054ZM58.0237 365.972L47.8839 346.078L52.0602 343.949L62.2 363.844L58.0237 365.972ZM48.4471 296.154L49.2027 301.642L3.78868 291.72L3.04469 286.317L44.0878 264.492L44.8434 269.98L10.2323 287.908L10.2788 288.246L48.4471 296.154ZM31.2819 296.452L28.2362 274.331L32.8799 273.692L35.9256 295.813L31.2819 296.452ZM43.4975 251.877L2.4244e-05 248.398L1.17556 233.701C1.44736 230.303 2.25099 227.56 3.58646 225.472C4.90777 223.383 6.61564 221.895 8.71008 221.008C10.8045 220.121 13.1331 219.78 15.696 219.985C18.2588 220.19 20.4895 220.896 22.388 222.102C24.2865 223.309 25.7155 225.04 26.6749 227.297C27.6203 229.553 27.9582 232.366 27.6886 235.736L26.7373 247.63L21.9798 247.249L22.9175 235.525C23.1032 233.203 22.9129 231.307 22.3465 229.837C21.7812 228.352 20.9011 227.242 19.706 226.505C18.4979 225.753 17.0231 225.307 15.2815 225.168C13.5399 225.028 11.9917 225.232 10.637 225.779C9.2822 226.327 8.19365 227.287 7.3713 228.66C6.53479 230.033 6.02254 231.894 5.83455 234.245L5.09389 243.505L43.9188 246.61L43.4975 251.877ZM25.5952 229.84L45.9912 220.699L45.502 226.815L25.1196 235.787L25.5952 229.84ZM48.1021 207.921L6.24674 195.582L13.6939 170.321L18.19 171.647L12.2372 191.839L26.3797 196.008L31.9469 177.124L36.4431 178.45L30.8759 197.334L45.1001 201.527L51.1494 181.008L55.6456 182.334L48.1021 207.921ZM61.8141 166.701L59.1593 171.563L28.5386 136.588L31.1525 131.801L77.1303 138.649L74.4755 143.512L35.9863 137.353L35.8229 137.652L61.8141 166.701ZM47.8337 156.737L58.5346 137.138L62.6488 139.385L51.9479 158.983L47.8337 156.737ZM70.1943 83.8469L66.9778 80.437L90.7848 57.9803L94.0012 61.3902L84.0197 70.8056L110.745 99.1384L106.902 102.764L80.1758 74.4314L70.1943 83.8469ZM129.458 83.4732L124.737 86.3714L115.563 40.8006L120.211 37.947L156.695 66.7527L151.974 69.6509L121.644 45.1679L121.353 45.3463L129.458 83.4732ZM122.283 67.8764L141.313 56.1943L143.766 60.1892L124.736 71.8712L122.283 67.8764ZM155.35 19.5917L161.383 17.7534L186.126 48.0798L186.616 47.9308L190.244 8.95956L196.277 7.12129L208.995 48.8629L204.267 50.3037L194.604 18.5899L194.196 18.7141L190.815 54.4026L186.249 55.7937L163.542 28.0544L163.134 28.1787L172.798 59.8925L168.069 61.3333L155.35 19.5917ZM226.688 45.3355L221.152 45.5628L235.371 1.30578L240.821 1.082L258.621 44.0243L253.086 44.2516L238.55 8.0845L238.209 8.09848L226.688 45.3355ZM228.032 28.2205L250.343 27.3044L250.535 31.9879L228.224 32.904L228.032 28.2205ZM295.498 48.5541L290.191 46.9673L318.041 9.74871L323.267 11.3111L326.12 57.7085L320.812 56.1217L318.84 17.1929L318.513 17.0952L295.498 48.5541ZM302.341 32.8087L323.735 39.2046L322.392 43.6957L300.998 37.2998L302.341 32.8087ZM337.834 62.4112L359.134 24.3264L372.002 31.5234C374.978 33.1875 377.136 35.0617 378.476 37.146C379.824 39.218 380.464 41.3907 380.397 43.6642C380.33 45.9377 379.669 48.1964 378.414 50.4404C377.159 52.6843 375.587 54.4175 373.699 55.6401C371.811 56.8626 369.641 57.4394 367.19 57.3703C364.745 57.2889 362.048 56.4231 359.097 54.7729L348.683 48.9488L351.013 44.7832L361.278 50.5242C363.311 51.6613 365.114 52.279 366.687 52.3773C368.272 52.4825 369.648 52.1456 370.816 51.3666C372.004 50.5822 373.024 49.4276 373.876 47.9027C374.729 46.3778 375.189 44.8856 375.257 43.4261C375.325 41.9666 374.906 40.5768 374 39.2566C373.102 37.9241 371.624 36.6823 369.566 35.5313L361.458 30.9968L342.446 64.9905L337.834 62.4112ZM365.329 55.3287L365.133 77.6788L359.777 74.6835L360.122 52.4166L365.329 55.3287ZM375.867 84.9214L404.513 52.0041L424.379 69.2924L421.301 72.8284L405.421 59.009L395.742 70.1314L410.594 83.0556L407.516 86.5917L392.665 73.6674L382.93 84.8542L399.067 98.8974L395.99 102.433L375.867 84.9214ZM407.65 114.543L404.325 110.112L448.844 96.7355L452.118 101.098L426.834 140.106L423.509 135.675L445.061 103.197L444.857 102.924L407.65 114.543ZM422.511 105.948L435.914 123.808L432.165 126.621L418.762 108.762L422.511 105.948ZM479.596 156.58L484.035 155.074L494.55 186.066L490.111 187.572L485.703 174.578L448.819 187.092L447.121 182.088L484.005 169.574L479.596 156.58ZM455.268 210.625L454.604 205.125L499.846 215.805L500.499 221.221L459.096 242.355L458.432 236.855L493.339 219.509L493.298 219.171L455.268 210.625ZM472.435 210.614L475.11 232.782L470.456 233.344L467.782 211.175L472.435 210.614ZM502.547 260.691L501.718 266.944L463.861 276.882L463.794 277.389L497.752 296.852L496.922 303.104L453.665 297.368L454.315 292.467L487.18 296.826L487.236 296.403L456.163 278.527L456.791 273.795L491.449 264.636L491.505 264.214L458.64 259.855L459.29 254.955L502.547 260.691ZM449.534 314.932L451.625 309.802L485.983 341.113L483.924 346.163L437.468 344.527L439.559 339.397L478.497 341.19L478.626 340.874L449.534 314.932ZM464.546 323.261L456.116 343.938L451.775 342.168L460.205 321.491L464.546 323.261ZM417.963 376.147L421.616 371.982L443.86 412.799L440.264 416.9L396.891 400.177L400.544 396.012L436.759 410.426L436.984 410.17L417.963 376.147ZM429.431 388.923L414.708 405.712L411.184 402.622L425.906 385.833L429.431 388.923ZM387.743 408.881L413.577 444.048L401.695 452.777C398.947 454.795 396.347 455.983 393.895 456.339C391.451 456.707 389.208 456.389 387.167 455.386C385.126 454.383 383.344 452.845 381.822 450.773C380.3 448.701 379.373 446.553 379.043 444.328C378.713 442.103 379.087 439.889 380.166 437.686C381.253 435.495 383.159 433.399 385.883 431.398L395.499 424.334L398.325 428.18L388.846 435.143C386.969 436.522 385.66 437.907 384.919 439.298C384.166 440.696 383.902 442.089 384.127 443.475C384.349 444.88 384.977 446.287 386.011 447.695C387.046 449.103 388.213 450.14 389.513 450.807C390.814 451.473 392.252 451.668 393.829 451.391C395.414 451.125 397.157 450.295 399.057 448.899L406.544 443.399L383.485 412.009L387.743 408.881ZM382.795 436.839L362.535 427.399L367.481 423.766L387.603 433.307L382.795 436.839ZM351.494 434.165L369.564 473.884L345.594 484.79L343.652 480.523L362.814 471.806L356.708 458.385L338.788 466.538L336.847 462.271L354.767 454.118L348.625 440.62L329.154 449.479L327.213 445.212L351.494 434.165ZM311.354 450.78L316.768 449.607L310.35 495.647L305.019 496.802L280.118 457.549L285.532 456.376L306.056 489.514L306.389 489.442L311.354 450.78ZM312.964 467.872L291.141 472.601L290.149 468.02L311.972 463.291L312.964 467.872ZM243.789 498.737L243.385 503.407L210.78 500.588L211.184 495.918L224.854 497.1L228.21 458.296L233.474 458.751L230.119 497.555L243.789 498.737Z" fill="white"/>
</svg>
