<svg width="503" height="503" viewBox="0 0 503 503" fill="none" xmlns="http://www.w3.org/2000/svg">
<path d="M150.158 480.804L145.301 478.721L157.598 450.054C158.695 447.495 160.097 445.523 161.804 444.138C163.511 442.753 165.419 441.963 167.526 441.77C169.634 441.577 171.85 441.978 174.174 442.975C176.367 443.916 178.148 445.151 179.516 446.681C180.879 448.224 181.731 449.949 182.072 451.857C182.412 453.766 182.143 455.744 181.264 457.794L176.486 455.745C176.973 454.609 177.118 453.496 176.921 452.407C176.705 451.325 176.202 450.337 175.411 449.441C174.62 448.546 173.592 447.826 172.326 447.283C170.929 446.684 169.615 446.468 168.384 446.636C167.153 446.803 166.039 447.346 165.043 448.263C164.028 449.188 163.165 450.479 162.454 452.137L150.158 480.804ZM105.238 427.359C107.922 423.62 110.916 420.873 114.221 419.119C117.526 417.365 120.886 416.594 124.3 416.807C127.714 417.019 130.933 418.211 133.957 420.381C136.98 422.551 139.139 425.219 140.432 428.386C141.726 431.553 142.071 434.982 141.466 438.675C140.862 442.367 139.218 446.083 136.534 449.822C133.851 453.561 130.856 456.307 127.551 458.061C124.247 459.816 120.887 460.587 117.473 460.374C114.058 460.161 110.839 458.97 107.816 456.8C104.793 454.63 102.634 451.961 101.34 448.795C100.046 445.628 99.7016 442.198 100.306 438.506C100.911 434.813 102.555 431.098 105.238 427.359ZM109.393 430.341C107.19 433.41 105.844 436.369 105.355 439.218C104.855 442.059 105.086 444.647 106.05 446.983C107.003 449.31 108.552 451.244 110.698 452.784C112.845 454.325 115.179 455.178 117.7 455.344C120.209 455.502 122.735 454.893 125.278 453.519C127.809 452.136 130.177 449.91 132.38 446.84C134.583 443.77 135.935 440.815 136.435 437.975C136.924 435.126 136.692 432.538 135.74 430.211C134.776 427.875 133.221 425.937 131.074 424.396C128.928 422.856 126.6 422.007 124.09 421.849C121.569 421.683 119.043 422.292 116.512 423.674C113.969 425.049 111.596 427.271 109.393 430.341ZM51.1914 401.89L84.4842 373.681L87.7899 377.582L77.0213 417.873L77.2968 418.198L103.437 396.05L106.853 400.081L73.5599 428.29L70.2542 424.388L81.0328 383.978L80.7573 383.653L54.5522 405.856L51.1914 401.89ZM74.0727 358.856L76.5765 363.798L30.4095 369.227L27.9443 364.361L59.6279 330.346L62.1316 335.288L35.258 363.522L35.412 363.826L74.0727 358.856ZM57.943 364.735L47.8509 344.817L52.0323 342.698L62.1245 362.617L57.943 364.735ZM4.60854 295.003L47.0652 284.925L48.2462 289.9L20.4028 320.949L20.5012 321.363L53.8363 313.45L55.0567 318.592L12.6001 328.67L11.4191 323.694L39.3257 292.543L39.2273 292.129L5.80924 300.061L4.60854 295.003ZM43.9803 244.21L43.3757 249.717L1.74877 229.027L2.3441 223.605L47.4686 212.441L46.8639 217.947L8.92721 226.9L8.89 227.239L43.9803 244.21ZM27.2599 240.316L29.6971 218.12L34.3565 218.632L31.9194 240.828L27.2599 240.316ZM49.9809 200.066L8.67278 186.003L13.4245 172.046C14.5232 168.819 15.9763 166.357 17.784 164.662C19.5781 162.962 21.5993 161.939 23.8475 161.594C26.0957 161.249 28.4367 161.491 30.8705 162.32C33.3044 163.148 35.2932 164.381 36.837 166.016C38.3807 167.652 39.3403 169.682 39.7156 172.106C40.0775 174.525 39.7137 177.334 38.6242 180.535L34.7788 191.83L30.2607 190.292L34.0511 179.158C34.8019 176.953 35.0835 175.068 34.8958 173.503C34.7127 171.926 34.1325 170.633 33.1552 169.625C32.169 168.599 30.849 167.804 29.195 167.241C27.5411 166.678 25.9903 166.495 24.5426 166.693C23.095 166.89 21.8038 167.553 20.6691 168.683C19.5209 169.807 18.5669 171.486 17.807 173.718L14.8131 182.512L51.6839 195.064L49.9809 200.066ZM38.044 174.305L60.0613 170.457L58.0836 176.266L36.1214 179.953L38.044 174.305ZM65.2496 158.596L27.7264 136.322L41.1692 113.676L45.2001 116.069L34.4545 134.171L47.1332 141.697L57.1827 124.767L61.2135 127.16L51.164 144.09L63.916 151.659L74.8356 133.264L78.8665 135.657L65.2496 158.596ZM88.6889 122.016L84.9251 126.081L63.7927 84.6768L67.4986 80.6745L110.403 98.5648L106.639 102.63L70.8269 87.2408L70.5953 87.491L88.6889 122.016ZM77.5714 108.934L92.7424 92.5496L96.1819 95.7344L81.0109 112.119L77.5714 108.934ZM131.38 30.3328L135.989 27.7489L151.243 54.9583C152.604 57.3869 153.315 59.6999 153.374 61.8975C153.434 64.0951 152.898 66.0887 151.768 67.8784C150.638 69.668 148.971 71.181 146.765 72.4174C144.684 73.5843 142.619 74.2448 140.572 74.399C138.519 74.5407 136.631 74.1657 134.91 73.2742C133.189 72.3826 131.783 70.9642 130.693 69.0189L135.228 66.4767C135.832 67.5546 136.626 68.347 137.61 68.8537C138.6 69.341 139.691 69.5438 140.883 69.462C142.074 69.3801 143.271 69.0023 144.473 68.3286C145.799 67.5854 146.77 66.6745 147.387 65.596C148.003 64.5175 148.251 63.3038 148.13 61.9549C148.015 60.5867 147.516 59.1158 146.634 57.5422L131.38 30.3328ZM201.14 27.2575C202.47 31.6634 202.824 35.7111 202.202 39.4006C201.58 43.0901 200.144 46.2239 197.895 48.8019C195.647 51.3799 192.741 53.2067 189.178 54.2822C185.615 55.3577 182.184 55.4438 178.885 54.5406C175.585 53.6374 172.656 51.8214 170.096 49.0924C167.536 46.3635 165.591 42.796 164.261 38.3901C162.931 33.9842 162.577 29.9365 163.199 26.247C163.822 22.5575 165.257 19.4237 167.506 16.8457C169.754 14.2677 172.66 12.4409 176.223 11.3654C179.786 10.2899 183.217 10.2037 186.516 11.1069C189.816 12.0101 192.746 13.8262 195.305 16.5552C197.865 19.2841 199.81 22.8516 201.14 27.2575ZM196.245 28.7352C195.153 25.1181 193.626 22.2479 191.665 20.1247C189.717 17.9974 187.523 16.6046 185.084 15.9462C182.658 15.2836 180.181 15.3341 177.652 16.0977C175.122 16.8612 173.024 18.192 171.356 20.0901C169.702 21.9841 168.646 24.358 168.187 27.2119C167.741 30.0617 168.065 33.2951 169.157 36.9123C170.248 40.5295 171.768 43.4018 173.716 45.529C175.678 47.6522 177.871 49.0451 180.297 49.7076C182.736 50.366 185.22 50.3134 187.75 49.5499C190.279 48.7864 192.371 47.4576 194.025 45.5636C195.692 43.6655 196.749 41.2916 197.194 38.4418C197.653 35.588 197.337 32.3524 196.245 28.7352ZM254.329 -0.026635L256.35 43.5629L251.241 43.7997L225.902 10.6759L225.477 10.6957L227.063 44.9203L221.784 45.1649L219.764 1.57537L224.872 1.33862L250.301 34.5436L250.726 34.5238L249.136 0.21406L254.329 -0.026635ZM274.45 44.3559L269.006 43.3302L292.831 3.41485L298.191 4.42473L305.858 50.2732L300.414 49.2475L294.401 10.7354L294.066 10.6723L274.45 44.3559ZM279.616 27.9839L301.56 32.1181L300.692 36.7245L278.748 32.5903L279.616 27.9839ZM367.405 28.1781L349.529 67.9851L344.864 65.8903L337.208 24.8948L336.819 24.7203L322.784 55.975L317.963 53.8104L335.839 14.0034L340.504 16.0982L348.203 57.2063L348.592 57.3809L362.662 26.0484L367.405 28.1781ZM383.671 90.3791L379.678 86.5394L421.472 66.1907L425.404 69.9713L406.709 112.531L402.716 108.691L418.776 73.1753L418.531 72.939L383.671 90.3791ZM396.96 79.51L413.056 94.9869L409.807 98.3658L393.711 82.8888L396.96 79.51ZM414.985 122.069L451.299 97.8736L459.474 110.144C461.364 112.981 462.431 115.633 462.675 118.099C462.93 120.557 462.51 122.783 461.414 124.776C460.319 126.769 458.701 128.479 456.561 129.904C454.422 131.33 452.233 132.157 449.995 132.384C447.757 132.612 445.563 132.137 443.412 130.958C441.274 129.772 439.267 127.772 437.392 124.959L430.777 115.029L434.748 112.383L441.27 122.171C442.561 124.109 443.885 125.481 445.24 126.285C446.603 127.1 447.981 127.428 449.376 127.267C450.791 127.11 452.225 126.547 453.679 125.578C455.133 124.609 456.222 123.49 456.948 122.222C457.673 120.954 457.933 119.526 457.729 117.938C457.536 116.342 456.786 114.563 455.479 112.601L450.328 104.87L417.914 126.466L414.985 122.069ZM442.686 128.293L432.328 148.099L428.925 142.992L439.378 123.328L442.686 128.293ZM438.578 159.439L479.091 143.225L488.876 167.675L484.524 169.417L476.702 149.873L463.013 155.351L470.328 173.629L465.976 175.371L458.661 157.093L444.893 162.603L452.842 182.464L448.49 184.205L438.578 159.439ZM453.317 200.305L452.396 194.842L498.089 203.387L498.996 208.766L458.631 231.82L457.71 226.357L491.764 207.392L491.707 207.056L453.317 200.305ZM470.466 199.488L474.178 221.507L469.556 222.286L465.844 200.267L470.466 199.488ZM499.92 290.049L499.158 295.278L468.291 290.778C465.536 290.376 463.269 289.529 461.491 288.236C459.713 286.944 458.459 285.304 457.73 283.317C457 281.33 456.818 279.086 457.183 276.584C457.527 274.222 458.262 272.184 459.388 270.467C460.528 268.753 461.976 267.485 463.732 266.665C465.488 265.844 467.469 265.595 469.676 265.917L468.926 271.061C467.703 270.883 466.591 271.029 465.589 271.5C464.599 271.988 463.774 272.729 463.112 273.723C462.45 274.718 462.02 275.897 461.821 277.26C461.602 278.764 461.732 280.089 462.21 281.236C462.689 282.382 463.5 283.318 464.643 284.045C465.798 284.787 467.268 285.289 469.053 285.549L499.92 290.049ZM459.842 347.216C455.538 345.586 452.113 343.399 449.567 340.658C447.021 337.916 445.411 334.868 444.738 331.514C444.064 328.16 444.386 324.743 445.705 321.263C447.023 317.783 449.046 315.01 451.773 312.944C454.5 310.878 457.725 309.662 461.449 309.296C465.172 308.929 469.186 309.561 473.49 311.192C477.794 312.822 481.219 315.009 483.765 317.75C486.311 320.492 487.92 323.54 488.594 326.894C489.268 330.248 488.945 333.665 487.627 337.145C486.308 340.625 484.286 343.398 481.559 345.464C478.832 347.529 475.607 348.746 471.883 349.112C468.159 349.479 464.146 348.847 459.842 347.216ZM461.654 342.434C465.187 343.773 468.393 344.311 471.272 344.05C474.145 343.802 476.586 342.912 478.595 341.379C480.598 339.86 482.068 337.865 483.004 335.394C483.94 332.923 484.164 330.448 483.675 327.97C483.181 325.504 481.943 323.22 479.96 321.117C477.972 319.027 475.212 317.313 471.678 315.974C468.145 314.635 464.941 314.09 462.068 314.338C459.189 314.599 456.748 315.49 454.744 317.009C452.736 318.542 451.264 320.543 450.328 323.014C449.392 325.485 449.17 327.953 449.664 330.418C450.153 332.897 451.391 335.182 453.379 337.271C455.362 339.375 458.12 341.095 461.654 342.434ZM449.037 406.019L413.256 381.043L416.183 376.85L457.887 376.962L458.131 376.613L430.037 357.002L433.061 352.669L468.843 377.646L465.916 381.839L424.093 381.748L423.849 382.097L452.013 401.756L449.037 406.019ZM401.589 394.902L405.723 391.215L422.808 434.446L418.737 438.077L377.735 416.173L381.87 412.486L416.05 431.223L416.305 430.996L401.589 394.902ZM411.407 408.985L394.741 423.846L391.622 420.348L408.287 405.486L411.407 408.985ZM357.775 478.442L337.083 440.024L341.585 437.599L378.767 456.487L379.142 456.285L362.895 426.121L367.548 423.615L388.24 462.034L383.738 464.458L346.441 445.535L346.066 445.737L362.353 475.977L357.775 478.442ZM298.527 453.454L304.006 452.636L294.608 498.161L289.213 498.967L266.918 458.178L272.397 457.359L290.722 491.761L291.059 491.711L298.527 453.454ZM299.023 470.615L276.939 473.915L276.246 469.279L298.33 465.979L299.023 470.615ZM254.309 458.991L251.976 502.565L237.253 501.777C233.849 501.594 231.086 500.863 228.964 499.583C226.841 498.317 225.308 496.649 224.366 494.579C223.425 492.509 223.022 490.19 223.16 487.622C223.297 485.055 223.944 482.807 225.1 480.877C226.256 478.947 227.949 477.473 230.18 476.455C232.41 475.45 235.213 475.039 238.589 475.219L250.504 475.857L250.249 480.623L238.504 479.994C236.178 479.87 234.288 480.11 232.833 480.715C231.364 481.319 230.277 482.228 229.571 483.442C228.851 484.67 228.445 486.156 228.351 487.9C228.258 489.645 228.503 491.187 229.085 492.527C229.668 493.867 230.656 494.93 232.051 495.716C233.445 496.516 235.319 496.979 237.674 497.105L246.95 497.602L249.032 458.708L254.309 458.991ZM232.751 477.467L223.075 457.319L229.203 457.647L238.708 477.786L232.751 477.467Z" fill="white"/>
</svg>
