<svg width="504" height="504" viewBox="0 0 504 504" fill="none" xmlns="http://www.w3.org/2000/svg">
<path d="M145.985 479.502L141.171 477.323L154.035 448.906C155.184 446.37 156.625 444.426 158.359 443.075C160.093 441.724 162.016 440.973 164.127 440.821C166.238 440.67 168.445 441.116 170.749 442.158C172.923 443.143 174.679 444.413 176.017 445.97C177.349 447.54 178.166 449.282 178.469 451.196C178.771 453.111 178.463 455.084 177.543 457.115L172.807 454.971C173.317 453.846 173.484 452.736 173.308 451.643C173.113 450.557 172.63 449.559 171.857 448.648C171.085 447.737 170.071 446.997 168.816 446.429C167.431 445.802 166.122 445.56 164.888 445.703C163.653 445.846 162.529 446.366 161.515 447.263C160.482 448.168 159.593 449.442 158.849 451.085L145.985 479.502ZM102.1 425.405C104.84 421.707 107.875 419.005 111.205 417.3C114.536 415.596 117.907 414.875 121.318 415.139C124.728 415.403 127.929 416.642 130.92 418.857C133.91 421.072 136.029 423.772 137.275 426.958C138.522 430.144 138.815 433.578 138.155 437.261C137.495 440.944 135.796 444.635 133.057 448.333C130.317 452.032 127.282 454.733 123.952 456.438C120.621 458.142 117.25 458.863 113.839 458.599C110.429 458.336 107.228 457.096 104.237 454.881C101.247 452.666 99.1283 449.966 97.8819 446.78C96.6355 443.594 96.3422 440.16 97.002 436.477C97.6617 432.794 99.3612 429.103 102.1 425.405ZM106.21 428.449C103.961 431.485 102.571 434.424 102.039 437.265C101.497 440.098 101.69 442.689 102.619 445.039C103.536 447.38 105.056 449.336 107.18 450.909C109.303 452.482 111.623 453.37 114.142 453.573C116.649 453.768 119.184 453.198 121.747 451.861C124.298 450.517 126.699 448.326 128.947 445.29C131.196 442.253 132.592 439.319 133.135 436.486C133.666 433.645 133.473 431.054 132.555 428.712C131.627 426.363 130.101 424.402 127.977 422.829C125.854 421.257 123.539 420.373 121.032 420.178C118.514 419.974 115.979 420.545 113.428 421.889C110.865 423.226 108.459 425.412 106.21 428.449ZM77.556 426.576L74.0085 429.64L52.6165 404.872L56.164 401.808L65.133 412.192L94.6095 386.733L98.0635 390.732L68.587 416.191L77.556 426.576ZM42.109 344.047C46.1775 341.896 50.0819 340.771 53.8222 340.673C57.5625 340.575 60.9137 341.382 63.8756 343.094C66.8375 344.806 69.1883 347.306 70.928 350.596C72.6678 353.886 73.4114 357.237 73.1587 360.648C72.906 364.06 71.6864 367.284 69.4999 370.32C67.3134 373.356 64.1859 375.95 60.1175 378.102C56.0491 380.253 52.1447 381.378 48.4043 381.476C44.664 381.574 41.3129 380.767 38.351 379.055C35.3891 377.344 33.0382 374.843 31.2985 371.553C29.5587 368.263 28.8152 364.912 29.0678 361.501C29.3205 358.089 30.5401 354.865 32.7266 351.829C34.9131 348.793 38.0406 346.199 42.109 344.047ZM44.4995 348.568C41.1594 350.334 38.6359 352.384 36.9289 354.717C35.2154 357.037 34.2698 359.457 34.0921 361.977C33.9078 364.485 34.4332 366.907 35.6683 369.242C36.9034 371.578 38.6124 373.381 40.7955 374.653C42.9719 375.913 45.5045 376.494 48.3934 376.396C51.2757 376.286 54.3869 375.348 57.727 373.581C61.0671 371.815 63.594 369.772 65.3075 367.452C67.0145 365.119 67.9601 362.699 68.1444 360.191C68.3221 357.671 67.7933 355.243 66.5582 352.907C65.3232 350.571 63.6174 348.774 61.441 347.515C59.258 346.243 56.7253 345.662 53.8431 345.772C50.9542 345.87 47.8397 346.802 44.4995 348.568ZM3.5017 288.844L2.66973 283.626L33.4739 278.715C36.2232 278.277 38.6393 278.409 40.7221 279.113C42.8048 279.816 44.4907 281.008 45.7796 282.686C47.0685 284.365 47.912 286.453 48.3101 288.95C48.6859 291.306 48.5924 293.472 48.0297 295.446C47.453 297.422 46.4489 299.064 45.0175 300.371C43.5862 301.678 41.7693 302.507 39.567 302.858L38.7485 297.724C39.9688 297.529 40.9868 297.058 41.8024 296.309C42.6018 295.549 43.169 294.595 43.504 293.449C43.839 292.302 43.898 291.049 43.6811 289.688C43.4418 288.187 42.9227 286.961 42.1237 286.009C41.3247 285.058 40.2714 284.406 38.9638 284.054C37.64 283.689 36.0873 283.649 34.3058 283.933L3.5017 288.844ZM24.3645 222.479C28.9607 222.715 32.8901 223.749 36.1525 225.581C39.415 227.413 41.8796 229.823 43.5465 232.81C45.2134 235.798 45.9512 239.15 45.76 242.866C45.5688 246.583 44.4908 249.842 42.5262 252.642C40.5615 255.443 37.8625 257.587 34.4293 259.074C30.9961 260.562 26.9814 261.187 22.3852 260.951C17.789 260.714 13.8596 259.68 10.5972 257.848C7.33475 256.016 4.87007 253.606 3.20318 250.619C1.53629 247.632 0.798461 244.28 0.989684 240.563C1.18091 236.846 2.25885 233.588 4.22352 230.787C6.1882 227.987 8.88715 225.843 12.3204 224.355C15.7536 222.868 19.7683 222.242 24.3645 222.479ZM24.1018 227.586C20.3284 227.392 17.1112 227.859 14.4502 228.988C11.79 230.103 9.73805 231.697 8.29438 233.77C6.85144 235.83 6.06209 238.178 5.92634 240.817C5.79058 243.456 6.33433 245.88 7.55759 248.091C8.78157 250.287 10.6591 252.084 13.1901 253.48C15.7219 254.862 18.8745 255.65 22.6479 255.844C26.4213 256.038 29.6382 255.578 32.2984 254.463C34.9593 253.334 37.0113 251.74 38.4542 249.68C39.8979 247.607 40.6876 245.251 40.8234 242.612C40.9591 239.974 40.415 237.556 39.191 235.36C37.9678 233.149 36.0902 231.353 33.5585 229.971C31.0274 228.575 27.8752 227.78 24.1018 227.586ZM4.96452 202.823L6.61156 197L29.5059 190.899L29.6451 190.407L13.3389 173.218L14.9859 167.395L35.3792 189.549L52.6832 194.444L51.245 199.529L33.9409 194.634L4.96452 202.823ZM59.7778 126.66C63.8031 128.891 66.8788 131.546 69.005 134.625C71.1313 137.704 72.2871 140.951 72.4725 144.367C72.6578 147.783 71.8484 151.118 70.0441 154.373C68.2399 157.628 65.8402 160.082 62.8451 161.735C59.8501 163.388 56.4837 164.129 52.746 163.957C49.0083 163.785 45.1269 162.584 41.1016 160.353C37.0764 158.121 34.0006 155.466 31.8744 152.388C29.7482 149.309 28.5924 146.061 28.407 142.646C28.2216 139.23 29.0311 135.894 30.8353 132.639C32.6396 129.384 35.0392 126.93 38.0343 125.277C41.0294 123.624 44.3957 122.884 48.1334 123.055C51.8711 123.227 55.7526 124.429 59.7778 126.66ZM57.2987 131.132C53.994 129.3 50.8985 128.307 48.0121 128.153C45.1325 127.986 42.5889 128.517 40.3812 129.745C38.1805 130.961 36.4396 132.725 35.1587 135.036C33.8778 137.347 33.3014 139.764 33.4293 142.287C33.5642 144.798 34.4619 147.236 36.1225 149.602C37.79 151.956 40.2761 154.048 43.5808 155.88C46.8854 157.712 49.9775 158.711 52.8571 158.878C55.7435 159.033 58.2871 158.502 60.4879 157.286C62.6955 156.057 64.4398 154.287 65.7207 151.977C67.0016 149.666 67.5746 147.255 67.4398 144.744C67.3118 142.221 66.4141 139.782 64.7466 137.429C63.086 135.063 60.6033 132.964 57.2987 131.132ZM87.004 125.048L54.7147 95.6963L58.269 91.7863L74.2876 106.348L74.6315 105.969L71.7984 76.9029L76.442 71.7947L78.6845 98.5964L108.731 101.147L104.432 105.876L79.2179 103.458L80.0895 111.622L90.5583 121.138L87.004 125.048ZM116.846 40.439L121.193 37.4345L137.62 61.2018C139.316 63.6556 140.252 66.2463 140.428 68.9739C140.608 71.6818 140.035 74.3136 138.711 76.8693C137.378 79.4134 135.304 81.6587 132.488 83.6051C129.672 85.5516 126.839 86.6985 123.988 87.0458C121.129 87.3814 118.459 86.9908 115.977 85.8741C113.5 84.7376 111.413 82.9424 109.717 80.4885L93.289 56.7213L97.6358 53.7168L113.821 77.1335C115.033 78.8863 116.496 80.1797 118.213 81.0138C119.921 81.8362 121.758 82.1462 123.725 81.9437C125.695 81.7215 127.679 80.9199 129.677 79.5388C131.676 78.1577 133.127 76.5848 134.031 74.8202C134.927 73.0439 135.286 71.2155 135.109 69.3351C134.935 67.4349 134.243 65.6084 133.031 63.8557L116.846 40.439ZM182.794 55.6555L177.442 57.0854L181.659 10.792L186.929 9.38411L213.671 47.4063L208.319 48.8362L186.24 16.7135L185.911 16.8015L182.794 55.6555ZM180.371 38.6597L201.944 32.8962L203.154 37.4249L181.581 43.1883L180.371 38.6597ZM226.114 45.265L224.235 1.66909L238.966 1.03419C242.372 0.887392 245.192 1.34874 247.428 2.41824C249.663 3.47354 251.349 4.98615 252.486 6.95607C253.623 8.92598 254.247 11.1953 254.358 13.7639C254.468 16.3325 254.041 18.6329 253.077 20.6649C252.112 22.697 250.569 24.3275 248.447 25.5564C246.324 26.7711 243.573 27.4512 240.196 27.5968L228.275 28.1106L228.07 23.3423L239.82 22.8358C242.147 22.7355 244.006 22.3142 245.396 21.5718C246.8 20.8288 247.794 19.8192 248.379 18.5428C248.977 17.2516 249.239 15.7333 249.164 13.9878C249.088 12.2422 248.696 10.7307 247.987 9.45324C247.278 8.17578 246.192 7.21315 244.728 6.56535C243.263 5.90337 241.353 5.62315 238.997 5.72468L229.716 6.1247L231.393 45.0374L226.114 45.265ZM245.791 24.7964L257.363 43.9181L251.233 44.1823L239.83 25.0533L245.791 24.7964ZM270.305 44.4377L277.346 1.37313L303.336 5.62246L302.58 10.2485L281.805 6.85182L279.425 21.4029L298.855 24.5796L298.099 29.2057L278.669 26.029L276.276 40.6642L297.388 44.116L296.632 48.742L270.305 44.4377ZM312.912 52.9204L307.758 50.89L338.659 16.1627L343.734 18.1619L342.648 64.6342L337.494 62.6038L338.825 23.6478L338.508 23.5228L312.912 52.9204ZM321.063 37.8108L341.838 45.9948L340.12 50.3562L319.345 42.1721L321.063 37.8108ZM413.849 59.4733L417.926 62.8345L398.084 86.9034C396.313 89.0516 394.414 90.5512 392.387 91.4022C390.36 92.2532 388.308 92.476 386.231 92.0705C384.153 91.6651 382.139 90.6582 380.188 89.0499C378.347 87.5319 376.984 85.8468 376.099 83.9946C375.224 82.1314 374.89 80.2362 375.098 78.3091C375.306 76.3819 376.119 74.558 377.538 72.8372L381.549 76.1442C380.763 77.0977 380.312 78.125 380.196 79.2259C380.1 80.325 380.306 81.4151 380.814 82.4964C381.321 83.5777 382.107 84.5565 383.17 85.433C384.343 86.3998 385.544 86.9754 386.772 87.1598C388.001 87.3443 389.222 87.1359 390.435 86.5347C391.669 85.9317 392.859 84.9341 394.007 83.5422L413.849 59.4733ZM442.105 123.092C438.499 125.952 434.866 127.772 431.207 128.553C427.548 129.334 424.105 129.154 420.88 128.013C417.655 126.872 414.886 124.844 412.574 121.928C410.262 119.012 408.917 115.854 408.542 112.453C408.166 109.053 408.775 105.661 410.369 102.275C411.963 98.8904 414.563 95.768 418.169 92.9084C421.775 90.0488 425.407 88.2286 429.067 87.4478C432.726 86.6671 436.168 86.8471 439.393 87.9878C442.618 89.1286 445.387 91.1569 447.699 94.0729C450.012 96.9889 451.356 100.147 451.732 103.547C452.108 106.947 451.499 110.34 449.905 113.725C448.311 117.11 445.711 120.233 442.105 123.092ZM438.927 119.086C441.888 116.738 443.994 114.261 445.245 111.655C446.505 109.061 446.992 106.508 446.705 103.998C446.428 101.499 445.468 99.2145 443.826 97.1444C442.185 95.0742 440.174 93.6137 437.796 92.7628C435.425 91.9229 432.829 91.8153 430.007 92.4399C427.194 93.0757 424.307 94.5674 421.346 96.9151C418.386 99.2628 416.275 101.734 415.015 104.329C413.764 106.934 413.277 109.487 413.555 111.986C413.841 114.496 414.806 116.786 416.447 118.856C418.089 120.926 420.095 122.381 422.465 123.221C424.844 124.072 427.44 124.18 430.253 123.544C433.076 122.919 435.967 121.433 438.927 119.086ZM466.126 128.378L470.35 126.345L484.54 155.836L480.317 157.868L474.367 145.504L439.27 162.392L436.979 157.631L472.076 140.742L466.126 128.378ZM478.745 217.357C474.254 218.364 470.191 218.423 466.557 217.534C462.922 216.646 459.901 214.987 457.493 212.557C455.085 210.127 453.474 207.096 452.66 203.465C451.846 199.833 452.009 196.405 453.149 193.18C454.29 189.954 456.314 187.164 459.221 184.809C462.129 182.454 465.828 180.774 470.319 179.767C474.81 178.76 478.872 178.701 482.507 179.59C486.142 180.478 489.163 182.137 491.571 184.567C493.979 186.997 495.59 190.028 496.404 193.659C497.218 197.291 497.055 200.719 495.914 203.944C494.774 207.17 492.75 209.96 489.842 212.315C486.935 214.67 483.236 216.35 478.745 217.357ZM477.626 212.367C481.313 211.541 484.287 210.226 486.547 208.424C488.81 206.636 490.358 204.549 491.192 202.164C492.029 199.793 492.158 197.319 491.58 194.741C491.003 192.162 489.828 189.973 488.056 188.172C486.287 186.385 483.996 185.159 481.183 184.494C478.373 183.843 475.124 183.93 471.437 184.757C467.75 185.583 464.775 186.891 462.512 188.679C460.252 190.481 458.704 192.568 457.867 194.939C457.033 197.324 456.905 199.805 457.483 202.383C458.061 204.962 459.235 207.144 461.004 208.931C462.776 210.732 465.067 211.958 467.876 212.609C470.689 213.274 473.939 213.194 477.626 212.367ZM501.612 280.589L501.066 285.845L470.04 282.621C467.271 282.334 464.971 281.581 463.141 280.362C461.311 279.144 459.991 277.557 459.18 275.602C458.369 273.647 458.094 271.412 458.356 268.897C458.602 266.524 459.253 264.456 460.307 262.695C461.375 260.935 462.769 259.609 464.49 258.717C466.211 257.825 468.18 257.494 470.399 257.724L469.861 262.895C468.632 262.767 467.527 262.96 466.545 263.472C465.577 263.999 464.782 264.774 464.162 265.795C463.542 266.816 463.16 268.011 463.018 269.382C462.861 270.894 463.045 272.212 463.571 273.338C464.097 274.464 464.946 275.366 466.118 276.045C467.302 276.739 468.792 277.179 470.586 277.366L501.612 280.589ZM463.925 339.36C459.558 337.908 456.046 335.865 453.389 333.23C450.732 330.596 448.998 327.617 448.186 324.294C447.375 320.97 447.556 317.543 448.73 314.011C449.904 310.48 451.811 307.626 454.45 305.45C457.089 303.273 460.262 301.925 463.967 301.406C467.673 300.886 471.709 301.352 476.076 302.803C480.444 304.255 483.956 306.298 486.613 308.933C489.27 311.567 491.004 314.546 491.815 317.869C492.626 321.193 492.445 324.62 491.271 328.152C490.097 331.683 488.191 334.537 485.551 336.714C482.912 338.89 479.74 340.238 476.034 340.758C472.329 341.277 468.293 340.811 463.925 339.36ZM465.538 334.507C469.124 335.699 472.349 336.105 475.215 335.725C478.076 335.359 480.478 334.369 482.422 332.754C484.361 331.154 485.747 329.1 486.58 326.593C487.414 324.085 487.535 321.604 486.945 319.147C486.35 316.704 485.018 314.473 482.95 312.453C480.878 310.447 478.049 308.848 474.463 307.656C470.878 306.464 467.654 306.051 464.793 306.418C461.928 306.797 459.526 307.788 457.587 309.388C455.643 311.003 454.254 313.063 453.421 315.571C452.588 318.078 452.468 320.553 453.063 322.996C453.654 325.452 454.985 327.684 457.058 329.69C459.126 331.71 461.953 333.315 465.538 334.507ZM437.398 345.918L474.21 369.348L471.373 373.806L454.98 363.372L442.487 383L458.88 393.434L456.043 397.892L419.23 374.462L422.068 370.004L438.533 380.484L451.026 360.855L434.561 350.376L437.398 345.918ZM397.744 428.706C394.574 425.37 392.436 421.915 391.332 418.34C390.227 414.765 390.098 411.32 390.946 408.006C391.794 404.692 393.567 401.753 396.265 399.189C398.962 396.625 401.987 395.004 405.34 394.326C408.693 393.648 412.127 393.951 415.641 395.236C419.155 396.521 422.497 398.832 425.668 402.168C428.838 405.504 430.976 408.959 432.081 412.534C433.185 416.109 433.314 419.553 432.466 422.867C431.618 426.181 429.845 429.12 427.148 431.684C424.45 434.248 421.425 435.869 418.072 436.547C414.719 437.226 411.285 436.922 407.771 435.637C404.257 434.352 400.915 432.042 397.744 428.706ZM401.451 425.183C404.054 427.922 406.709 429.798 409.416 430.811C412.113 431.834 414.699 432.091 417.173 431.581C419.638 431.081 421.827 429.921 423.742 428.101C425.657 426.281 426.932 424.148 427.567 421.703C428.192 419.267 428.067 416.672 427.193 413.917C426.308 411.171 424.564 408.429 421.961 405.69C419.358 402.952 416.708 401.071 414.011 400.048C411.304 399.034 408.719 398.778 406.254 399.278C403.78 399.787 401.585 400.952 399.67 402.772C397.755 404.593 396.485 406.72 395.86 409.156C395.225 411.602 395.35 414.197 396.235 416.942C397.109 419.697 398.848 422.444 401.451 425.183ZM371.287 422.079L393.293 459.76L388.73 462.425L377.813 443.732L377.371 443.99L371.361 472.568L365.4 476.05L371.295 449.808L343.394 438.369L348.914 435.145L372.243 445.011L373.859 436.961L366.724 424.744L371.287 422.079ZM317.349 493.812L312.298 495.365L303.807 467.749C302.93 464.897 302.819 462.145 303.475 459.492C304.121 456.856 305.461 454.519 307.494 452.482C309.532 450.459 312.187 448.944 315.459 447.938C318.732 446.932 321.779 446.693 324.602 447.222C327.429 447.765 329.856 448.943 331.885 450.756C333.905 452.587 335.353 454.929 336.229 457.78L344.72 485.396L339.67 486.949L331.304 459.74C330.678 457.703 329.672 456.029 328.288 454.716C326.907 453.416 325.249 452.566 323.313 452.166C321.367 451.783 319.234 451.949 316.912 452.663C314.59 453.377 312.732 454.438 311.338 455.848C309.948 457.271 309.053 458.906 308.655 460.752C308.247 462.616 308.357 464.566 308.983 466.603L317.349 493.812ZM259.055 459.481L264.592 459.641L247.319 502.797L241.867 502.64L227.108 458.56L232.645 458.72L244.621 495.813L244.962 495.823L259.055 459.481ZM256.519 476.46L234.199 475.817L234.334 471.131L256.654 471.775L256.519 476.46Z" fill="white"/>
</svg>
