<svg width="502" height="505" viewBox="0 0 502 505" fill="none" xmlns="http://www.w3.org/2000/svg">
<path d="M168.723 485.645L166.847 489.941L136.855 476.845L138.73 472.549L151.305 478.04L166.891 442.345L171.734 444.46L156.148 480.154L168.723 485.645ZM101.106 426.513C103.847 422.816 106.884 420.116 110.215 418.413C113.547 416.71 116.918 415.991 120.329 416.256C123.739 416.522 126.939 417.763 129.929 419.979C132.918 422.196 135.035 424.897 136.28 428.084C137.525 431.27 137.817 434.704 137.155 438.387C136.493 442.07 134.792 445.76 132.051 449.457C129.31 453.154 126.274 455.853 122.942 457.556C119.61 459.259 116.239 459.978 112.829 459.713C109.418 459.448 106.218 458.207 103.229 455.99C100.239 453.774 98.1219 451.072 96.8771 447.886C95.6323 444.699 95.3407 441.265 96.0023 437.582C96.6638 433.899 98.3652 430.21 101.106 426.513ZM105.214 429.558C102.964 432.593 101.572 435.532 101.039 438.373C100.495 441.205 100.687 443.796 101.615 446.147C102.531 448.488 104.05 450.446 106.173 452.019C108.295 453.593 110.615 454.482 113.133 454.687C115.64 454.884 118.176 454.314 120.739 452.979C123.292 451.635 125.693 449.446 127.943 446.411C130.194 443.376 131.591 440.442 132.135 437.609C132.668 434.768 132.476 432.177 131.56 429.835C130.632 427.485 129.107 425.524 126.985 423.95C124.862 422.376 122.548 421.491 120.041 421.295C117.523 421.09 114.987 421.659 112.435 423.003C109.871 424.338 107.464 426.523 105.214 429.558ZM62.6822 402.286C61.2009 403.877 60.5934 405.752 60.8594 407.911C61.1255 410.069 62.1129 412.156 63.8219 414.171C65.0714 415.644 66.4031 416.731 67.8169 417.432C69.2215 418.122 70.6027 418.422 71.9606 418.332C73.3092 418.231 74.5144 417.73 75.576 416.83C76.4643 416.076 77.0489 415.217 77.3297 414.253C77.5905 413.287 77.6473 412.289 77.5002 411.259C77.3422 410.238 77.0862 409.244 76.7323 408.278C76.3675 407.321 76.0045 406.465 75.6433 405.709L73.6867 401.558C73.1792 400.498 72.6757 399.267 72.1761 397.866C71.6673 396.453 71.3462 394.966 71.2126 393.403C71.059 391.838 71.2474 390.281 71.7778 388.733C72.3082 387.184 73.3533 385.748 74.9133 384.425C76.7116 382.9 78.7362 381.993 80.9872 381.704C83.2289 381.405 85.5403 381.791 87.9213 382.864C90.2931 383.925 92.5631 385.734 94.7314 388.291C96.7527 390.674 98.1184 393.064 98.8285 395.461C99.5294 397.846 99.6146 400.121 99.084 402.284C98.5443 404.437 97.4196 406.35 95.7099 408.024L92.1818 403.864C93.3466 402.69 94.0282 401.385 94.2268 399.95C94.4053 398.514 94.2126 397.057 93.6487 395.579C93.0648 394.1 92.2124 392.7 91.0915 391.378C89.7869 389.84 88.3663 388.67 86.8297 387.868C85.2824 387.076 83.7559 386.704 82.2504 386.751C80.734 386.808 79.3692 387.351 78.1559 388.38C77.0509 389.317 76.4136 390.389 76.244 391.594C76.0744 392.8 76.2001 394.09 76.6213 395.465C77.0424 396.84 77.5866 398.25 78.2539 399.696L80.5569 404.783C82.0145 408.017 82.6931 410.98 82.5928 413.673C82.4924 416.365 81.321 418.663 79.0786 420.564C77.2153 422.145 75.1631 423.019 72.922 423.188C70.6609 423.355 68.42 422.908 66.1991 421.849C63.9583 420.788 61.9375 419.196 60.1367 417.073C58.3175 414.928 57.0851 412.695 56.4393 410.374C55.7827 408.063 55.7018 405.859 56.1965 403.763C56.6821 401.657 57.7414 399.864 59.3746 398.386L62.6822 402.286ZM75.4935 364.959L36.7239 384.985L34.2989 380.29L51.5635 371.372L40.8854 350.7L23.6208 359.618L21.1958 354.923L59.9654 334.897L62.3904 339.592L45.0501 348.549L55.7282 369.221L73.0685 360.264L75.4935 364.959ZM10.0359 327.89L51.689 314.884L53.2639 319.928L11.6109 332.934L10.0359 327.89ZM-5.31562e-05 270.037L43.2875 264.53L43.9328 269.603L12.946 297.515L12.9998 297.938L46.9872 293.614L47.6541 298.856L4.36655 304.363L3.72124 299.29L34.7818 271.283L34.728 270.86L0.656013 275.194L-5.31562e-05 270.037ZM44.5123 223.712L43.3276 229.124L4.12747 204.14L5.294 198.811L51.3475 192.492L50.1627 197.903L11.4909 202.785L11.418 203.118L44.5123 223.712ZM28.2987 218.069L33.0742 196.256L37.6532 197.258L32.8777 219.071L28.2987 218.069ZM55.1606 180.456L15.5901 162.063L21.8049 148.693C23.2419 145.601 24.9495 143.309 26.9278 141.816C28.8932 140.318 31.012 139.517 33.2842 139.414C35.5564 139.311 37.8582 139.801 40.1896 140.885C42.5211 141.968 44.367 143.406 45.7273 145.197C47.0875 146.989 47.8249 149.11 47.9393 151.559C48.0409 154.003 47.3791 156.758 45.9541 159.824L40.9248 170.644L36.5968 168.632L41.5543 157.966C42.5362 155.854 43.0174 154.01 42.9978 152.434C42.9843 150.846 42.5454 149.499 41.6813 148.392C40.8103 147.267 39.5826 146.336 37.9983 145.599C36.4139 144.863 34.8915 144.515 33.431 144.557C31.9705 144.599 30.6159 145.12 29.3672 146.122C28.1055 147.118 26.9777 148.685 25.9838 150.823L22.0681 159.247L57.3879 175.664L55.1606 180.456ZM46.0425 153.568L68.3447 152.092L65.7582 157.657L43.5278 158.978L46.0425 153.568ZM74.7674 140.849L39.817 114.722L55.5848 93.6289L59.3393 96.4355L46.7352 113.296L58.5446 122.124L70.3322 106.356L74.0867 109.162L62.2991 124.931L74.1767 133.81L86.9849 116.676L90.7394 119.482L74.7674 140.849ZM101.952 106.957L97.7797 110.601L81.147 67.1936L85.2556 63.6059L126.026 85.9357L121.853 89.5795L87.8704 70.4876L87.6136 70.7118L101.952 106.957ZM92.2816 92.7727L109.101 78.0855L112.184 81.6163L95.3648 96.3035L92.2816 92.7727ZM138.797 31.9786L136.998 27.6502L167.218 15.0881L169.018 19.4165L156.347 24.6835L171.297 60.6488L166.418 62.6771L151.468 26.7117L138.797 31.9786ZM228.311 24.2025C229.075 28.7409 228.915 32.801 227.832 36.3825C226.749 39.964 224.93 42.8917 222.374 45.1654C219.818 47.4391 216.705 48.8847 213.035 49.5021C209.365 50.1196 205.951 49.7722 202.791 48.4599C199.632 47.1477 196.955 44.9765 194.76 41.9464C192.565 38.9163 191.086 35.132 190.322 30.5935C189.559 26.055 189.718 21.995 190.801 18.4135C191.884 14.8319 193.703 11.9043 196.259 9.63058C198.815 7.35684 201.928 5.91127 205.598 5.29384C209.268 4.67641 212.682 5.02382 215.842 6.33606C219.001 7.6483 221.678 9.81947 223.873 12.8496C226.068 15.8797 227.547 19.664 228.311 24.2025ZM223.268 25.0508C222.641 21.3248 221.489 18.2849 219.811 15.9312C218.147 13.5752 216.147 11.9168 213.81 10.9559C211.487 9.99265 209.023 9.73019 206.418 10.1685C203.812 10.6068 201.563 11.6623 199.669 13.3349C197.79 15.0051 196.442 17.2268 195.627 19.9999C194.825 22.7707 194.738 26.0191 195.365 29.7452C195.992 33.4712 197.137 36.5122 198.801 38.8683C200.479 41.2219 202.479 42.8804 204.802 43.8436C207.139 44.8045 209.61 45.0658 212.215 44.6275C214.821 44.1891 217.063 43.1349 218.943 41.4646C220.836 39.7921 222.184 37.5704 222.985 34.7996C223.801 32.0265 223.895 28.7769 223.268 25.0508ZM272.376 13.2812C272.254 11.1104 271.323 9.37351 269.582 8.07043C267.841 6.76735 265.651 6.03431 263.014 5.87132C261.086 5.75214 259.38 5.95976 257.895 6.49419C256.425 7.02949 255.252 7.818 254.376 8.85971C253.515 9.90231 253.041 11.1183 252.955 12.5077C252.883 13.6702 253.098 14.6868 253.599 15.5575C254.116 16.4148 254.796 17.1471 255.641 17.7544C256.487 18.3475 257.381 18.851 258.323 19.2651C259.266 19.6649 260.135 19.9961 260.93 20.2587L265.279 21.7231C266.395 22.0909 267.632 22.58 268.989 23.1905C270.36 23.8018 271.655 24.6006 272.875 25.5868C274.11 26.5597 275.102 27.7738 275.852 29.2291C276.602 30.6844 276.914 32.4328 276.787 34.4744C276.642 36.8278 275.894 38.9163 274.543 40.7399C273.206 42.5643 271.327 43.9638 268.904 44.9383C266.495 45.9138 263.618 46.2981 260.272 46.0913C257.153 45.8985 254.484 45.2282 252.263 44.0805C250.057 42.9337 248.357 41.4197 247.164 39.5386C245.985 37.6583 245.385 35.522 245.362 33.1296L250.806 33.4662C250.846 35.1195 251.315 36.5147 252.212 37.6518C253.125 38.7756 254.309 39.6458 255.765 40.2623C257.237 40.8656 258.837 41.2207 260.567 41.3276C262.58 41.4521 264.408 41.2377 266.05 40.6846C267.693 40.1173 269.019 39.2741 270.028 38.1552C271.037 37.0222 271.591 35.6617 271.689 34.0738C271.778 32.6277 271.447 31.426 270.695 30.4687C269.943 29.5114 268.925 28.7084 267.642 28.0598C266.358 27.4112 264.964 26.827 263.459 26.307L258.195 24.4446C254.853 23.256 252.245 21.693 250.372 19.7556C248.5 17.8182 247.654 15.3822 247.836 12.4474C247.986 10.0089 248.777 7.92301 250.208 6.18979C251.653 4.44327 253.527 3.13594 255.83 2.26779C258.147 1.38635 260.695 1.03151 263.474 1.20326C266.281 1.37677 268.745 2.03431 270.866 3.17586C272.988 4.30324 274.634 5.77119 275.803 7.57971C276.986 9.38911 277.545 11.3948 277.48 13.5966L272.376 13.2812ZM290.425 48.3799L302.865 6.55443L307.93 8.06089L302.39 26.6863L324.692 33.3195L330.231 14.6941L335.296 16.2006L322.856 58.0261L317.791 56.5196L323.355 37.8125L301.054 31.1793L295.49 49.8863L290.425 48.3799ZM362.525 26.9037L343.014 65.9353L338.287 63.5727L357.798 24.5411L362.525 26.9037ZM411.159 59.7314L385.145 94.7659L381.039 91.7174L382.373 50.0344L382.031 49.7803L361.606 77.2879L357.364 74.1378L383.378 39.1033L387.483 42.1518L386.167 83.954L386.509 84.2081L406.985 56.6321L411.159 59.7314ZM413.716 123.939L410.637 119.334L455.816 108.394L458.848 112.928L431.485 150.505L428.405 145.9L451.689 114.64L451.499 114.357L413.716 123.939ZM429.022 116.163L441.436 134.724L437.54 137.33L425.126 118.769L429.022 116.163ZM437.523 161.594L478.19 145.773L483.536 159.514C484.772 162.692 485.244 165.511 484.951 167.972C484.672 170.427 483.783 172.511 482.284 174.222C480.786 175.933 478.838 177.254 476.442 178.186C474.046 179.118 471.731 179.455 469.496 179.197C467.262 178.938 465.221 178.002 463.374 176.388C461.541 174.77 460.011 172.385 458.785 169.235L454.459 158.115L458.907 156.384L463.171 167.345C464.016 169.516 465.013 171.14 466.164 172.217C467.319 173.307 468.596 173.923 469.992 174.065C471.407 174.216 472.929 173.975 474.557 173.341C476.186 172.708 477.49 171.85 478.471 170.767C479.452 169.684 480.014 168.345 480.155 166.751C480.31 165.151 479.961 163.253 479.106 161.055L475.738 152.397L439.439 166.518L437.523 161.594ZM463.238 173.629L448.863 190.744L446.638 185.025L461.075 168.069L463.238 173.629ZM452.523 203.163L495.581 196.082L499.854 222.068L495.229 222.829L491.813 202.057L477.264 204.449L480.459 223.876L475.834 224.636L472.639 205.21L458.006 207.616L461.477 228.725L456.852 229.485L452.523 203.163ZM458.109 246.249L458.373 240.715L501.197 258.799L500.937 264.247L456.587 278.173L456.851 272.639L494.163 261.365L494.179 261.024L458.109 246.249ZM475.038 249.104L473.974 271.408L469.292 271.185L470.356 248.881L475.038 249.104ZM486.626 324.768L490.993 326.47L479.11 356.963L474.742 355.261L479.725 342.476L443.434 328.333L445.353 323.41L481.643 337.553L486.626 324.768ZM430.202 394.695C426.401 392.1 423.585 389.172 421.753 385.909C419.921 382.646 419.071 379.306 419.203 375.888C419.335 372.469 420.45 369.223 422.548 366.149C424.646 363.076 427.263 360.855 430.398 359.486C433.534 358.118 436.954 357.692 440.66 358.21C444.366 358.727 448.119 360.283 451.92 362.877C455.721 365.472 458.538 368.401 460.37 371.663C462.202 374.926 463.052 378.266 462.92 381.685C462.788 385.103 461.673 388.349 459.575 391.423C457.476 394.497 454.86 396.718 451.724 398.086C448.589 399.454 445.168 399.88 441.463 399.363C437.757 398.845 434.004 397.289 430.202 394.695ZM433.085 390.471C436.206 392.601 439.196 393.877 442.056 394.298C444.908 394.731 447.489 394.439 449.801 393.42C452.106 392.413 454.002 390.818 455.492 388.636C456.981 386.454 457.779 384.101 457.886 381.576C457.984 379.064 457.316 376.553 455.882 374.043C454.44 371.545 452.158 369.231 449.037 367.101C445.917 364.971 442.93 363.689 440.079 363.256C437.219 362.835 434.637 363.128 432.333 364.135C430.021 365.154 428.12 366.754 426.631 368.936C425.141 371.118 424.348 373.466 424.249 375.978C424.143 378.503 424.811 381.014 426.253 383.512C427.687 386.021 429.965 388.341 433.085 390.471ZM407.521 434.035C409.17 435.452 411.068 435.984 413.214 435.633C415.36 435.281 417.406 434.212 419.352 432.425C420.774 431.118 421.808 429.744 422.452 428.303C423.085 426.873 423.33 425.48 423.187 424.127C423.032 422.784 422.484 421.599 421.543 420.574C420.755 419.716 419.873 419.166 418.898 418.924C417.922 418.702 416.923 418.685 415.9 418.872C414.886 419.071 413.903 419.366 412.952 419.758C412.01 420.16 411.169 420.557 410.428 420.948L406.357 423.068C405.319 423.617 404.109 424.169 402.728 424.723C401.337 425.288 399.863 425.668 398.307 425.863C396.75 426.079 395.187 425.952 393.618 425.483C392.05 425.015 390.573 424.027 389.19 422.521C387.594 420.785 386.608 418.798 386.23 416.56C385.842 414.332 386.137 412.007 387.114 409.585C388.081 407.173 389.798 404.833 392.267 402.565C394.568 400.451 396.902 398.992 399.268 398.187C401.624 397.392 403.894 397.217 406.076 397.661C408.249 398.115 410.205 399.163 411.945 400.805L407.928 404.496C406.709 403.378 405.378 402.749 403.937 402.607C402.494 402.486 401.046 402.736 399.592 403.358C398.137 404 396.772 404.908 395.496 406.08C394.01 407.445 392.898 408.911 392.158 410.478C391.427 412.055 391.116 413.595 391.223 415.098C391.34 416.611 391.937 417.953 393.013 419.124C393.993 420.191 395.089 420.786 396.3 420.907C397.512 421.029 398.796 420.852 400.153 420.377C401.51 419.902 402.898 419.302 404.316 418.578L409.308 416.075C412.481 414.49 415.415 413.695 418.11 413.688C420.804 413.682 423.146 414.761 425.135 416.926C426.788 418.725 427.743 420.741 428.001 422.974C428.257 425.227 427.9 427.484 426.93 429.745C425.958 432.026 424.448 434.108 422.398 435.992C420.326 437.895 418.144 439.215 415.851 439.952C413.568 440.7 411.369 440.868 409.255 440.457C407.131 440.055 405.298 439.067 403.756 437.494L407.521 434.035ZM369.717 422.713L391.266 460.657L386.671 463.266L377.075 446.369L356.843 457.859L366.439 474.756L361.845 477.366L340.295 439.422L344.89 436.812L354.528 453.783L374.76 442.293L365.122 425.322L369.717 422.713ZM335.265 489.591L320.626 448.484L325.604 446.711L340.243 487.819L335.265 489.591ZM277.867 501.91L270.645 458.876L275.688 458.029L304.809 487.883L305.229 487.813L299.559 454.024L304.77 453.149L311.992 496.184L306.949 497.03L277.73 467.107L277.31 467.177L282.994 501.05L277.867 501.91ZM252.576 460.355L258.108 460.643L239.841 503.388L234.394 503.105L220.659 458.695L226.191 458.983L237.306 496.343L237.646 496.361L252.576 460.355ZM249.648 477.271L227.349 476.111L227.592 471.43L249.892 472.59L249.648 477.271Z" fill="white"/>
</svg>
