<svg width="115" height="129" viewBox="0 0 115 129" fill="none" xmlns="http://www.w3.org/2000/svg">
<g clip-path="url(#clip0_63_10789)">
<path d="M75.5938 6.44909C78.7048 2.97675 78.6273 3.08374 82.0969 5.65152C85.0334 7.83025 88.0475 10.0868 90.6157 12.5184C94.0659 15.7767 97.3901 19.2977 100.646 22.8187C101.276 23.4995 101.49 24.6375 100.724 25.0169C97.6324 26.5536 96.1012 29.7342 93.4457 31.6795C92.1082 32.6619 91.4783 32.5062 90.1118 30.8138C87.1946 27.1664 84.0836 23.5774 80.207 20.7178C77.5903 18.7822 75.5938 15.981 73.4326 13.4716C72.1921 12.0321 72.2308 10.4272 73.5392 8.93906C74.3048 8.06368 75.0317 7.13967 75.5841 6.45882L75.5938 6.44909Z" fill="#52D5D1"/>
<path d="M19.199 92.567C12.6766 88.55 7.16206 83.7646 0 80.5257C3.3339 76.4016 6.45458 72.5305 9.63341 68.5913C16.7276 70.1281 20.4686 75.2928 25.4113 79.1737C27.2333 80.6035 26.7002 82.3445 25.7505 83.7159C23.754 86.6144 21.554 89.4059 19.199 92.567Z" fill="#59D7D3"/>
<path d="M36.1205 59.3803C28.0765 54.1475 21.6704 47.8448 14.518 42.4952C13.3744 41.6393 13.0449 40.7834 13.7524 39.5481C14.0043 39.1104 14.2563 38.6824 14.518 38.2545C18.5788 31.4654 20.4977 31.0375 25.9928 36.4259C30.0729 40.4235 35.0544 43.1761 39.3284 46.8818C42.4394 49.5858 42.4006 49.4982 39.9293 53.0289C38.5046 55.052 37.3707 57.2794 36.1302 59.3706L36.1205 59.3803Z" fill="#45D2CE"/>
<path d="M13.0827 118.702C8.3597 116.484 7.29363 112.856 9.8845 107.818C11.9973 103.684 12.1426 102.517 17.473 104.433C19.8377 105.279 22.0668 106.126 24.1505 107.643C26.835 109.598 29.8103 111.222 33.057 112.049C35.2085 112.603 35.4314 113.975 34.5689 115.356C32.8147 118.186 30.731 120.803 28.7637 123.487C28.0271 124.489 27.0579 124.285 26.0791 123.886C21.9117 122.213 17.7444 120.55 13.0924 118.682L13.0827 118.702Z" fill="#56D6D2"/>
<path d="M56.6952 127.776C56.1815 127.105 55.5225 126.347 54.9798 125.52C52.3921 121.6 50.2309 117.447 49.0001 112.905C48.4864 110.989 45.9957 109.423 47.0133 107.555C47.9825 105.785 50.1437 104.657 51.8106 103.276C52.5763 102.643 53.4194 102.089 54.2335 101.505C55.571 100.533 56.5886 100.883 57.674 102.069C59.2828 103.83 60.4264 105.834 61.3374 108.003C63.0819 112.146 64.8555 116.27 67.6176 119.869C68.4123 120.9 68.6546 121.96 67.259 122.796C64.3903 124.499 61.5507 126.24 58.682 127.932C58.1102 128.272 57.4317 128.37 56.7049 127.786L56.6952 127.776Z" fill="#4AD3CF"/>
<path d="M67.9475 42.2714C71.6787 43.4775 75.1386 47.1055 79.5871 49.0216C81.002 49.6246 80.9148 50.714 79.9941 51.8325C78.521 53.6416 77.0769 55.4702 75.6523 57.3085C72.7157 61.0921 69.9536 60.8587 66.8911 57.1918C64.4488 54.2739 61.144 52.241 57.7229 50.5097C56.6956 49.9845 55.5035 49.6343 54.6798 48.8757C53.2939 47.6015 52.4798 46.376 54.137 44.2654C59.1185 37.9237 58.9828 37.8264 67.9378 42.2617L67.9475 42.2714Z" fill="#4ED4D0"/>
<path d="M93.1269 50.3155C95.0264 48.2049 96.9163 46.0748 98.8449 43.9836C100.018 42.7192 101.161 42.8164 102.13 44.2657C103.836 46.8237 106.065 48.6231 108.808 50.1016C111.483 51.5411 112.568 54.7216 114.526 56.9976C115.466 58.087 114.836 59.2736 114.109 60.2073C112.365 62.4639 110.814 64.8177 109.341 67.2687C108.042 69.4377 106.928 69.428 104.912 67.687C104.156 67.0353 103.39 66.3447 102.809 65.5374C100.066 61.7344 97.1198 58.1259 93.8538 54.7508C92.6908 53.5544 91.4309 52.1344 93.1172 50.3058L93.1269 50.3155Z" fill="#4ED4D1"/>
<path d="M92.8834 103.519C88.9002 100.601 84.539 97.2646 80.0228 94.1619C77.6386 92.5278 77.9972 90.5728 78.8307 88.4719C79.1893 87.5674 79.9646 86.8281 80.5073 85.9917C83.2888 81.7704 83.4342 81.6439 87.2236 84.8439C90.8288 87.8883 95.2094 89.5807 99.1054 92.0999C102.682 94.4148 103.612 95.9418 102.74 98.9278C102.023 101.389 100.356 103.344 98.3882 104.871C96.4499 106.378 95.0931 104.131 92.8641 103.528L92.8834 103.519Z" fill="#4ED4D0"/>
<path d="M39.1069 0.194824C40.5412 1.42036 41.9174 2.56808 43.2742 3.74498C47.6839 7.55774 51.8028 11.7207 56.7067 14.9304C57.8988 15.7085 58.9358 16.4477 58.6354 18.0818C58.0636 21.1164 56.4257 23.6745 54.8944 26.252C54.2257 27.3802 53.1306 26.9814 52.3165 26.2811C46.0073 20.8149 40.1245 14.9012 34.2999 8.92917C33.1853 7.79118 33.0012 6.66291 34.2514 5.46656C35.9184 3.86169 36.9941 1.68297 39.1166 0.204551L39.1069 0.194824Z" fill="#54D6D2"/>
<path d="M45.0366 71.655C47.4304 70.0307 50.1247 68.0757 52.9643 66.3444C53.9916 65.7219 54.8445 66.7529 55.4453 67.5407C58.5273 71.4994 61.6867 75.3997 64.5748 79.5043C65.8928 81.3717 66.1545 83.4629 63.7219 85.1067C62.2197 86.128 60.9695 87.5383 59.6321 88.8027C58.3528 90.0185 57.1898 90.4076 55.8912 88.7347C52.4991 84.3772 48.9908 80.117 45.6181 75.7498C44.8331 74.7383 43.9415 73.5614 45.0269 71.6647L45.0366 71.655Z" fill="#58D7D3"/>
</g>
<defs>
<clipPath id="clip0_63_10789">
<rect width="115" height="128" fill="white" transform="translate(0 0.194824)"/>
</clipPath>
</defs>
</svg>
