<svg width="106" height="112" viewBox="0 0 106 112" fill="none" xmlns="http://www.w3.org/2000/svg">
<path d="M8.40631 32.5658C4.45702 32.5274 1.85522 30.7021 0.666938 27.2322C0.189295 25.8373 -0.249515 24.5269 0.165995 22.8976C1.20671 18.8359 5.50938 16.6994 9.11695 17.1221C12.5808 17.5294 14.4953 18.7975 15.1904 21.9562C15.9088 25.2301 14.5458 29.6377 11.478 31.8856C10.4683 32.6234 9.33053 32.6196 8.40631 32.5696V32.5658Z" fill="#FFFBFB"/>
<path d="M28.3621 21.149C29.43 21.1875 30.4668 21.2528 31.5464 21.5218C35.5267 22.517 37.6004 28.8267 34.0045 32.4273C31.527 34.9097 26.2302 36.2239 22.8478 34.2257C19.3063 32.1276 18.3782 27.5087 20.7975 24.227C22.7585 21.5641 25.372 21.0491 28.3621 21.1529V21.149Z" fill="white"/>
<path d="M35.7098 7.48145C35.7525 8.96473 35.236 10.2981 34.0128 11.3702C32.8828 12.3617 31.9081 13.5106 30.6227 14.3445C28.0015 16.0429 23.9085 15.1169 22.3669 12.4231C21.9397 11.6777 21.6407 10.863 21.1786 10.1444C19.7573 7.91952 20.5378 5.99049 21.8426 4.04994C23.1629 2.08633 25.2016 1.19483 27.2792 0.418604C30.048 -0.61892 32.5682 0.307166 34.172 2.80875C35.0652 4.1998 35.8108 5.65618 35.7059 7.48145H35.7098Z" fill="white"/>
<path d="M16.0157 38.9215C12.0664 38.9599 9.4646 40.7852 8.27631 44.2552C7.79867 45.65 7.35986 46.9604 7.77537 48.5897C8.81609 52.6514 13.1188 54.7879 16.7263 54.3652C20.1902 53.9579 22.1047 52.6898 22.7998 49.5312C23.5182 46.2572 22.1551 41.8496 19.0874 39.6017C18.0777 38.8639 16.9399 38.8677 16.0157 38.9177V38.9215Z" fill="#FFFBFB"/>
<path d="M45.7312 46.6182C45.7739 45.1349 45.2574 43.8015 44.0342 42.7294C42.9041 41.738 41.9294 40.589 40.6441 39.7551C38.0229 38.0567 33.9299 38.9827 32.3882 41.6765C31.9611 42.4219 31.662 43.2366 31.1999 43.9552C29.7787 46.1801 30.5592 48.1091 31.864 50.0497C33.1843 52.0133 35.223 52.9048 37.3006 53.681C40.0693 54.7185 42.5896 53.7924 44.1934 51.2909C45.0865 49.8998 45.8321 48.4434 45.7273 46.6182H45.7312Z" fill="white"/>
<path d="M49.5028 31.809C50.5707 31.7705 51.6076 31.7052 52.6871 31.4362C56.6675 30.441 58.7412 24.1313 55.1452 20.5307C52.6677 18.0483 47.3709 16.7341 43.9886 18.7323C40.447 20.8304 39.5189 25.4493 41.9382 28.731C43.8993 31.394 46.5127 31.9089 49.5028 31.8051V31.809Z" fill="white"/>
<path d="M57.4063 89.5658C53.457 89.5274 50.8552 87.7021 49.6669 84.2322C49.1893 82.8373 48.7505 81.5269 49.166 79.8976C50.2067 75.8359 54.5094 73.6994 58.1169 74.1221C61.5808 74.5294 63.4953 75.7975 64.1904 78.9562C64.9088 82.2301 63.5458 86.6377 60.478 88.8856C59.4683 89.6234 58.3305 89.6196 57.4063 89.5696V89.5658Z" fill="#FFFBFB"/>
<path d="M77.3621 78.149C78.43 78.1875 79.4668 78.2528 80.5464 78.5218C84.5267 79.517 86.6004 85.8267 83.0045 89.4273C80.527 91.9097 75.2302 93.2239 71.8478 91.2257C68.3063 89.1276 67.3782 84.5087 69.7975 81.227C71.7585 78.5641 74.372 78.0491 77.3621 78.1529V78.149Z" fill="white"/>
<path d="M84.7098 64.4815C84.7525 65.9647 84.236 67.2981 83.0128 68.3702C81.8828 69.3617 80.9081 70.5106 79.6227 71.3445C77.0015 73.0429 72.9085 72.1169 71.3669 69.4231C70.9397 68.6777 70.6407 67.863 70.1786 67.1444C68.7573 64.9195 69.5378 62.9905 70.8426 61.0499C72.1629 59.0863 74.2016 58.1948 76.2792 57.4186C79.048 56.3811 81.5682 57.3072 83.172 59.8088C84.0652 61.1998 84.8108 62.6562 84.7059 64.4815H84.7098Z" fill="white"/>
<path d="M65.0157 95.9215C61.0664 95.9599 58.4646 97.7852 57.2763 101.255C56.7987 102.65 56.3599 103.96 56.7754 105.59C57.8161 109.651 62.1188 111.788 65.7263 111.365C69.1902 110.958 71.1047 109.69 71.7998 106.531C72.5182 103.257 71.1551 98.8496 68.0874 96.6017C67.0777 95.8639 65.9399 95.8677 65.0157 95.9177V95.9215Z" fill="#FFFBFB"/>
<path d="M94.7312 103.618C94.7739 102.135 94.2574 100.801 93.0342 99.7294C91.9041 98.738 90.9294 97.589 89.6441 96.7551C87.0229 95.0567 82.9299 95.9827 81.3882 98.6765C80.9611 99.4219 80.662 100.237 80.1999 100.955C78.7787 103.18 79.5592 105.109 80.864 107.05C82.1843 109.013 84.223 109.905 86.3006 110.681C89.0693 111.719 91.5896 110.792 93.1934 108.291C94.0865 106.9 94.8321 105.443 94.7273 103.618H94.7312Z" fill="white"/>
<path d="M98.5028 88.809C99.5707 88.7705 100.608 88.7052 101.687 88.4362C105.667 87.441 107.741 81.1313 104.145 77.5307C101.668 75.0483 96.3709 73.7341 92.9886 75.7323C89.447 77.8304 88.5189 82.4493 90.9382 85.731C92.8993 88.394 95.5127 88.9089 98.5028 88.8051V88.809Z" fill="white"/>
</svg>
