<svg width="178" height="170" viewBox="0 0 178 170" fill="none" xmlns="http://www.w3.org/2000/svg">
<g clip-path="url(#clip0_63_10198)">
<path d="M68.5081 72.4153C68.7063 70.0036 69.6587 68.19 71.4543 66.3136C73.4324 64.2382 75.4082 62.2359 77.7214 60.5808C81.1439 58.1298 84.9486 56.1987 89.1241 56.6938C92.7581 57.1244 96.6299 57.6886 99.3697 60.6347C99.6269 60.9083 99.845 61.1742 100.171 61.1915C102.827 61.2786 104.154 63.4077 106.022 64.7652C111.559 68.7926 112.502 74.1402 111.458 80.6156C110.711 85.2577 107.56 88.3899 105.466 92.1824C104.785 93.4084 103.117 93.3629 102.129 94.1575C99.6723 96.1505 96.6153 96.3903 93.8434 97.4273C93.9922 95.4119 93.7843 94.0371 91.0692 94.8913C89.2768 95.455 87.6452 94.2117 86.0702 93.4808C84.2728 92.6398 82.9759 92.6433 81.3703 94.2523C78.3747 97.2452 77.0894 97.0245 74.7739 93.5656C74.0413 92.4706 73.3766 91.795 71.948 92.0629C70.9006 92.2577 70.0758 91.8674 69.9649 90.6286C69.9968 89.5867 70.0043 88.5411 70.9105 87.775C72.0762 87.4915 73.4616 88.0766 74.2706 86.4696C74.7884 85.4319 75.9796 85.1811 77.1087 85.5216C78.7385 86.0115 80.1356 85.2542 81.5949 84.7514C83.363 84.3251 84.8232 85.1105 86.3293 85.8158C91.9439 88.4488 98.5412 85.2367 100.021 79.152C100.57 76.9022 100.273 74.7882 98.3962 73.3388C96.5445 71.9124 94.7383 70.3961 92.4651 69.5601C86.8209 67.4731 83.4397 68.59 80.112 73.7779C79.5958 74.5822 79.179 75.4495 78.5734 76.2001C77.9816 76.9257 77.3755 77.6569 77.4743 78.6873C77.4613 79.0137 77.4092 79.3323 77.318 79.6433C74.2623 81.6039 73.2416 81.3064 71.0678 77.7332C68.9141 79.5065 67.824 82.3967 65.0685 83.4863C62.9159 81.9246 63.0672 81.246 65.9156 79.753C67.0831 79.7999 67.5044 79.1998 67.5627 78.0787C67.615 77.0648 67.867 76.065 68.0263 75.0554C68.3027 74.2002 68.4374 73.3182 68.5084 72.425L68.5081 72.4153Z" fill="#FFC32D"/>
<path d="M94.3776 102.344C96.5782 104.306 98.9998 105.917 101.727 107.085C102.372 107.358 103.06 107.726 103.487 108.249C105.958 111.286 109.805 112.138 112.903 114.181C115.055 115.602 117.373 116.752 119.384 118.418C121.575 120.24 124.68 120.28 127.044 121.894C131.079 124.647 135.99 124.642 140.545 125.57C143.681 126.211 146.514 127.514 149.522 128.385C154.125 129.714 158.675 131.211 163.613 130.451C164.444 130.321 165.272 130.517 166.016 130.945C170.431 132.478 170.471 132.505 167.785 136.158C167.038 137.173 167.089 138.79 165.535 139.215C159.592 139.306 153.708 139.696 147.962 137.328C143.039 135.301 137.946 133.579 132.357 133.648C128.4 133.691 125.068 131.319 121.651 129.585C120.509 129.006 119.545 128.244 118.195 127.993C116.953 127.765 115.654 127.277 114.652 126.536C110.683 123.6 106.091 121.736 101.972 119.075C98.558 116.863 95.1354 114.682 91.5222 112.748C89.2208 111.519 87.4957 108.978 85.373 107.162C84.4079 105.384 82.881 104.077 81.5383 102.619C80.2311 101.204 79.4512 99.4454 80.8632 97.8561C82.1582 96.3943 83.687 95.3726 86.0991 96.7119C89.0561 98.3537 92.2635 99.5111 94.3823 102.338L94.3776 102.344Z" fill="#FFC127"/>
<path d="M71.0119 87.9351C70.8957 88.787 70.7798 89.6485 70.6636 90.5004C70.0817 90.5303 69.8069 91.293 69.1511 91.1517C65.24 89.8749 61.6583 87.8666 57.9371 86.1814C54.6945 84.7098 52.6409 81.5194 49.2342 80.3577C45.606 79.1149 42.8529 76.4855 39.644 74.5844C38.2453 73.7521 37.5755 72.367 36.6425 71.2385C32.7837 66.561 28.9095 61.8599 25.4816 56.8637C22.7392 52.8628 20.2373 48.6503 17.8089 44.4583C16.3262 41.9045 15.2007 39.1428 13.4237 36.6479C11.5548 34.0217 11.8417 30.5262 11.3251 27.3929C11.141 26.2843 11.9478 25.4553 13.3685 25.5184C14.7065 25.5808 15.9389 25.396 16.2308 23.5871C16.3908 22.5969 17.3888 22.5165 18.274 22.6897C20.5626 23.1263 21.7069 24.3265 21.9033 26.6304C22.2525 30.6814 23.9267 34.1344 25.9463 37.6036C27.2894 39.9166 28.6751 42.1934 30.0991 44.4585C32.7877 48.7295 35.4596 52.9382 39.1012 56.5331C41.4905 58.8944 42.7108 62.2881 45.2124 64.6679C47.1013 66.4667 48.9523 68.2967 51.1675 69.6995C55.6273 72.5135 60.1008 75.3024 64.5279 78.152C65.0894 78.5169 65.4484 79.2034 65.8993 79.7393C65.6656 80.0041 65.4627 80.3159 65.1935 80.5388C63.7249 81.7567 64.0418 82.63 65.6338 83.2919C65.8027 85.0819 66.3069 86.3151 68.5983 85.9931C69.7053 85.8342 71.3349 85.9011 71.0022 87.9356L71.0119 87.9351Z" fill="#FFC22A"/>
<path d="M69.1523 91.1517C69.5646 90.7124 70.014 90.3636 70.6648 90.5003C70.5546 91.2449 71.0667 91.8651 71.5904 91.5563C73.461 90.4441 74.313 91.4795 75.0998 92.878C75.1567 92.9772 75.1948 93.0968 75.2564 93.1908C77.1779 96.213 79.0002 96.2312 81.3166 93.2634C82.7536 91.4151 83.6027 91.1041 85.5018 92.2169C86.4935 92.7979 87.6189 93.0318 88.5494 93.6694C89.4999 94.3254 90.5464 94.2425 91.6115 94.1391C92.7589 94.0266 94.0689 92.2967 94.9745 93.8982C95.6007 95.0084 94.4208 96.2844 93.8431 97.4176C93.0386 98.0326 91.9455 97.3304 91.032 98.1649C91.5286 100.021 94.0894 100.322 94.3831 102.348C92.0046 100.298 89.2784 98.8675 86.3135 97.8387C84.0961 97.0727 84.1051 97.0528 82.8514 97.6034C80.7604 98.5227 80.2939 100.482 81.9139 102.09C83.403 103.569 84.8624 105.03 85.3735 107.162C81.93 104.52 79.5332 100.958 77.0283 97.5041C76.0027 96.0838 74.4728 95.1124 73.7535 93.4188C73.3935 92.5622 72.3969 92.6815 71.5598 92.6371C70.5184 92.5836 69.3436 92.6051 69.1473 91.1471L69.1523 91.1517Z" fill="#FFC73C"/>
<path d="M165.544 139.214C165.679 136.67 166.926 134.807 169.222 133.615C168.77 131.8 166.677 132.238 166.025 130.945C166.769 130.265 167.507 130.256 168.216 130.944C169.387 132.085 170.677 133.127 171.673 134.398C172.613 135.599 172.021 136.869 171.035 137.872C169.482 139.454 167.644 139.967 165.544 139.205L165.544 139.214Z" fill="#FFD56E"/>
<path d="M68.5073 72.4152C68.9686 73.3929 68.8487 74.2789 68.0252 75.0456C67.8765 74.1199 67.8743 73.2158 68.5073 72.4152Z" fill="#FFC73C"/>
<path d="M77.1379 78.7824C78.5325 80.3344 78.6874 82.5626 80.0351 84.1657C80.486 84.7015 80.9493 85.1736 81.5212 85.5574C80.3143 85.916 79.4239 86.9972 77.8879 86.6872C74.7862 86.0591 74.7608 86.1674 73.6438 89.3992C72.6384 89.1252 72.2001 87.8303 71.0039 87.9356C70.2779 86.6117 69.195 86.3417 67.8142 86.8696C66.9274 87.2117 66.1291 87.5882 65.451 86.3834C64.799 85.2308 64.5233 84.2824 65.6354 83.2919C65.9144 81.9504 66.5509 80.8336 67.7143 80.0592C68.1985 79.7329 68.9797 79.5664 68.9762 78.9054C68.9567 76.2375 70.9801 76.8724 72.5518 76.5291C72.8109 77.6971 71.7611 79.365 73.4969 79.83C74.7815 80.1723 76.2938 80.4981 77.1232 78.7783L77.1379 78.7824Z" fill="#FFC73C"/>
<path d="M77.343 76.2827C77.509 77.1492 77.4463 78.0032 77.1401 78.8405C75.9323 77.9108 76.6425 77.0965 77.343 76.2827Z" fill="#FFC73C"/>
<path d="M76.7528 89.2443C76.9494 89.03 77.1387 89.0251 77.2782 89.2659C77.3347 89.3553 77.3491 89.4907 77.3334 89.5985C77.301 89.9258 77.0917 90.0533 76.8612 89.8512C76.7408 89.7407 76.7796 89.4568 76.7481 89.2494L76.7528 89.2443Z" fill="#FFC73C"/>
</g>
<defs>
<clipPath id="clip0_63_10198">
<rect width="52.3387" height="192.999" fill="white" transform="translate(0.234375 38.5654) rotate(-47.4633)"/>
</clipPath>
</defs>
</svg>
