<svg width="203" height="82" viewBox="0 0 203 82" fill="none" xmlns="http://www.w3.org/2000/svg">
<g filter="url(#filter0_gn_63_9832)">
<path d="M143.791 29.0526L156.406 6.42096C157.949 3.65229 161.946 3.69286 163.432 6.49228L175.451 29.1239C176.866 31.7881 174.935 35 171.918 35H147.285C144.233 35 142.305 31.7188 143.791 29.0526Z" fill="#B8DCAB"/>
<path d="M119.983 74.0526L132.597 51.421C134.14 48.6523 138.137 48.6929 139.624 51.4923L151.643 74.1239C153.057 76.7881 151.126 80 148.11 80H123.477C120.424 80 118.497 76.7188 119.983 74.0526Z" fill="#B8DCAB"/>
<path d="M167.6 74.0526L180.214 51.421C181.758 48.6523 185.754 48.6929 187.241 51.4923L199.26 74.1239C200.675 76.7881 198.744 80 195.727 80H171.094C168.042 80 166.114 76.7188 167.6 74.0526Z" fill="#579ED7"/>
<path d="M24.7446 74.0526L37.3589 51.421C38.9021 48.6523 42.8989 48.6929 44.3855 51.4923L56.4043 74.1239C57.8192 76.7881 55.8882 80 52.8716 80H28.2385C25.1862 80 23.2585 76.7188 24.7446 74.0526Z" fill="#B8DCAB"/>
<path d="M72.3618 74.0526L84.9761 51.421C86.5192 48.6523 90.5161 48.6929 92.0027 51.4923L104.022 74.1239C105.436 76.7881 103.505 80 100.489 80H75.8557C72.8033 80 70.8757 76.7188 72.3618 74.0526Z" fill="#579ED7"/>
<path d="M50.936 29.0526L63.5503 6.42096C65.0935 3.65229 69.0903 3.69286 70.5769 6.49228L82.5957 29.1239C84.0106 31.7881 82.0796 35 79.063 35H54.43C51.3776 35 49.45 31.7188 50.936 29.0526Z" fill="#B8DCAB"/>
<path d="M98.5534 29.0526L111.168 6.42096C112.711 3.65229 116.708 3.69286 118.194 6.49228L130.213 29.1239C131.628 31.7881 129.697 35 126.68 35H102.047C98.9949 35 97.0673 31.7188 98.5534 29.0526Z" fill="#579ED7"/>
<path d="M3.31493 29.0526L15.9292 6.42096C17.4724 3.65229 21.4692 3.69286 22.9559 6.49228L34.9746 29.1239C36.3895 31.7881 34.4585 35 31.4419 35H6.80886C3.75647 35 1.82886 31.7188 3.31493 29.0526Z" fill="#579ED7"/>
</g>
<defs>
<filter id="filter0_gn_63_9832" x="0.803093" y="2.36841" width="200.929" height="79.6316" filterUnits="userSpaceOnUse" color-interpolation-filters="sRGB">
<feFlood flood-opacity="0" result="BackgroundImageFix"/>
<feBlend mode="normal" in="SourceGraphic" in2="BackgroundImageFix" result="shape"/>
<feTurbulence type="fractalNoise" baseFrequency="4 4" numOctaves="3" seed="7988" />
<feDisplacementMap in="shape" scale="4" xChannelSelector="R" yChannelSelector="G" result="displacedImage" width="100%" height="100%" />
<feMerge result="effect1_texture_63_9832">
<feMergeNode in="displacedImage"/>
</feMerge>
<feTurbulence type="fractalNoise" baseFrequency="2 2" stitchTiles="stitch" numOctaves="3" result="noise" seed="304" />
<feColorMatrix in="noise" type="luminanceToAlpha" result="alphaNoise" />
<feComponentTransfer in="alphaNoise" result="coloredNoise1">
<feFuncA type="discrete" tableValues="1 1 1 1 1 1 1 1 1 1 1 1 1 1 1 1 1 1 1 1 1 1 1 1 1 1 1 1 1 1 1 1 1 1 1 1 1 1 1 1 1 1 1 1 1 1 1 1 1 1 1 0 0 0 0 0 0 0 0 0 0 0 0 0 0 0 0 0 0 0 0 0 0 0 0 0 0 0 0 0 0 0 0 0 0 0 0 0 0 0 0 0 0 0 0 0 0 0 0 0 "/>
</feComponentTransfer>
<feComposite operator="in" in2="effect1_texture_63_9832" in="coloredNoise1" result="noise1Clipped" />
<feFlood flood-color="rgba(229, 242, 252, 0.2)" result="color1Flood" />
<feComposite operator="in" in2="noise1Clipped" in="color1Flood" result="color1" />
<feMerge result="effect2_noise_63_9832">
<feMergeNode in="effect1_texture_63_9832" />
<feMergeNode in="color1" />
</feMerge>
</filter>
</defs>
</svg>
