<svg width="119" height="132" viewBox="0 0 119 132" fill="none" xmlns="http://www.w3.org/2000/svg">
<g clip-path="url(#clip0_63_10010)">
<path d="M78 6.42998C81.21 2.85998 81.13 2.96998 84.71 5.60998C87.74 7.84998 90.85 10.17 93.5 12.67C97.06 16.02 100.49 19.64 103.85 23.26C104.5 23.96 104.72 25.13 103.93 25.52C100.74 27.1 99.16 30.37 96.42 32.37C95.04 33.38 94.39 33.22 92.98 31.48C89.97 27.73 86.76 24.04 82.76 21.1C80.06 19.11 78 16.23 75.77 13.65C74.49 12.17 74.53 10.52 75.88 8.98998C76.67 8.08998 77.42 7.13998 77.99 6.43998L78 6.42998Z" fill="#F7EE46"/>
<path d="M19.81 94.9701C13.08 90.8401 7.38999 85.9201 -7.62939e-06 82.5901C3.43999 78.3501 6.65999 74.3701 9.93999 70.3201C17.26 71.9001 21.12 77.2101 26.22 81.2001C28.1 82.6701 27.55 84.4601 26.57 85.8701C24.51 88.8501 22.24 91.7201 19.81 94.9701Z" fill="#F3FC44"/>
<path d="M37.27 60.8499C28.97 55.4699 22.36 48.99 14.98 43.49C13.8 42.61 13.46 41.7299 14.19 40.4599C14.45 40.0099 14.71 39.5699 14.98 39.1299C19.17 32.1499 21.15 31.7099 26.82 37.2499C31.03 41.3599 36.17 44.1899 40.58 47.9999C43.79 50.7799 43.75 50.6899 41.2 54.3199C39.73 56.3999 38.56 58.6899 37.28 60.8399L37.27 60.8499Z" fill="#E4F735"/>
<path d="M13.5 121.84C8.62666 119.56 7.52666 115.83 10.2 110.65C12.38 106.4 12.53 105.2 18.03 107.17C20.47 108.04 22.77 108.91 24.92 110.47C27.69 112.48 30.76 114.15 34.11 115C36.33 115.57 36.56 116.98 35.67 118.4C33.86 121.31 31.71 124 29.68 126.76C28.92 127.79 27.92 127.58 26.91 127.17C22.61 125.45 18.31 123.74 13.51 121.82L13.5 121.84Z" fill="#F6E741"/>
<path d="M58.5012 131.17C57.9712 130.48 57.2912 129.7 56.7312 128.85C54.0612 124.82 51.8313 120.55 50.5613 115.88C50.0313 113.91 47.4612 112.3 48.5112 110.38C49.5112 108.56 51.7412 107.4 53.4612 105.98C54.2512 105.33 55.1212 104.76 55.9612 104.16C57.3412 103.16 58.3912 103.52 59.5112 104.74C61.1712 106.55 62.3513 108.61 63.2913 110.84C65.0912 115.1 66.9212 119.34 69.7712 123.04C70.5912 124.1 70.8413 125.19 69.4013 126.05C66.4412 127.8 63.5112 129.59 60.5512 131.33C59.9612 131.68 59.2612 131.78 58.5112 131.18L58.5012 131.17Z" fill="#F2F538"/>
<path d="M70.11 43.2599C73.96 44.4999 77.53 48.2299 82.12 50.1999C83.58 50.8199 83.49 51.9399 82.54 53.0899C81.02 54.9499 79.53 56.8299 78.06 58.7199C75.03 62.6099 72.18 62.3699 69.02 58.5999C66.5 55.5999 63.09 53.5099 59.56 51.7299C58.5 51.1899 57.27 50.8299 56.42 50.0499C54.99 48.7399 54.15 47.4799 55.86 45.3099C61 38.7899 60.86 38.6899 70.1 43.2499L70.11 43.2599Z" fill="#EBFA42"/>
<path d="M96.0907 51.5299C98.0507 49.3599 100.001 47.1699 101.991 45.0199C103.201 43.7199 104.381 43.8199 105.381 45.3099C107.141 47.9399 109.441 49.7899 112.271 51.3099C115.031 52.7899 116.151 56.0599 118.171 58.3999C119.141 59.5199 118.491 60.7399 117.741 61.6999C115.941 64.0199 114.341 66.4399 112.821 68.9599C111.481 71.1899 110.331 71.1799 108.251 69.3899C107.471 68.7199 106.681 68.0099 106.081 67.1799C103.251 63.2699 100.211 59.5599 96.8407 56.0899C95.6407 54.8599 94.3408 53.3999 96.0808 51.5199L96.0907 51.5299Z" fill="#F1F440"/>
<path d="M95.8391 106.23C91.7291 103.23 87.2291 99.7999 82.5691 96.6099C80.1091 94.9299 80.4791 92.92 81.3391 90.76C81.7091 89.83 82.5091 89.0699 83.0691 88.2099C85.9391 83.8699 86.0891 83.7399 89.9991 87.0299C93.7191 90.1599 98.2391 91.8999 102.259 94.4899C105.949 96.8699 106.909 98.44 106.009 101.51C105.269 104.04 103.549 106.05 101.519 107.62C99.5191 109.17 98.1191 106.86 95.8191 106.24L95.8391 106.23Z" fill="#EBFA42"/>
<path d="M40.3514 0C41.8314 1.26 43.2514 2.44 44.6514 3.65C49.2014 7.57 53.4514 11.85 58.5114 15.15C59.7414 15.95 60.8114 16.71 60.5014 18.39C59.9114 21.51 58.2214 24.14 56.6414 26.79C55.9514 27.95 54.8214 27.54 53.9814 26.82C47.4714 21.2 41.4014 15.12 35.3914 8.98C34.2414 7.81 34.0514 6.65 35.3414 5.42C37.0614 3.77 38.1714 1.53 40.3614 0.01L40.3514 0Z" fill="#DEF627"/>
<path d="M46.4691 73.4699C48.9391 71.7999 51.7191 69.7899 54.6491 68.0099C55.7091 67.3699 56.5891 68.4299 57.2091 69.2399C60.3891 73.3099 63.6491 77.3199 66.6291 81.5399C67.9891 83.4599 68.2591 85.6099 65.7491 87.2999C64.1991 88.3499 62.9091 89.7999 61.5291 91.0999C60.2091 92.3499 59.0091 92.7499 57.6691 91.0299C54.1691 86.5499 50.5491 82.1699 47.0691 77.6799C46.2591 76.6399 45.3391 75.4299 46.4591 73.4799L46.4691 73.4699Z" fill="#EEDB4B"/>
</g>
<defs>
<clipPath id="clip0_63_10010">
<rect width="118.66" height="131.6" fill="white"/>
</clipPath>
</defs>
</svg>
