<svg width="180" height="70" viewBox="0 0 180 70" fill="none" xmlns="http://www.w3.org/2000/svg">
<path d="M146.361 44.6745C142.953 45.3719 139.551 46.0877 136.144 46.7667C133.538 47.2885 130.84 47.4271 128.351 48.4293C126.868 49.0251 125.542 48.8311 124.216 48.0829C123.567 46.7667 122.413 45.94 121.277 45.0948C119.997 42.2637 119.214 39.2663 118.672 36.2412C118.203 33.6133 117.146 31.1378 116.938 28.4406C116.813 26.838 115.955 26.4916 114.314 27.0643C110.948 28.2466 107.532 29.1565 103.935 29.1842C103.35 29.1842 102.822 29.3043 102.303 29.5998C99.577 31.147 96.4247 31.2071 93.4996 32.0707C92.6883 32.3109 92.0949 31.752 91.4459 31.5211C90.8062 31.2902 91.089 30.5374 91.0426 29.9924C89.3089 29.0087 89.2115 27.3691 89.893 25.9051C90.6022 24.3902 91.7797 23.0185 93.8843 23.9607L93.9121 23.9977C94.2969 24.4641 94.7049 24.8659 95.3817 24.5426C98.9141 23.2772 102.65 22.9631 106.285 22.1734C110.411 21.2728 114.555 20.5661 118.76 20.1597C119.817 20.0581 120.238 20.4553 120.832 21.3282C123.928 25.8866 124.907 31.0639 125.63 36.352C125.769 37.3866 126.117 38.3842 126.242 39.4418C126.39 40.698 127.215 41.0582 128.522 40.8735C131.406 40.4625 134.28 39.8944 137.112 39.3217C140.13 38.7121 143.171 38.2179 146.18 37.5713C147.552 37.2757 149.063 37.5436 150.269 36.3058C150.843 35.7147 151.043 37.1279 151.659 37.2896C152.661 37.8207 152.971 38.9384 153.718 39.6912V39.6819C153.852 40.1623 153.671 40.6426 153.718 41.1275C154.075 45.0301 153.31 45.6721 149.379 44.9562C148.391 44.7761 147.432 43.9863 146.356 44.6699L146.361 44.6745Z" fill="#FF8C8B"/>
<path d="M93.8906 23.9653C93.0701 24.1916 92.18 24.0715 91.443 24.7366C89.7926 26.2329 89.6582 27.4892 91.0443 29.997C88.3602 30.094 88.3463 27.637 87.688 26.1406C85.9357 22.1595 84.4847 18.0629 83.7569 13.7123C83.4742 12.0219 82.2503 10.4886 81.8192 8.73822C81.6291 7.97155 81.096 7.91613 80.498 8.0824C79.1676 8.45187 77.8371 8.83521 76.5252 9.26934C75.5332 9.59725 74.5921 9.87898 73.4842 9.92516C72.0193 9.9852 70.6981 10.9551 69.2239 11.3615C67.2491 11.9019 65.214 12.082 63.2624 12.6639C62.3492 12.9364 61.6955 12.5207 61.3525 11.6063C60.9863 10.6133 60.5366 9.65267 60.1936 8.65509C59.7022 7.22336 60.1518 6.64144 61.7048 6.40128C62.72 6.24425 63.7028 6.3828 64.7783 6.12417C68.0882 5.32056 71.1014 3.67177 74.4855 3.05289C76.0802 2.76193 77.7908 2.34627 79.3159 1.59346C81.7311 0.632822 83.7245 1.0023 85.2172 3.31153C85.5556 3.83341 86.2185 4.129 86.7748 4.46614C86.9463 4.84948 87.2013 5.28823 87.6185 5.23281C88.4251 5.12658 88.592 5.56534 88.7172 6.17959C89.4311 9.65729 91.1602 12.881 91.5125 16.4187C91.786 19.1482 93.288 21.402 93.886 23.9745L93.8906 23.9653Z" fill="#FF9392"/>
<path d="M146.36 44.6745C146.411 44.3466 146.55 43.954 146.916 44.0602C148.089 44.402 149.295 44.1387 150.495 44.4482C152.934 45.0855 153.754 44.305 153.402 41.7279C153.295 40.9427 153.346 40.3285 153.712 39.6865C154.417 41.0767 154.468 42.6192 154.64 44.111C155.061 47.6996 155.585 51.2696 156.392 54.7935C156.563 55.0845 156.554 55.4078 156.596 55.7311C157.124 59.6983 159.493 61.0515 163.086 59.2965C164.463 58.6268 165.761 58.3959 167.281 58.5437C169.826 58.7931 172.306 58.382 174.573 57.075C174.74 57.0981 174.902 57.1258 175.069 57.1489C176.033 57.5045 177.086 56.9734 178.036 57.4491H178.031C179.176 57.6154 179.223 58.6037 179.501 59.4166C180.331 61.6658 180.261 61.9475 178.235 62.7003C175.88 63.5778 173.405 64.0397 170.929 64.4138C169.882 64.5708 168.857 64.7509 167.842 65.0326C167.022 65.2497 166.118 65.0095 165.343 65.4806C165.186 65.5129 165.024 65.536 164.866 65.5499C162.404 65.67 159.938 65.7115 157.5 66.1272C157.356 66.1549 157.208 66.1734 157.059 66.1734C156.049 66.0779 155.047 65.3898 154.055 64.1089C153.749 64.8063 153.847 65.6977 153.045 66.1133C152.387 66.1826 152.057 65.887 152.044 65.2312C151.566 64.6447 152.081 63.8272 151.571 63.2453C151.534 63.0975 151.51 62.9451 151.506 62.7881C149.452 56.9272 149.804 50.5768 147.82 44.6976C147.334 44.6837 146.842 44.6745 146.355 44.6606L146.36 44.6745Z" fill="#FF9695"/>
<path d="M174.578 57.0843C173.753 58.4836 172.501 59.0748 170.907 59.061C170.095 59.0517 169.284 59.061 168.501 59.3981C168.153 59.5459 167.537 59.6521 167.333 59.4674C165.868 58.128 164.695 59.1903 163.369 59.7445C161.501 60.525 159.568 60.368 157.658 59.7399C157.097 59.5551 157.023 59.1118 156.866 58.6361C156.458 57.3798 156.244 56.119 156.397 54.8027C156.986 56.1144 157.538 57.4353 158.312 58.6684C158.831 59.4951 159.35 59.7168 160.314 59.5043C162.428 59.0332 164.394 58.0726 166.6 57.8832C169.256 57.6569 171.857 56.8164 174.573 57.0935L174.578 57.0843Z" fill="#FFB2B1"/>
<path d="M147.826 44.7114C149.323 47.1084 149.768 49.801 149.907 52.5397C150.065 55.611 150.468 58.613 151.789 61.4349C152.035 61.9614 151.701 62.3632 151.511 62.7973C150.287 60.3218 149.801 57.6385 149.374 54.9506C148.836 51.5421 148.34 48.1245 147.831 44.7114H147.826Z" fill="#FFBBBA"/>
<path d="M86.7769 4.45229C85.6088 5.07579 84.7002 4.18904 84.4128 3.50089C83.5645 1.46415 82.0162 1.45029 80.2779 1.60732C79.9627 1.63503 79.6382 1.59347 79.3184 1.57961C79.6614 1.03463 80.4077 1.21013 80.7786 0.812947C81.6918 -0.175404 82.35 -0.33705 83.4811 0.74367C84.1208 1.35793 85.3399 1.35331 86.0631 2.27238C86.6147 2.97439 86.8975 3.60712 86.7769 4.45229Z" fill="#FFBAB9"/>
<path d="M153.051 66.1226C153.134 65.3467 153.667 64.617 153.153 63.7718C152.953 63.4439 153.111 62.959 153.635 62.8481C153.987 62.7742 154.279 62.922 154.455 63.2268C154.743 63.7164 155.035 64.2106 155.28 64.7232C155.647 65.4991 156.129 66.1134 157.065 66.1873C155.712 67.1156 154.367 67.4389 153.051 66.1226Z" fill="#FFBBBA"/>
<path d="M157.506 66.1411C159.916 65.3929 162.308 64.3815 164.872 65.5638C163.277 66.7692 161.418 66.4783 159.638 66.3582C158.938 66.312 158.22 66.1827 157.506 66.1411Z" fill="#FFBBBA"/>
<path d="M121.277 45.0994C121.352 45.1271 121.444 45.1363 121.495 45.1871C122.121 45.7968 123.141 44.8592 123.456 45.4134C123.896 46.1847 124.239 47.1176 124.216 48.0875C122.344 47.9628 121.639 46.702 121.277 45.0994Z" fill="#FFB0B0"/>
<path d="M153.722 39.7004C152.369 39.4695 152.128 38.2871 151.664 37.2988C153.416 37.1279 153.453 37.1741 153.722 39.7004Z" fill="#FF9695"/>
<path d="M165.35 65.4945C166.105 64.9079 166.889 64.5061 167.848 65.0465C167.116 65.7485 166.207 65.4899 165.35 65.4945Z" fill="#FFBBBA"/>
<path d="M179.507 59.4305C179.015 58.7746 178.524 58.1142 178.037 57.4584C179.673 57.269 179.567 58.3636 179.507 59.4305Z" fill="#FFB2B1"/>
<path d="M178.041 57.4629C177.049 57.3983 176.001 57.8648 175.074 57.1627C176.075 57.1304 177.123 56.664 178.041 57.4629Z" fill="#FFB2B1"/>
<path d="M151.576 63.2592C152.281 63.7903 152.045 64.5431 152.049 65.2451C151.396 64.7001 151.544 63.9658 151.576 63.2592Z" fill="#FFBBBA"/>
<path d="M95.3855 24.5473C94.6067 25.1338 94.1153 24.9583 93.916 24.0023C94.3796 24.2517 94.8292 24.5473 95.3855 24.5473Z" fill="#FF9392"/>
<path d="M86.3571 47.6745C82.9498 48.3719 79.5472 49.0877 76.1399 49.7667C73.5347 50.2885 70.8367 50.4271 68.3473 51.4293C66.8638 52.0251 65.538 51.8311 64.2122 51.0829C63.5632 49.7667 62.4089 48.94 61.2732 48.0948C59.9937 45.2637 59.2103 42.2663 58.6679 39.2412C58.1997 36.6133 57.1427 34.1378 56.9341 31.4406C56.809 29.838 55.9514 29.4916 54.3103 30.0643C50.9448 31.2466 47.5282 32.1565 43.9309 32.1842C43.3468 32.1842 42.8183 32.3043 42.2991 32.5998C39.5733 34.147 36.421 34.2071 33.4959 35.0707C32.6847 35.3109 32.0913 34.752 31.4423 34.5211C30.8026 34.2902 31.0853 33.5374 31.039 32.9924C29.3052 32.0087 29.2079 30.3691 29.8893 28.9051C30.5986 27.3902 31.7761 26.0185 33.8807 26.9607L33.9085 26.9977C34.2933 27.4641 34.7012 27.8659 35.378 27.5426C38.9104 26.2772 42.6468 25.9631 46.2812 25.1734C50.407 24.2728 54.5514 23.5661 58.756 23.1597C59.8129 23.0581 60.2348 23.4553 60.8281 24.3282C63.9248 28.8866 64.9029 34.0639 65.6261 39.352C65.7652 40.3866 66.1129 41.3842 66.238 42.4418C66.3864 43.698 67.2115 44.0582 68.5188 43.8735C71.4022 43.4625 74.2764 42.8944 77.1088 42.3217C80.1267 41.7121 83.1677 41.2179 86.1763 40.5713C87.5484 40.2757 89.0597 40.5436 90.265 39.3058C90.8398 38.7147 91.0392 40.1279 91.6557 40.2896C92.657 40.8207 92.9676 41.9384 93.714 42.6912V42.6819C93.8484 43.1623 93.6676 43.6426 93.714 44.1275C94.0709 48.0301 93.306 48.6721 89.3749 47.9562C88.3875 47.7761 87.4279 46.9863 86.3524 47.6699L86.3571 47.6745Z" fill="#FF8C8B"/>
<path d="M33.8867 26.9653C33.0662 27.1916 32.1761 27.0715 31.4391 27.7366C29.7887 29.2329 29.6543 30.4892 31.0404 32.997C28.3563 33.094 28.3424 30.637 27.6841 29.1406C25.9318 25.1595 24.4808 21.0629 23.753 16.7123C23.4703 15.0219 22.2464 13.4886 21.8153 11.7382C21.6252 10.9716 21.0921 10.9161 20.4941 11.0824C19.1637 11.4519 17.8332 11.8352 16.5213 12.2693C15.5293 12.5973 14.5882 12.879 13.4803 12.9252C12.0154 12.9852 10.6942 13.9551 9.22004 14.3615C7.24522 14.9019 5.21013 15.082 3.25849 15.6639C2.34526 15.9364 1.69162 15.5207 1.34858 14.6063C0.982354 13.6133 0.532689 12.6527 0.189645 11.6551C-0.301741 10.2234 0.147924 9.64144 1.70089 9.40128C2.71611 9.24425 3.69889 9.3828 4.77438 9.12417C8.08428 8.32056 11.0975 6.67177 14.4816 6.05289C16.0763 5.76193 17.7869 5.34627 19.312 4.59346C21.7272 3.63282 23.7206 4.0023 25.2133 6.31153C25.5517 6.83341 26.2146 7.129 26.7709 7.46614C26.9424 7.84948 27.1974 8.28823 27.6146 8.23281C28.4212 8.12658 28.5881 8.56534 28.7133 9.17959C29.4272 12.6573 31.1563 15.881 31.5086 19.4187C31.7821 22.1482 33.2841 24.402 33.8821 26.9745L33.8867 26.9653Z" fill="#FF9392"/>
<path d="M86.3583 47.6745C86.4093 47.3466 86.5483 46.954 86.9146 47.0602C88.0874 47.402 89.2927 47.1387 90.4933 47.4482C92.9317 48.0855 93.7523 47.305 93.3999 44.7279C93.2933 43.9427 93.3443 43.3285 93.7105 42.6865C94.4152 44.0767 94.4662 45.6192 94.6377 47.111C95.0595 50.6996 95.5834 54.2696 96.39 57.7935C96.5615 58.0845 96.5522 58.4078 96.594 58.7311C97.1224 62.6983 99.4913 64.0515 103.084 62.2965C104.461 61.6268 105.759 61.3959 107.279 61.5437C109.824 61.7931 112.304 61.382 114.571 60.075C114.738 60.0981 114.9 60.1258 115.067 60.1489C116.032 60.5045 117.084 59.9734 118.034 60.4491H118.03C119.175 60.6154 119.221 61.6037 119.499 62.4166C120.329 64.6658 120.259 64.9475 118.234 65.7003C115.879 66.5778 113.403 67.0397 110.928 67.4138C109.88 67.5708 108.855 67.7509 107.84 68.0326C107.02 68.2497 106.116 68.0095 105.342 68.4806C105.184 68.5129 105.022 68.536 104.864 68.5499C102.403 68.67 99.9363 68.7115 97.4979 69.1272C97.3542 69.1549 97.2059 69.1734 97.0575 69.1734C96.0469 69.0779 95.0456 68.3898 94.0536 67.1089C93.7476 67.8063 93.845 68.6977 93.043 69.1133C92.3847 69.1826 92.0556 68.887 92.0417 68.2312C91.5642 67.6447 92.0788 66.8272 91.5688 66.2453C91.5317 66.0975 91.5086 65.9451 91.5039 65.7881C89.4503 59.9272 89.8026 53.5768 87.8185 47.6976C87.3318 47.6837 86.8404 47.6745 86.3536 47.6606L86.3583 47.6745Z" fill="#FF9695"/>
<path d="M114.576 60.0843C113.751 61.4836 112.499 62.0748 110.905 62.061C110.093 62.0517 109.282 62.061 108.499 62.3981C108.151 62.5459 107.534 62.6521 107.331 62.4674C105.866 61.128 104.693 62.1903 103.367 62.7445C101.499 63.525 99.566 63.368 97.6562 62.7399C97.0953 62.5551 97.0211 62.1118 96.8635 61.6361C96.4556 60.3798 96.2423 59.119 96.3953 57.8027C96.984 59.1144 97.5357 60.4353 98.3098 61.6684C98.829 62.4951 99.3482 62.7168 100.312 62.5043C102.426 62.0332 104.392 61.0726 106.598 60.8832C109.254 60.6569 111.855 59.8164 114.571 60.0935L114.576 60.0843Z" fill="#FFB2B1"/>
<path d="M87.8242 47.7114C89.3215 50.1084 89.7665 52.801 89.9056 55.5397C90.0632 58.611 90.4665 61.613 91.7876 64.4349C92.0333 64.9614 91.6995 65.3632 91.5095 65.7973C90.2857 63.3218 89.799 60.6385 89.3725 57.9506C88.8348 54.5421 88.3388 51.1245 87.8289 47.7114H87.8242Z" fill="#FFBBBA"/>
<path d="M26.775 7.45229C25.6068 8.07579 24.6983 7.18904 24.4109 6.50089C23.5626 4.46415 22.0143 4.45029 20.276 4.60732C19.9607 4.63503 19.6363 4.59347 19.3164 4.57961C19.6594 4.03463 20.4058 4.21013 20.7766 3.81295C21.6898 2.8246 22.348 2.66295 23.4791 3.74367C24.1188 4.35793 25.338 4.35331 26.0611 5.27238C26.6127 5.97439 26.8955 6.60712 26.775 7.45229Z" fill="#FFBAB9"/>
<path d="M93.0469 69.1226C93.1303 68.3467 93.6634 67.617 93.1489 66.7718C92.9495 66.4439 93.1071 65.959 93.6309 65.8481C93.9832 65.7742 94.2753 65.922 94.4514 66.2268C94.7388 66.7164 95.0309 67.2106 95.2766 67.7232C95.6428 68.4991 96.1249 69.1134 97.0612 69.1873C95.7077 70.1156 94.3634 70.4389 93.0469 69.1226Z" fill="#FFBBBA"/>
<path d="M97.5039 69.1411C99.9144 68.3929 102.306 67.3815 104.87 68.5638C103.275 69.7692 101.416 69.4783 99.6362 69.3582C98.9363 69.312 98.2178 69.1827 97.5039 69.1411Z" fill="#FFBBBA"/>
<path d="M61.2754 48.0994C61.3496 48.1271 61.4423 48.1363 61.4933 48.1871C62.1191 48.7968 63.1389 47.8592 63.4541 48.4134C63.8945 49.1847 64.2375 50.1176 64.2143 51.0875C62.3416 50.9628 61.637 49.702 61.2754 48.0994Z" fill="#FFB0B0"/>
<path d="M93.7183 42.7004C92.3648 42.4695 92.1237 41.2871 91.6602 40.2988C93.4124 40.1279 93.4495 40.1741 93.7183 42.7004Z" fill="#FF9695"/>
<path d="M105.346 68.4945C106.101 67.9079 106.885 67.5061 107.844 68.0465C107.112 68.7485 106.203 68.4899 105.346 68.4945Z" fill="#FFBBBA"/>
<path d="M119.505 62.4305C119.013 61.7746 118.522 61.1142 118.035 60.4584C119.671 60.269 119.565 61.3636 119.505 62.4305Z" fill="#FFB2B1"/>
<path d="M118.039 60.4629C117.047 60.3983 115.999 60.8648 115.072 60.1627C116.073 60.1304 117.121 59.664 118.039 60.4629Z" fill="#FFB2B1"/>
<path d="M91.5725 66.2592C92.2771 66.7903 92.0407 67.5431 92.0453 68.2451C91.3917 67.7001 91.54 66.9658 91.5725 66.2592Z" fill="#FFBBBA"/>
<path d="M35.3835 27.5473C34.6048 28.1338 34.1134 27.9583 33.9141 27.0023C34.3776 27.2517 34.8273 27.5473 35.3835 27.5473Z" fill="#FF9392"/>
</svg>
