<svg width="68" height="65" viewBox="0 0 68 65" fill="none" xmlns="http://www.w3.org/2000/svg">
<path d="M9.94076 38.5107C5.27058 38.4652 2.19386 36.3068 0.788678 32.2034C0.223848 30.5539 -0.29506 29.0044 0.196296 27.0777C1.42698 22.2746 6.51504 19.748 10.7811 20.2479C14.8773 20.7296 17.1412 22.2291 17.9632 25.9644C18.8127 29.836 17.2009 35.0481 13.5731 37.7064C12.3792 38.5788 11.0337 38.5743 9.94076 38.5152V38.5107Z" fill="#FFA7A6"/>
<path d="M33.5398 25.01C34.8026 25.0554 36.0287 25.1326 37.3053 25.4507C42.0122 26.6277 44.4644 34.0891 40.2121 38.3469C37.2824 41.2824 31.0187 42.8365 27.019 40.4736C22.831 37.9925 21.7335 32.5305 24.5944 28.6498C26.9134 25.5007 30.0039 24.8918 33.5398 25.0145V25.01Z" fill="#FFA2A1"/>
<path d="M42.2291 8.84708C42.2796 10.6011 41.6689 12.1779 40.2224 13.4457C38.8861 14.6181 37.7334 15.9768 36.2134 16.9629C33.1138 18.9714 28.2737 17.8762 26.4506 14.6908C25.9455 13.8092 25.5919 12.8459 25.0454 11.9961C23.3647 9.36511 24.2877 7.08397 25.8307 4.7892C27.392 2.46716 29.8029 1.41292 32.2596 0.495014C35.5338 -0.731895 38.5141 0.363235 40.4106 3.32145C41.4668 4.96642 42.3485 6.68863 42.2245 8.84708H42.2291Z" fill="#FFA6A6"/>
<path d="M18.9408 46.0264C14.2706 46.0719 11.1939 48.2303 9.78868 52.3337C9.22385 53.9832 8.70494 55.5327 9.1963 57.4594C10.427 62.2625 15.515 64.7891 19.7811 64.2892C23.8773 63.8075 26.1412 62.308 26.9632 58.5727C27.8127 54.7011 26.2009 49.4891 22.5731 46.8308C21.3792 45.9583 20.0337 45.9628 18.9408 46.0219V46.0264Z" fill="#FFA7A6"/>
<path d="M54.0807 55.1275C54.1312 53.3735 53.5204 51.7967 52.0739 50.5289C50.7376 49.3565 49.585 47.9978 48.065 47.0117C44.9653 45.0033 40.1252 46.0984 38.3022 49.2838C37.797 50.1654 37.4434 51.1287 36.897 51.9785C35.2163 54.6095 36.1393 56.8906 37.6822 59.1854C39.2436 61.5075 41.6544 62.5617 44.1112 63.4796C47.3854 64.7065 50.3657 63.6114 52.2622 60.6532C53.3184 59.0082 54.2001 57.286 54.0761 55.1275H54.0807Z" fill="#FFA6A6"/>
<path d="M58.5398 37.615C59.8026 37.5696 61.0287 37.4924 62.3053 37.1743C67.0122 35.9973 69.4644 28.5359 65.2121 24.2781C62.2824 21.3426 56.0187 19.7885 52.019 22.1514C47.831 24.6325 46.7335 30.0945 49.5944 33.9752C51.9134 37.1243 55.0039 37.7332 58.5398 37.6105V37.615Z" fill="#FFA2A1"/>
</svg>
