<svg width="137" height="114" viewBox="0 0 137 114" fill="none" xmlns="http://www.w3.org/2000/svg">
<path d="M31.4583 57.1335C30.1769 55.864 29.1471 54.3399 27.5822 53.3531C27.2977 53.1737 27.1929 52.7266 26.9904 52.4103C25.9287 50.7827 25.4921 48.8295 24.1452 47.3258C23.4431 46.5451 23.3343 45.3355 23.3975 44.2748C23.4796 42.904 23.1805 41.6837 22.3022 40.6656C21.4625 39.6949 21.7851 39.0654 22.7324 38.5047C23.0956 37.8926 23.491 37.3267 24.3444 37.511C24.514 37.6731 24.6324 37.8765 24.6212 38.1071C24.5795 39.2727 24.4816 40.5631 25.8653 40.9846C27.1822 41.3839 28.5791 41.4707 29.7081 40.3326C30.0044 40.0354 30.3014 39.5665 30.8329 40.0028C30.9554 40.5575 31.2555 41.0803 31.0572 41.6749C31.2482 42.4106 31.2429 43.2996 31.6713 43.859C33.4116 46.1349 34.3282 49.0343 36.9292 50.7811C38.0868 49.2975 40.0269 48.8586 41.536 47.725C42.2187 47.211 42.6806 46.7245 43.1363 45.974C44.6598 43.4709 46.0255 40.8146 48.3237 38.876C48.8925 38.3954 49.5929 38.0633 50.2524 37.6967C50.5073 37.5539 51.0296 37.574 51.0698 37.4261C51.5733 35.4942 53.5119 35.4562 54.8002 34.9671C56.9647 34.1439 59.3287 33.2049 61.7577 34.3914C62.2531 34.6358 62.5857 36.1185 63.3863 34.6144C63.5497 34.3067 63.9531 34.6492 64.1329 34.867C64.4712 35.2719 64.7466 35.7261 65.0529 36.1589C65.2723 36.4749 65.2998 37.0328 65.4662 37.1572C67.0323 38.3431 67.3876 40.1299 68.2056 41.7439C68.9359 43.1904 69.4228 44.6402 69.8638 46.139C70.3841 47.9083 71.0176 49.5363 72.6809 50.6319C74.0424 51.5315 75.4387 51.79 76.4034 50.5717C77.4177 49.2848 78.7054 48.3506 79.8897 47.3169C82.0305 45.4477 82.7448 42.7582 84.2384 40.5329C84.9497 39.4677 85.4168 38.2237 86.5746 37.5055C87.0347 37.1974 87.6709 37.3897 88.0794 37.106C89.6233 36.0225 90.5005 36.2987 92.1101 37.5802C93.7526 38.8844 96.5664 39.1525 98.7602 38.0919C101.629 36.7112 101.551 36.5422 103.944 38.8279C104.281 39.1482 104.66 39.3818 105.044 39.6231C105.267 39.8857 105.49 40.1418 105.71 40.4005C105.108 41.3438 104.095 41.5791 103.151 41.5605C100.918 41.5117 99.2737 42.385 98.1024 44.2437C97.5827 43.9477 97.5318 43.389 97.3637 42.9002C96.6234 40.6495 96.4043 40.5561 93.6959 41.3857C93.201 41.8493 92.6491 42.2555 92.5136 43.0064C92.1941 44.7591 90.809 46.0466 90.415 47.7825C90.3262 48.1811 89.9492 48.6829 89.5835 48.8225C87.7189 49.5347 87.3196 51.3371 86.4872 52.8119C86.1901 53.3381 86.0562 53.968 85.4739 54.281C83.9948 55.0795 82.6939 56.1428 81.4893 57.2706C79.6682 58.975 77.2888 58.8965 75.1517 59.5865C74.5075 59.7939 73.7957 59.6655 73.1689 60.0379C72.954 60.1643 72.3779 60.1245 72.3196 59.9994C71.6879 58.6044 70.2627 59.0114 69.2164 58.607C66.4118 57.5213 64.8596 55.2119 63.53 52.7706C62.381 50.6553 61.323 48.4654 60.6307 46.1357C60.5445 45.8471 60.426 45.5695 60.3437 45.2782C60.1093 44.4471 60.5496 43.1645 59.4593 42.9106C58.1624 42.6059 56.6497 42.451 55.5446 43.4755C54.2667 44.6541 52.8924 45.8255 52.0862 47.3792C50.8507 49.7623 48.9901 51.6484 47.4399 53.7758C46.7866 54.6694 45.9613 53.3574 45.501 54.2083C43.8405 55.0415 42.6191 56.5237 40.7537 57.1278C38.9272 57.7221 37.303 58.4843 35.661 56.7284C35.1748 56.2092 34.3716 56.6813 33.7513 56.9807C33.0058 57.3384 32.2682 57.8392 31.4568 57.1231L31.4583 57.1335Z" fill="#7ADFDC"/>
<path d="M98.1037 44.2474C98.783 41.565 99.1835 41.0642 101.509 41.0656C102.979 41.0677 104.327 40.6973 105.715 40.4015C106.257 42.1613 106.606 43.9639 107.855 45.4734C108.378 46.1038 108.759 46.5366 109.606 46.622C111.265 46.7897 112.659 46.4613 114.001 45.3582C115.616 44.0313 117.438 42.9542 119.169 41.7695C119.967 41.5292 120.587 40.8993 121.415 40.7352C122.163 40.5869 123.119 40.3007 123.485 41.0916C124.039 42.3007 124.593 42.2589 125.502 41.5701C125.939 41.2443 126.508 41.1345 126.935 41.6432C127.313 42.0889 127.339 42.6364 127.087 43.137C126.642 44.0175 126.232 44.9077 125.884 45.8293C124.661 47.8438 123.26 49.6105 121.137 50.856C120.033 51.503 119.059 52.4937 118.044 53.3355C116.474 54.6368 114.423 54.4388 112.811 55.4494C110.885 54.748 108.733 55.7454 106.883 54.751C104.713 53.5843 102.004 52.6777 100.873 50.6127C99.7945 48.6483 98.05 46.7695 98.101 44.2435L98.1037 44.2474Z" fill="#77DEDB"/>
<path d="M19.7775 34.5465C16.2626 35.6049 13.2926 37.3246 11.928 41.0026C11.6135 41.8493 11.3493 42.6782 10.2592 42.9839C9.40349 43.224 9.25658 44.2628 8.79432 44.9379C8.35603 45.5736 7.93992 45.7311 7.30513 45.2694C6.32073 44.5592 5.29189 43.9084 4.34303 43.1507C3.20255 42.2404 2.97424 41.3193 3.47153 40.0201C4.07053 38.456 4.74821 36.923 5.76265 35.5788C7.89315 32.757 10.0109 29.9498 13.1713 28.1094C15.5258 26.7372 17.9208 26.3365 20.5917 26.8924C21.9402 27.1727 23.4826 26.6957 24.4635 28.1166C25.7021 30.0155 25.7568 31.7312 24.6231 33.3067C23.6099 34.7186 21.7823 35.1879 19.7775 34.5465Z" fill="#7CDFDC"/>
<path d="M125.888 45.8333C125.692 44.6214 126.365 43.6572 126.798 42.6195C126.922 42.3217 126.846 42.0147 126.603 41.7954C126.304 41.5291 126.044 41.7552 125.801 41.9238C125.616 42.0523 125.45 42.2077 125.266 42.3466C123.831 43.4462 123.812 43.4531 123.393 41.7391C123.219 41.0266 122.771 41.0572 122.193 41.0877C121.137 41.1467 120.295 42.0972 119.164 41.7685C120.555 40.1686 121.987 38.603 123.325 36.9599C124.027 36.0953 124.875 35.2606 124.942 34.032C124.983 33.318 125.545 33.0249 126.002 32.6388C127.454 31.6195 128.807 31.4793 130.214 32.8219C132.814 35.3002 132.844 35.2684 131.61 38.3295C131.437 39.4209 130.891 40.2226 130.053 40.9816C128.476 42.4198 127.112 44.0752 125.879 45.8283L125.888 45.8333Z" fill="#90E4E2"/>
<path d="M105.047 39.6204C104.264 39.8096 103.803 39.3589 103.296 38.8427C101.519 37.0321 101.101 37.0309 99.2514 38.6122C98.9684 38.8544 98.5971 39.2493 98.3282 39.2076C96.1509 38.8688 93.9093 39.1286 91.7727 38.4702C90.7791 38.1663 90.9411 37.0998 90.2741 36.312C89.4507 38.0548 88.0308 37.8526 86.573 37.5054C86.9114 36.6764 88.0793 36.4252 88.0638 35.3335C88.0618 35.1579 88.2759 34.8492 88.4289 34.8229C90.7418 34.4107 92.6793 32.397 95.3457 33.333C96.1227 33.6046 97.0123 33.1582 98.0315 33.5073C101.27 34.6173 103.097 37.1414 105.036 39.6219L105.047 39.6204Z" fill="#8EE4E1"/>
<path d="M19.7783 34.5466C20.5374 34.7678 21.2171 34.3072 21.9619 34.2527C23.9777 34.1039 25.4651 31.6145 24.8964 29.6274C24.7515 29.1225 24.6092 28.6215 24.4643 28.1167C25.2394 28.361 25.7219 28.9571 26.145 29.5829C27.2601 31.2134 28.2477 32.9153 29.511 34.4714C30.324 35.4777 30.7378 37.0526 30.2886 38.5526C28.6514 36.1537 26.5574 36.6424 24.3854 37.6194C23.83 37.9137 23.2785 38.2052 22.7258 38.5034C22.1638 36.8715 20.3479 36.1731 19.7744 34.5493L19.7783 34.5466Z" fill="#9EE8E5"/>
<path d="M24.3839 37.6194C24.953 37.1557 25.3168 36.5032 26.1001 36.2164C27.3021 35.7758 28.3371 36.3367 29.3796 36.6123C30.1998 36.8311 29.9559 37.903 30.2833 38.5553C30.3614 38.8324 30.4357 39.1121 30.5112 39.3853C30.6522 39.4815 30.7049 39.5821 30.668 39.6934C30.6361 39.7955 30.5955 39.8522 30.5528 39.8648C30.111 40.52 30.0925 41.5382 29.0301 41.6533C27.8507 41.7811 26.6015 42.0716 25.4973 41.6331C23.9183 41.0044 23.6551 39.7534 24.3774 37.6182L24.3839 37.6194Z" fill="#65DAD6"/>
<path d="M131.615 38.3304C131.632 37.8042 131.553 37.2539 131.689 36.7593C132.022 35.5517 132.075 34.5433 130.53 34.2173C130.396 34.1899 130.226 34.0682 130.183 33.9492C129.344 31.7447 127.677 32.1993 126.011 32.637C127.026 31.5492 127.879 30.2028 129.747 30.688C130.201 30.807 130.529 30.2762 130.937 30.0902C132.423 29.4009 133.738 29.9447 134.168 31.4854C134.382 32.2623 134.191 33.1145 134.441 33.9115C134.518 34.1612 134.414 34.5875 134.036 34.6103C133.174 34.6604 133.04 35.3241 133.062 35.8977C133.11 37.0695 132.39 37.6949 131.615 38.3304Z" fill="#E2F3F2"/>
<path d="M31.457 57.1333C32.3823 57.3305 33.0042 56.7044 33.7191 56.3108C35.2687 55.4576 35.6385 55.4636 36.8308 56.7776C37.6297 57.6567 38.2883 58.1362 39.1091 56.875C41.3124 56.8645 42.7521 55.1621 44.6078 54.3877C44.8815 54.2719 45.199 54.2685 45.4986 54.2146C44.0987 55.9579 42.5839 57.4782 40.2951 58.1307C39.2116 58.4375 38.0991 58.6617 37.0144 58.9751C34.8345 59.6034 32.978 58.7561 31.4597 57.1372L31.457 57.1333Z" fill="#95E6E4"/>
<path d="M93.696 41.3855C93.84 41.2227 93.956 41.0279 94.1267 40.9036C94.9381 40.3116 95.8047 39.9555 96.7672 40.5438C97.7245 41.1243 97.5631 42.0189 97.3599 42.9026C96.3699 41.8307 95.1685 41.2769 93.6921 41.3882L93.696 41.3855Z" fill="#8EE4E1"/>
<path d="M30.5554 39.8687C30.5407 39.7076 30.5286 39.5503 30.5138 39.3892C31.2987 40.0095 31.4526 40.7823 31.0544 41.6814C30.8868 41.078 30.723 40.472 30.5554 39.8687Z" fill="#9EE8E5"/>
<path d="M31.4583 89.736C30.1769 88.4666 29.1471 86.9425 27.5822 85.9556C27.2977 85.7762 27.1929 85.3292 26.9904 85.0128C25.9287 83.3852 25.4921 81.4321 24.1452 79.9283C23.4431 79.1477 23.3343 77.938 23.3975 76.8773C23.4796 75.5066 23.1805 74.2862 22.3022 73.2681C21.4625 72.2975 21.7851 71.6679 22.7324 71.1072C23.0956 70.4951 23.491 69.9293 24.3444 70.1135C24.514 70.2756 24.6324 70.479 24.6212 70.7096C24.5795 71.8753 24.4816 73.1656 25.8653 73.5871C27.1822 73.9865 28.5791 74.0732 29.7081 72.9351C30.0044 72.638 30.3014 72.169 30.8329 72.6053C30.9554 73.1601 31.2555 73.6828 31.0572 74.2775C31.2482 75.0131 31.2429 75.9022 31.6713 76.4615C33.4116 78.7375 34.3282 81.6368 36.9292 83.3836C38.0868 81.9001 40.0269 81.4611 41.536 80.3275C42.2187 79.8135 42.6806 79.3271 43.1363 78.5766C44.6598 76.0735 46.0255 73.4172 48.3237 71.4786C48.8925 70.9979 49.5929 70.6658 50.2524 70.2993C50.5073 70.1565 51.0296 70.1765 51.0698 70.0287C51.5733 68.0968 53.5119 68.0587 54.8002 67.5697C56.9647 66.7464 59.3287 65.8074 61.7577 66.994C62.2531 67.2384 62.5857 68.721 63.3863 67.2169C63.5497 66.9092 63.9531 67.2517 64.1329 67.4696C64.4712 67.8744 64.7466 68.3286 65.0529 68.7615C65.2723 69.0775 65.2998 69.6353 65.4662 69.7597C67.0323 70.9457 67.3876 72.7324 68.2056 74.3465C68.9359 75.7929 69.4228 77.2427 69.8638 78.7416C70.3841 80.5109 71.0176 82.1388 72.6809 83.2344C74.0424 84.134 75.4387 84.3926 76.4034 83.1743C77.4177 81.8874 78.7054 80.9532 79.8897 79.9194C82.0305 78.0502 82.7448 75.3607 84.2384 73.1354C84.9497 72.0703 85.4168 70.8263 86.5746 70.108C87.0347 69.7999 87.6709 69.9922 88.0794 69.7085C89.6233 68.625 90.5005 68.9013 92.1101 70.1827C93.7526 71.4869 96.5664 71.7551 98.7602 70.6944C101.629 69.3138 101.551 69.1447 103.944 71.4304C104.281 71.7507 104.66 71.9843 105.044 72.2256C105.267 72.4882 105.49 72.7443 105.71 73.003C105.108 73.9464 104.095 74.1816 103.151 74.1631C100.918 74.1143 99.2737 74.9875 98.1024 76.8462C97.5827 76.5502 97.5318 75.9915 97.3637 75.5027C96.6234 73.2521 96.4043 73.1586 93.6959 73.9883C93.201 74.4519 92.6491 74.858 92.5136 75.609C92.1941 77.3617 90.809 78.6491 90.415 80.385C90.3262 80.7837 89.9492 81.2854 89.5835 81.4251C87.7189 82.1372 87.3196 83.9396 86.4872 85.4144C86.1901 85.9407 86.0562 86.5705 85.4739 86.8835C83.9948 87.6821 82.6939 88.7453 81.4893 89.8732C79.6682 91.5776 77.2888 91.499 75.1517 92.189C74.5075 92.3964 73.7957 92.2681 73.1689 92.6405C72.954 92.7669 72.3779 92.7271 72.3196 92.6019C71.6879 91.2069 70.2627 91.614 69.2164 91.2095C66.4118 90.1238 64.8596 87.8144 63.53 85.3732C62.381 83.2578 61.323 81.0679 60.6307 78.7382C60.5445 78.4496 60.426 78.1721 60.3437 77.8808C60.1093 77.0496 60.5496 75.7671 59.4593 75.5131C58.1624 75.2084 56.6497 75.0536 55.5446 76.078C54.2667 77.2567 52.8924 78.4281 52.0862 79.9818C50.8507 82.3649 48.9901 84.2509 47.4399 86.3784C46.7866 87.2719 45.9613 85.96 45.501 86.8108C43.8405 87.644 42.6191 89.1262 40.7537 89.7303C38.9272 90.3246 37.303 91.0868 35.661 89.331C35.1748 88.8118 34.3716 89.2838 33.7513 89.5832C33.0058 89.941 32.2682 90.4417 31.4568 89.7256L31.4583 89.736Z" fill="#7ADFDC"/>
<path d="M98.1037 76.8504C98.783 74.1681 99.1835 73.6672 101.509 73.6687C102.979 73.6707 104.327 73.3003 105.715 73.0046C106.257 74.7644 106.606 76.5669 107.855 78.0764C108.378 78.7069 108.759 79.1396 109.606 79.225C111.265 79.3927 112.659 79.0643 114.001 77.9612C115.616 76.6343 117.438 75.5572 119.169 74.3726C119.967 74.1323 120.587 73.5023 121.415 73.3382C122.163 73.19 123.119 72.9038 123.485 73.6947C124.039 74.9037 124.593 74.862 125.502 74.1731C125.939 73.8473 126.508 73.7376 126.935 74.2462C127.313 74.6919 127.339 75.2394 127.087 75.7401C126.642 76.6205 126.232 77.5108 125.884 78.4323C124.661 80.4469 123.26 82.2136 121.137 83.459C120.033 84.106 119.059 85.0967 118.044 85.9385C116.474 87.2399 114.423 87.0419 112.811 88.0525C110.885 87.351 108.733 88.3484 106.883 87.354C104.713 86.1873 102.004 85.2807 100.873 83.2158C99.7945 81.2514 98.05 79.3725 98.101 76.8465L98.1037 76.8504Z" fill="#77DEDB"/>
<path d="M19.7775 67.1493C16.2626 68.2077 13.2926 69.9274 11.928 73.6053C11.6135 74.4521 11.3493 75.281 10.2592 75.5867C9.40349 75.8268 9.25658 76.8656 8.79432 77.5407C8.35603 78.1764 7.93992 78.3339 7.30513 77.8722C6.32073 77.162 5.29189 76.5112 4.34303 75.7535C3.20255 74.8432 2.97424 73.9221 3.47153 72.6229C4.07053 71.0588 4.74821 69.5258 5.76265 68.1816C7.89315 65.3598 10.0109 62.5526 13.1713 60.7122C15.5258 59.34 17.9208 58.9393 20.5917 59.4952C21.9402 59.7755 23.4826 59.2985 24.4635 60.7194C25.7021 62.6183 25.7568 64.334 24.6231 65.9095C23.6099 67.3214 21.7823 67.7907 19.7775 67.1493Z" fill="#7CDFDC"/>
<path d="M125.888 78.4361C125.692 77.2242 126.365 76.26 126.798 75.2223C126.922 74.9245 126.846 74.6174 126.603 74.3982C126.304 74.1318 126.044 74.358 125.801 74.5266C125.616 74.6551 125.45 74.8105 125.266 74.9493C123.831 76.049 123.812 76.0559 123.393 74.3419C123.219 73.6294 122.771 73.66 122.193 73.6904C121.137 73.7495 120.295 74.7 119.164 74.3713C120.555 72.7714 121.987 71.2058 123.325 69.5626C124.027 68.6981 124.875 67.8634 124.942 66.6348C124.983 65.9208 125.545 65.6277 126.002 65.2416C127.454 64.2223 128.807 64.0821 130.214 65.4247C132.814 67.9029 132.844 67.8711 131.61 70.9323C131.437 72.0237 130.891 72.8253 130.053 73.5844C128.476 75.0226 127.112 76.6779 125.879 78.4311L125.888 78.4361Z" fill="#90E4E2"/>
<path d="M105.047 72.2231C104.264 72.4124 103.803 71.9617 103.296 71.4455C101.519 69.6349 101.101 69.6337 99.2514 71.215C98.9684 71.4572 98.5971 71.8521 98.3282 71.8104C96.1509 71.4716 93.9093 71.7314 91.7727 71.073C90.7791 70.769 90.9411 69.7026 90.2741 68.9148C89.4507 70.6576 88.0308 70.4554 86.573 70.1082C86.9114 69.2792 88.0793 69.028 88.0638 67.9363C88.0618 67.7606 88.2759 67.452 88.4289 67.4257C90.7418 67.0135 92.6793 64.9998 95.3457 65.9358C96.1227 66.2074 97.0123 65.761 98.0315 66.11C101.27 67.22 103.097 69.7442 105.036 72.2246L105.047 72.2231Z" fill="#8EE4E1"/>
<path d="M19.7783 67.1494C20.5374 67.3706 21.2171 66.9099 21.9619 66.8555C23.9777 66.7066 25.4651 64.2173 24.8964 62.2302C24.7515 61.7253 24.6092 61.2243 24.4643 60.7195C25.2394 60.9638 25.7219 61.5599 26.145 62.1857C27.2601 63.8162 28.2477 65.5181 29.511 67.0742C30.324 68.0805 30.7378 69.6553 30.2886 71.1554C28.6514 68.7565 26.5574 69.2452 24.3854 70.2222C23.83 70.5164 23.2785 70.808 22.7258 71.1061C22.1638 69.4743 20.3479 68.7759 19.7744 67.152L19.7783 67.1494Z" fill="#9EE8E5"/>
<path d="M24.3839 70.2222C24.953 69.7585 25.3168 69.106 26.1001 68.8191C27.3021 68.3786 28.3371 68.9394 29.3796 69.2151C30.1998 69.4339 29.9559 70.5057 30.2833 71.1581C30.3614 71.4352 30.4357 71.7149 30.5112 71.9881C30.6522 72.0843 30.7049 72.1848 30.668 72.2962C30.6361 72.3983 30.5955 72.455 30.5528 72.4676C30.111 73.1228 30.0925 74.1409 29.0301 74.2561C27.8507 74.3839 26.6015 74.6744 25.4973 74.2358C23.9183 73.6072 23.6551 72.3562 24.3774 70.221L24.3839 70.2222Z" fill="#65DAD6"/>
<path d="M131.615 70.9334C131.632 70.4073 131.553 69.8569 131.689 69.3624C132.022 68.1547 132.075 67.1463 130.53 66.8203C130.396 66.7929 130.226 66.6712 130.183 66.5522C129.344 64.3477 127.677 64.8023 126.011 65.24C127.026 64.1522 127.879 62.8059 129.747 63.2911C130.201 63.41 130.529 62.8793 130.937 62.6932C132.423 62.0039 133.738 62.5477 134.168 64.0884C134.382 64.8653 134.191 65.7175 134.441 66.5145C134.518 66.7642 134.414 67.1905 134.036 67.2133C133.174 67.2635 133.04 67.9272 133.062 68.5007C133.11 69.6725 132.39 70.2979 131.615 70.9334Z" fill="#E2F3F2"/>
<path d="M31.457 89.7363C32.3823 89.9335 33.0042 89.3074 33.7191 88.9138C35.2687 88.0606 35.6385 88.0666 36.8308 89.3807C37.6297 90.2597 38.2883 90.7392 39.1091 89.4781C41.3124 89.4675 42.7521 87.7652 44.6078 86.9907C44.8815 86.8749 45.199 86.8715 45.4986 86.8177C44.0987 88.5609 42.5839 90.0812 40.2951 90.7337C39.2116 91.0406 38.0991 91.2647 37.0144 91.5781C34.8345 92.2064 32.978 91.3591 31.4597 89.7402L31.457 89.7363Z" fill="#95E6E4"/>
<path d="M93.696 73.9883C93.84 73.8255 93.956 73.6307 94.1267 73.5064C94.9381 72.9144 95.8047 72.5583 96.7672 73.1466C97.7245 73.7271 97.5631 74.6217 97.3599 75.5054C96.3699 74.4335 95.1685 73.8797 93.6921 73.991L93.696 73.9883Z" fill="#8EE4E1"/>
<path d="M30.5554 72.4714C30.5407 72.3103 30.5286 72.1531 30.5138 71.992C31.2987 72.6122 31.4526 73.385 31.0544 74.2841C30.8868 73.6808 30.723 73.0748 30.5554 72.4714Z" fill="#9EE8E5"/>
</svg>
