<svg width="90" height="90" viewBox="0 0 90 90" fill="none" xmlns="http://www.w3.org/2000/svg">
<g clip-path="url(#clip0_63_9977)">
<path d="M4.45272 45.9859C-1.7733 41.0201 -0.564449 33.0422 2.58037 26.4844C4.30729 22.8754 5.8797 19.2392 9.91525 17.3216C21.6492 11.7588 28.0661 13.5407 35.1102 23.1558C36.3645 24.8653 37.5097 27.0543 36.1918 29.4422C35.9827 29.8131 35.8464 30.3558 35.9554 30.7447C37.7187 36.8322 36.9643 40.1608 33.6196 45.6784C30.6929 50.5086 26.0393 51.9648 21.0948 52.9327C14.0144 54.3256 8.52462 51.5849 4.46181 45.9859H4.45272Z" fill="#4ED4D0"/>
<path d="M53.6807 25.4985C50.6995 21.7538 50.136 17.6744 51.9992 13.2784C52.8173 11.3518 53.5626 9.37993 54.5078 7.51662C57.1073 2.41511 61.3519 -0.198963 67.078 0.00907763C73.304 0.244254 79.4028 1.03119 83.6838 6.39501C86.7286 8.48446 84.22 10.0221 82.7839 10.5377C78.9029 11.9216 77.5304 15.992 74.113 17.8191C72.4497 18.7056 73.0223 20.1347 74.1039 21.4463C75.3127 22.9116 74.9582 24.7297 73.0495 24.3769C70.7954 23.9608 69.932 23.3277 70.032 26.4392C70.0774 27.8231 68.2687 30.0754 66.0509 29.994C63.6423 29.9036 64.7149 27.5156 63.9423 25.8875C62.1154 28.185 59.6341 28.99 56.9255 28.7096C55.1622 28.5287 54.3079 27.0272 53.6989 25.4895L53.6807 25.4985Z" fill="#55D6D2"/>
<path d="M53.6816 25.4985C55.5176 28.601 58.2807 27.5789 60.962 27.1809C62.489 26.9548 61.9163 25.7518 62.2435 24.983C62.6344 24.0603 63.0434 23.1287 64.2977 23.4995C65.3247 23.8071 65.8428 24.594 65.8428 25.6794C65.8428 25.8423 65.8065 25.996 65.8156 26.1588C65.8246 27.2624 64.0977 28.8995 66.0064 29.3066C67.5243 29.6322 67.4698 26.9548 69.1603 26.2583C70.551 25.6885 69.433 24.3588 68.6423 23.5357C68.0333 22.9026 66.8154 22.8392 66.7426 21.2473C69.0331 21.2835 70.7146 22.197 72.2506 23.6533C72.7142 24.0875 73.514 23.988 73.8957 23.2915C74.1502 22.8121 73.8594 22.387 73.4504 22.0975C72.9232 21.7357 72.2506 21.5005 71.8507 21.0392C70.7237 19.7277 70.4419 19.1578 72.2688 17.4664C74.4138 15.4855 78.3312 14.8975 78.6311 10.9719C78.7311 9.60607 80.1763 10.3478 81.0307 10.1488C83.0212 9.68748 84.9026 9.11763 83.6847 6.39502C90.656 11.3428 92.0103 19.3206 87.0022 25.9779C86.1296 27.1357 85.0571 28.1578 84.2846 29.3699C79.5855 36.7598 67.9515 37.8181 61.371 33.0513C58.4534 30.9347 54.5815 29.6865 53.6907 25.4985H53.6816Z" fill="#69DBD8"/>
<path d="M62.7069 88.1457C61.3435 89.412 59.7257 89.8914 57.8624 89.9728C49.8822 90.3527 44.3833 86.2372 42.6564 78.4673C42.5564 77.997 42.4928 77.4995 42.3019 77.0653C37.412 65.8673 47.4372 56.5507 57.3443 56.2884C63.1523 56.1346 68.124 59.1015 71.396 64.2301C71.9414 65.5598 71.087 67.0884 72.105 68.4181C72.723 69.214 73.841 70.2271 72.5231 71.3125C71.4597 72.1899 70.4144 71.3487 69.351 71.0683C66.7152 70.3809 66.4698 67.8663 65.1064 65.4965C65.2064 67.6221 64.6156 68.997 63.9612 70.4442C62.5251 73.61 62.007 76.4955 65.2155 79.5166C68.8329 82.9176 67.9876 84.9346 62.6978 88.1457H62.7069Z" fill="#50D5D1"/>
<path d="M62.7069 88.1456C63.1977 87.7296 63.6976 87.3225 64.1702 86.8884C66.906 84.4009 66.7788 80.7919 63.3613 79.2994C61.0527 78.2954 60.6982 76.9477 61.4071 75.3376C62.4342 73.0039 60.9799 69.9195 64.0248 68.1105C65.0973 67.4683 63.1704 65.623 63.534 63.9858C65.7244 64.3296 67.6331 64.619 67.4786 67.6039C67.3241 70.6793 71.1143 68.7165 71.8959 71.1225C70.9688 68.6441 69.5509 66.5637 71.3869 64.2391C77.5766 75.0843 71.496 83.3878 64.5156 87.7296C63.943 88.0823 63.3613 88.2723 62.6887 88.1456H62.7069Z" fill="#69DBD7"/>
</g>
<defs>
<clipPath id="clip0_63_9977">
<rect width="90" height="90" fill="white"/>
</clipPath>
</defs>
</svg>
