<svg width="195" height="86" viewBox="0 0 195 86" fill="none" xmlns="http://www.w3.org/2000/svg">
<path d="M47.2398 54.0594H4.12219C3.0242 54.0594 2.17233 51.9851 2.71963 51.0332C6.39639 44.6385 8.41413 31.8564 24.7383 31.8564C41.4706 31.8564 43.9259 44.8788 48.4049 51.312C49.0244 52.2018 48.324 54.0594 47.2398 54.0594Z" fill="#579ED7"/>
<path d="M85.8531 85.9156H42.7355C41.6375 85.9156 40.7856 83.8413 41.3329 82.8894C45.0097 76.4947 47.0274 63.7126 63.3516 63.7126C80.0839 63.7126 82.5392 76.735 87.0182 83.1682C87.6377 84.058 86.9373 85.9156 85.8531 85.9156Z" fill="#F4F4ED"/>
<path d="M85.8531 22.2029H42.7355C41.6375 22.2029 40.7856 20.1286 41.3329 19.1768C45.0097 12.7821 47.0274 0 63.3516 0C80.0839 0 82.5392 13.0224 87.0182 19.4556C87.6377 20.3453 86.9373 22.2029 85.8531 22.2029Z" fill="#F4F4ED"/>
<path d="M147.76 54.0594H190.878C191.976 54.0594 192.828 51.9851 192.28 51.0332C188.604 44.6385 186.586 31.8564 170.262 31.8564C153.529 31.8564 151.074 44.8788 146.595 51.312C145.976 52.2018 146.676 54.0594 147.76 54.0594Z" fill="#579ED7"/>
<path d="M109.147 85.9156H152.265C153.363 85.9156 154.214 83.8413 153.667 82.8894C149.99 76.4947 147.973 63.7126 131.648 63.7126C114.916 63.7126 112.461 76.735 107.982 83.1682C107.362 84.058 108.063 85.9156 109.147 85.9156Z" fill="#F4F4ED"/>
<path d="M109.147 22.2029H152.265C153.363 22.2029 154.214 20.1286 153.667 19.1768C149.99 12.7821 147.973 0 131.648 0C114.916 0 112.461 13.0224 107.982 19.4556C107.362 20.3453 108.063 22.2029 109.147 22.2029Z" fill="#F4F4ED"/>
</svg>
