<svg width="120" height="123" viewBox="0 0 120 123" fill="none" xmlns="http://www.w3.org/2000/svg">
<path d="M99.1285 86.138L96.0074 67.8851C95.8596 67.0163 94.9272 66.5245 94.1263 66.8912L76.8141 74.8001C75.7912 75.2671 75.763 76.7104 76.7654 77.2166L80.7974 79.2584C81.5159 79.6215 81.7604 80.5344 81.3061 81.1997C81.0967 81.5078 80.9193 81.8497 80.7817 82.2215C80.3652 83.3599 79.8857 84.4709 79.3478 85.5541C78.2078 87.6176 76.8469 89.5477 75.2855 91.312C73.6531 93.0041 71.8406 94.5113 69.8788 95.8096C67.9001 97.0023 65.8031 97.9797 63.6171 98.7281C61.3611 99.3958 59.0428 99.8155 56.6948 99.977C55.5235 100.008 54.3532 99.9752 53.1886 99.8782C52.3118 99.8043 51.7489 98.9102 52.0499 98.0832L62.6165 69.0516C62.87 68.3553 63.6391 67.9968 64.3356 68.2504L72.1931 71.1103C72.8897 71.3638 73.6588 71.0053 73.9122 70.309L76.2152 63.9815C76.4687 63.2852 76.11 62.5162 75.4134 62.2627L67.5559 59.4028C66.8593 59.1493 66.5006 58.3803 66.754 57.684L68.5104 52.8584C68.7042 52.3259 69.2123 51.9741 69.7791 51.9771C77.4432 52.0232 84.659 47.327 87.4622 39.7347C91.0241 30.0881 86.0622 19.2786 76.4228 15.6928C66.6669 12.0624 55.8404 17.0746 52.2879 26.8351C49.5056 34.4792 52.0148 42.7569 57.9419 47.6665C58.3768 48.0258 58.5313 48.6211 58.3382 49.1516L56.5826 53.9752C56.3291 54.6716 55.5601 55.03 54.8635 54.7765L47.006 51.9166C46.3094 51.6631 45.5403 52.0215 45.2869 52.7179L42.9839 59.0454C42.7304 59.7417 43.0892 60.5107 43.7857 60.7642L51.6432 63.6241C52.3398 63.8776 52.6985 64.6466 52.4451 65.3429L41.8785 94.3745C41.5775 95.2015 40.5716 95.5246 39.8523 95.0176C38.8979 94.3433 37.9804 93.6161 37.103 92.8396C35.4081 91.2066 33.902 89.3949 32.6029 87.4333C31.4094 85.4548 30.4313 83.3582 29.6822 81.1726C29.0139 78.917 28.5935 76.5993 28.4314 74.2519C28.3694 71.8967 28.5675 69.5434 29.0206 67.2299C29.3055 66.0524 29.6543 64.8938 30.0643 63.7552C30.1949 63.3963 30.2741 63.0209 30.3088 62.6403C30.3806 61.8359 31.1607 61.2893 31.9492 61.4725L36.3601 62.5036C37.456 62.7589 38.3595 61.6365 37.8761 60.6211L29.6978 43.4345C29.3201 42.6388 28.289 42.4181 27.6179 42.9868L13.4922 54.969C12.6517 55.6814 12.9811 57.0471 14.0561 57.2992L20.3102 58.7604C21.096 58.9448 21.5253 59.7748 21.2491 60.5335C21.247 60.5394 21.2456 60.5433 21.2435 60.5491C18.7564 67.4369 18.3049 75.1673 20.2647 82.2467C20.7934 84.1576 21.4288 86.0544 22.2386 87.8667C23.0311 89.6418 24.01 91.2991 25.0538 92.9359C27.0016 95.9929 29.4552 98.6376 32.2166 100.977C37.8928 105.786 45.3001 108.705 52.704 109.26C59.8648 109.796 67.3203 108.169 73.5191 104.519C75.21 103.522 76.8605 102.442 78.3865 101.206C79.9332 99.9551 81.3148 98.545 82.6534 97.0773C85.1558 94.3302 87.1037 91.1581 88.6458 87.7831C88.9972 87.0119 89.3161 86.2268 89.6085 85.4297L89.6141 85.4141C89.8903 84.6554 90.7495 84.2922 91.4719 84.6567L97.2041 87.5581C98.1876 88.0553 99.3197 87.2215 99.1338 86.1355L99.1285 86.138ZM61.3772 30.457C62.9924 25.5336 68.4178 23.0065 73.2273 24.9337C77.5839 26.6785 79.8679 31.5742 78.4046 36.0315C76.7901 40.9529 71.3641 43.482 66.5546 41.5548C62.1979 39.81 59.914 34.9143 61.3772 30.457Z" fill="#FCDCA2"/>
<g style="mix-blend-mode:multiply" opacity="0.18">
<path d="M99.1274 86.1389L96.0062 67.886C95.8585 67.0171 94.926 66.5253 94.1252 66.8921L76.8129 74.8009C75.79 75.2679 75.7619 76.7112 76.7642 77.2174L80.7962 79.2592C81.5147 79.6224 81.7592 80.5353 81.305 81.2005C81.0956 81.5086 80.9181 81.8505 80.7806 82.2223C80.364 83.3607 79.8845 84.4718 79.3466 85.555C78.2067 87.6185 76.8457 89.5485 75.2843 91.3128C73.652 93.0049 71.8394 94.5122 69.8776 95.8104C67.8989 97.0032 65.8019 97.9805 63.6159 98.729C61.3599 99.3966 59.0416 99.8164 56.6936 99.9778C55.5223 100.009 54.352 99.976 53.1874 99.8791C52.3106 99.8051 51.7477 98.911 52.0487 98.084L62.6154 69.0524C62.8688 68.3561 63.6379 67.9977 64.3345 68.2512L72.1919 71.1111C72.8885 71.3646 73.6576 71.0062 73.911 70.3098L76.2141 63.9823C76.4675 63.286 76.1088 62.517 75.4122 62.2635L67.5547 59.4036C66.8581 59.1501 66.4994 58.3811 66.7528 57.6848L68.5092 52.8592C68.703 52.3267 69.2111 51.9749 69.7779 51.978C77.442 52.024 84.6579 47.3278 87.461 39.7355C91.0229 30.0889 86.061 19.2794 76.4216 15.6936C76.3786 15.678 76.3357 15.6624 76.2947 15.6475L72.9524 24.8305C73.0441 24.8639 73.1358 24.8973 73.2275 24.9307C77.5842 26.6754 79.8681 31.5711 78.4048 36.0284C76.8198 40.8568 71.5687 43.3788 66.8292 41.6538L42.9861 107.162C46.1231 108.299 49.4142 109.014 52.7029 109.261C59.8636 109.797 67.3191 108.17 73.5179 104.52C75.2088 103.523 76.8593 102.442 78.3853 101.206C79.932 99.9559 81.3156 98.5466 82.6522 97.0782C85.1547 94.331 87.1025 91.1589 88.6447 87.7839C88.996 87.0128 89.3157 86.2257 89.6073 85.4306C89.6094 85.4247 89.6108 85.4208 89.613 85.415C89.8891 84.6562 90.7483 84.293 91.4708 84.6576L97.2029 87.559C98.1865 88.0561 99.3186 87.2223 99.1327 86.1364L99.1274 86.1389Z" fill="#FCDCA2"/>
</g>
<g style="mix-blend-mode:screen" opacity="0.6">
<path d="M52.6125 38.8526C53.5265 35.4367 53.9095 31.7922 55.7255 28.7577C59.5555 22.3631 68.691 20.3094 73.1341 14.7984C64.3452 13.2407 55.445 18.1633 52.288 26.8372C50.714 31.1615 50.8345 35.6873 52.3072 39.6913C52.4457 39.4324 52.5365 39.1342 52.6125 38.8526Z" fill="#FCDCA2"/>
</g>
<g style="mix-blend-mode:screen" opacity="0.6">
<path d="M32.1905 48.6782L29.6978 43.4393C29.3201 42.6436 28.2889 42.4229 27.6179 42.9915L13.4936 54.9698C12.6531 55.6822 12.9825 57.0479 14.0575 57.3L16.0064 57.7553C18.3387 56.2407 20.1549 53.9705 22.5551 52.5424C25.5188 50.7804 29.2811 50.3517 32.1905 48.6782Z" fill="#FCDCA2"/>
</g>
<g style="mix-blend-mode:screen" opacity="0.6">
<path d="M51.8007 53.6646L47.0066 51.9197C46.31 51.6662 45.5409 52.0246 45.2875 52.721L42.9845 59.0485C42.731 59.7448 43.0897 60.5137 43.7863 60.7673L45.3453 61.3347C45.9929 59.938 46.5135 58.3802 47.4521 57.1977C48.6159 55.7305 50.3976 54.8968 51.8007 53.6646Z" fill="#FCDCA2"/>
</g>
</svg>
