<svg preserveAspectRatio="none" width="311" height="81" viewBox="0 0 311 81" fill="none" xmlns="http://www.w3.org/2000/svg">
<path d="M14.5381 8.24023H303.547C305.219 8.24027 306.81 9.14202 308.017 10.751C309.224 12.3603 310 14.6292 310 17.1768V55.6367C310 58.1843 309.224 60.4532 308.017 62.0625C306.81 63.6715 305.219 64.5732 303.547 64.5732H167.367L167.068 65.0039C162.424 71.7149 156.82 76.5883 150.091 79.3721C152.731 75.4896 154.588 70.8969 155.053 65.6621L155.149 64.5732H14.5381C12.866 64.5732 11.2753 63.6715 10.0684 62.0625C8.86124 60.4532 8.08496 58.1843 8.08496 55.6367V17.1768C8.08496 14.6292 8.86124 12.3603 10.0684 10.751C11.2753 9.14202 12.866 8.24027 14.5381 8.24023Z" fill="#579ED7" stroke="#579ED7" stroke-width="2"/>
<path d="M297.462 1H8.45321C4.33803 1 1 5.4502 1 10.9365V49.3967C1 54.883 4.33803 59.3332 8.45321 59.3332H147.972C147.471 64.9818 145.289 69.8626 142.232 73.8884C141.96 74.2442 142.222 74.8683 142.592 74.7435C150.34 72.0284 156.67 66.7543 161.806 59.3332H297.462C301.577 59.3332 304.915 54.883 304.915 49.3967V10.9365C304.915 5.4502 301.577 1 297.462 1Z" fill="white"/>
<path d="M147.971 59.3332C147.47 64.9818 145.288 69.8626 142.231 73.8884C141.96 74.2442 142.222 74.8683 142.592 74.7435C150.34 72.0284 156.669 66.7544 161.805 59.3332H297.461C301.576 59.3332 304.914 54.883 304.914 49.3967V10.9365C304.914 5.4502 301.576 1 297.461 1H289.001" stroke="#579ED7" stroke-width="2" stroke-miterlimit="10" stroke-linecap="round"/>
<path d="M1 49.396C1 54.8823 4.33803 59.3325 8.45321 59.3325H131.932" stroke="#579ED7" stroke-width="2" stroke-miterlimit="10" stroke-linecap="round"/>
<path d="M244.531 1H8.45321C4.33803 1 1 5.4502 1 10.9365V33.0065" stroke="#579ED7" stroke-width="2" stroke-miterlimit="10" stroke-linecap="round"/>
<path d="M271.787 1H264.254" stroke="#579ED7" stroke-width="2" stroke-miterlimit="10" stroke-linecap="round"/>
</svg>
