<svg width="80" height="80" viewBox="0 0 80 80" fill="none" xmlns="http://www.w3.org/2000/svg">
<circle cx="40" cy="40" r="40" fill="#313131"/>
<path d="M25 38L39.7059 23L55 38" stroke="white" stroke-width="3"/>
<path d="M14.2944 47.718C15.4991 47.718 16.3744 47.9693 16.9204 48.472C17.4751 48.966 17.7524 49.6593 17.7524 50.552C17.7524 51.0807 17.6397 51.5747 17.4144 52.034C17.1891 52.4933 16.8077 52.866 16.2704 53.152C15.7417 53.438 15.0224 53.581 14.1124 53.581H13.1894V57H11.5254V47.718H14.2944ZM14.1904 49.096H13.1894V52.203H13.9434C14.6194 52.203 15.1394 52.0817 15.5034 51.839C15.8761 51.5877 16.0624 51.1803 16.0624 50.617C16.0624 50.1057 15.9107 49.7243 15.6074 49.473C15.3041 49.2217 14.8317 49.096 14.1904 49.096ZM24.6598 57L23.8148 54.543H20.3178L19.4858 57H17.7178L21.1238 47.679H23.0218L26.4278 57H24.6598ZM23.3858 53.113L22.5798 50.721C22.5451 50.6083 22.4931 50.448 22.4238 50.24C22.3544 50.0233 22.2894 49.8067 22.2288 49.59C22.1681 49.3647 22.1161 49.1783 22.0728 49.031C22.0294 49.213 21.9731 49.4167 21.9038 49.642C21.8431 49.8673 21.7824 50.0797 21.7218 50.279C21.6698 50.4783 21.6264 50.6257 21.5918 50.721L20.7728 53.113H23.3858ZM31.0995 51.904H34.6095V56.623C34.1155 56.7877 33.6085 56.9133 33.0885 57C32.5685 57.0867 31.9792 57.13 31.3205 57.13C29.9165 57.13 28.8375 56.714 28.0835 55.882C27.3295 55.05 26.9525 53.8713 26.9525 52.346C26.9525 51.3753 27.1389 50.5347 27.5115 49.824C27.8929 49.1133 28.4432 48.563 29.1625 48.173C29.8819 47.783 30.7572 47.588 31.7885 47.588C32.2999 47.588 32.7895 47.64 33.2575 47.744C33.7255 47.848 34.1545 47.9823 34.5445 48.147L33.9725 49.512C33.6692 49.3733 33.3269 49.252 32.9455 49.148C32.5642 49.044 32.1655 48.992 31.7495 48.992C31.1169 48.992 30.5709 49.1307 30.1115 49.408C29.6522 49.6853 29.2969 50.0797 29.0455 50.591C28.8029 51.0937 28.6815 51.6873 28.6815 52.372C28.6815 53.0307 28.7769 53.6113 28.9675 54.114C29.1582 54.6167 29.4615 55.011 29.8775 55.297C30.2935 55.583 30.8352 55.726 31.5025 55.726C31.8319 55.726 32.1092 55.7087 32.3345 55.674C32.5685 55.6393 32.7809 55.6003 32.9715 55.557V53.321H31.0995V51.904ZM42.1051 57H36.8271V47.718H42.1051V49.109H38.4911V51.475H41.8711V52.866H38.4911V55.596H42.1051V57ZM49.7411 57H48.0771V49.122H45.4121V47.718H52.4061V49.122H49.7411V57ZM61.8673 52.346C61.8673 53.308 61.7069 54.1487 61.3863 54.868C61.0743 55.5787 60.5933 56.1333 59.9433 56.532C59.2933 56.9307 58.4786 57.13 57.4993 57.13C56.5026 57.13 55.6836 56.9307 55.0423 56.532C54.4009 56.1333 53.9199 55.5743 53.5993 54.855C53.2873 54.1357 53.1313 53.295 53.1313 52.333C53.1313 51.3797 53.2873 50.5477 53.5993 49.837C53.9199 49.1177 54.4009 48.563 55.0423 48.173C55.6923 47.7743 56.5156 47.575 57.5123 47.575C58.4916 47.575 59.3019 47.7743 59.9433 48.173C60.5933 48.563 61.0743 49.1177 61.3863 49.837C61.7069 50.5477 61.8673 51.384 61.8673 52.346ZM54.8863 52.346C54.8863 53.3947 55.0943 54.218 55.5103 54.816C55.9349 55.414 56.5979 55.713 57.4993 55.713C58.4266 55.713 59.0939 55.414 59.5013 54.816C59.9086 54.218 60.1123 53.3947 60.1123 52.346C60.1123 51.2973 59.9086 50.474 59.5013 49.876C59.0939 49.278 58.4309 48.979 57.5123 48.979C56.6023 48.979 55.9349 49.278 55.5103 49.876C55.0943 50.474 54.8863 51.2973 54.8863 52.346ZM66.6128 47.718C67.8175 47.718 68.6928 47.9693 69.2388 48.472C69.7935 48.966 70.0708 49.6593 70.0708 50.552C70.0708 51.0807 69.9581 51.5747 69.7328 52.034C69.5075 52.4933 69.1261 52.866 68.5888 53.152C68.0601 53.438 67.3408 53.581 66.4308 53.581H65.5078V57H63.8438V47.718H66.6128ZM66.5088 49.096H65.5078V52.203H66.2618C66.9378 52.203 67.4578 52.0817 67.8218 51.839C68.1945 51.5877 68.3808 51.1803 68.3808 50.617C68.3808 50.1057 68.2291 49.7243 67.9258 49.473C67.6225 49.2217 67.1501 49.096 66.5088 49.096Z" fill="white"/>
</svg>
