<svg width="864" height="144" viewBox="0 0 864 144" fill="none" xmlns="http://www.w3.org/2000/svg">
<g opacity="0.8">
<path opacity="0.8" d="M816.514 8.39921C818.247 3.73255 826.78 1.39922 842.114 1.39922C845.98 1.39922 850.514 1.66588 855.714 2.19922C861.047 2.73255 863.514 3.39922 863.114 4.19921L821.514 87.7992V136.599C821.514 138.866 817.847 140.466 810.514 141.399C806.78 141.933 803.114 142.199 799.514 142.199C795.914 142.199 792.314 141.999 788.714 141.599C781.38 140.666 777.714 138.999 777.714 136.599V88.9992L734.714 4.59921C734.18 3.79922 736.914 3.06588 742.914 2.39922C748.914 1.59922 753.98 1.19922 758.114 1.19922C774.514 1.19922 783.514 3.59922 785.114 8.39921L799.714 49.1992L816.514 8.39921Z" fill="white"/>
<path opacity="0.8" d="M707.867 142.2C696.267 142.2 690.001 140.333 689.067 136.6L682.467 110.8H650.667L644.867 135.6C644.067 139.733 637.667 141.8 625.667 141.8C619.267 141.8 614.534 141.467 611.467 140.8C608.4 140 606.867 139.4 606.867 139L642.267 3.6C642.267 2.53334 651.401 2 669.667 2C687.934 2 697.067 2.53334 697.067 3.6L731.667 139.2C731.667 140.133 728.601 140.867 722.467 141.4C716.334 141.933 711.467 142.2 707.867 142.2ZM655.667 85.4H676.667L667.667 44H666.467L655.667 85.4Z" fill="white"/>
<path opacity="0.8" d="M480.625 132.6V12.5998C480.625 9.26648 481.425 6.66648 483.025 4.7998C484.758 2.7998 486.958 1.7998 489.625 1.7998H523.025C544.225 1.7998 560.292 7.13314 571.225 17.7998C582.292 28.4665 587.825 45.2665 587.825 68.1998C587.825 117.266 566.892 141.8 525.025 141.8H490.825C484.025 141.8 480.625 138.733 480.625 132.6ZM519.025 39.7998V99.5998C519.025 102.4 519.225 104.2 519.625 105C520.025 105.666 521.225 106 523.225 106C530.558 106 536.092 103.266 539.825 97.7998C543.692 92.3331 545.625 83.2665 545.625 70.5998C545.625 57.7998 543.625 49.4665 539.625 45.5998C535.758 41.7331 529.558 39.7998 521.025 39.7998H519.025Z" fill="white"/>
<path opacity="0.8" d="M398.082 107.4V36.1998H383.882C381.616 36.1998 380.016 33.3331 379.082 27.5998C378.682 24.7998 378.482 21.9331 378.482 18.9998C378.482 16.0665 378.682 13.1998 379.082 10.3998C380.016 4.66647 381.616 1.7998 383.882 1.7998H451.082C453.349 1.7998 454.882 4.66647 455.682 10.3998C456.216 13.1998 456.482 16.0665 456.482 18.9998C456.482 21.9331 456.216 24.7998 455.682 27.5998C454.882 33.3331 453.349 36.1998 451.082 36.1998H437.682V107.4H451.682C453.949 107.4 455.549 110.266 456.482 116C457.016 118.8 457.282 121.666 457.282 124.6C457.282 127.533 457.016 130.4 456.482 133.2C455.549 138.933 453.949 141.8 451.682 141.8H384.282C382.016 141.8 380.482 138.933 379.682 133.2C379.149 130.4 378.882 127.533 378.882 124.6C378.882 121.666 379.149 118.8 379.682 116C380.482 110.266 382.016 107.4 384.282 107.4H398.082Z" fill="white"/>
<path opacity="0.8" d="M285.969 130V5.60038C285.969 2.80039 292.702 1.40039 306.169 1.40039C319.769 1.40039 326.569 2.80039 326.569 5.60038V103.6H357.369C359.769 103.6 361.435 106.734 362.369 113C362.769 116.067 362.969 119.2 362.969 122.4C362.969 125.6 362.769 128.867 362.369 132.2C361.302 138.6 359.569 141.8 357.169 141.8H295.569C292.635 141.8 290.302 140.6 288.569 138.2C286.835 135.8 285.969 133.067 285.969 130Z" fill="white"/>
<path opacity="0.8" d="M198.111 143.8C179.444 143.8 164.178 137.667 152.311 125.4C140.578 113.133 134.711 95.2667 134.711 71.8C134.711 48.2 140.644 30.3333 152.511 18.2C164.511 6.06667 179.911 0 198.711 0C217.644 0 232.911 6 244.511 18C256.111 29.8667 261.911 47.9333 261.911 72.2C261.911 96.3333 255.978 114.333 244.111 126.2C232.244 137.933 216.911 143.8 198.111 143.8ZM198.311 38.4C191.911 38.4 186.511 41.3333 182.111 47.2C177.844 53.0667 175.711 61.3333 175.711 72C175.711 82.5333 177.778 90.6667 181.911 96.4C186.044 102 191.444 104.8 198.111 104.8C204.911 104.8 210.378 101.933 214.511 96.2C218.778 90.4667 220.911 82.2667 220.911 71.6C220.911 60.9333 218.711 52.7333 214.311 47C210.044 41.2667 204.711 38.4 198.311 38.4Z" fill="white"/>
<path opacity="0.8" d="M108.8 138.4C108.8 140.666 102.067 141.8 88.6 141.8C75.1333 141.8 68.4 140.666 68.4 138.4V92.3996H40.4V138.4C40.4 140.666 33.6667 141.8 20.2 141.8C6.73333 141.8 0 140.666 0 138.4V5.79962C0 2.99961 6.73333 1.59961 20.2 1.59961C33.6667 1.59961 40.4 2.99961 40.4 5.79962V52.7996H68.4V6.19961C68.4 4.33294 71.7333 2.99961 78.4 2.19961C81.8667 1.93294 85.2667 1.79961 88.6 1.79961L98.8 2.19961C105.467 2.99961 108.8 4.33294 108.8 6.19961V138.4Z" fill="white"/>
</g>
</svg>
